# Created by FreeCAD <http://www.freecad.org>
v -3.079269 2.681737 2.083333
v -2.765566 3.004206 2.083333
v -3.142111 2.736467 1.666667
v -2.924994 2.728445 2.500000
v -3.424074 2.374200 1.666667
v -3.204953 2.791196 1.250000
v -3.492556 2.421684 1.250000
v -3.737763 2.022776 1.250000
v -3.811053 2.062439 0.833333
v -4.014808 1.630674 0.833333
v -3.884342 2.102101 0.416667
v -4.092015 1.662033 0.416667
v 4.416667 -0.000000 0.416667
v 4.500000 -0.000000 0.000000
v 4.493045 0.250086 0.000000
v -4.250017 1.201790 0.416667
v -4.291203 1.354833 0.000000
v -4.359866 1.114257 0.000000
v -4.415052 0.870236 0.000000
v -3.355593 2.326716 2.083333
v -3.337418 2.204914 2.500000
v -3.209722 2.386982 2.500000
v -3.454797 2.016030 2.500000
v -3.664474 1.983114 1.666667
v -3.937600 1.599315 1.250000
v -4.169828 1.179115 0.833333
v -4.356429 0.726959 0.416667
v -4.456593 0.623526 0.000000
v -4.484357 0.374888 0.000000
v 3.993818 0.222299 2.500000
v 4.000000 -0.000000 2.500000
v 4.083333 -0.000000 2.083333
v -3.591184 1.943452 2.083333
v -3.561498 1.820915 2.500000
v -3.657191 1.620171 2.500000
v -3.860392 1.567956 1.666667
v -4.089639 1.156440 1.250000
v -4.274232 0.713243 0.833333
v -4.409960 0.243304 0.416667
v -4.498261 0.125092 0.000000
v -3.783184 1.536597 2.083333
v -3.741580 1.414420 2.500000
v -3.814403 1.204296 2.500000
v -4.009450 1.133764 1.666667
v -4.192036 0.699527 1.250000
v -4.326753 0.238714 0.833333
v -4.409960 -0.243304 0.416667
v -4.498261 -0.125092 0.000000
v -4.484357 -0.374888 0.000000
v -3.929261 1.111089 2.083333
v -3.875437 0.990450 2.500000
v -3.924491 0.773543 2.500000
v -4.109839 0.685811 1.666667
v -4.243546 0.234123 1.250000
v -4.326753 -0.238714 0.833333
v -4.356429 -0.726959 0.416667
v -4.456593 -0.623526 0.000000
v -4.415052 -0.870236 0.000000
v -4.027642 0.672095 2.083333
v -3.961416 0.554245 2.500000
v -3.986095 0.333234 2.500000
v -4.160340 0.229532 1.666667
v -4.243546 -0.234123 1.250000
v -4.274232 -0.713243 0.833333
v -4.250017 -1.201790 0.416667
v -4.359866 -1.114257 0.000000
v -4.291203 -1.354833 0.000000
v -4.077133 0.224942 2.083333
v -3.998454 0.111192 2.500000
v -4.160340 -0.229532 1.666667
v -4.192036 -0.699527 1.250000
v -4.169828 -1.179115 0.833333
v -4.092015 -1.662033 0.416667
v -4.209277 -1.591222 0.000000
v -4.114340 -1.822692 0.000000
v -4.077133 -0.224942 2.083333
v -3.998454 -0.111192 2.500000
v -3.986095 -0.333234 2.500000
v -4.109839 -0.685811 1.666667
v -4.089639 -1.156440 1.250000
v -4.014808 -1.630674 0.833333
v -3.884342 -2.102101 0.416667
v -4.006686 -2.048529 0.000000
v -3.886647 -2.268034 0.000000
v -4.027642 -0.672095 2.083333
v -3.961416 -0.554245 2.500000
v -3.924491 -0.773543 2.500000
v -4.009450 -1.133764 1.666667
v -3.937600 -1.599315 1.250000
v -3.811053 -2.062439 0.833333
v -3.629519 -2.516652 0.416667
v -3.754595 -2.480528 0.000000
v -3.610937 -2.685355 0.000000
v -3.929261 -1.111089 2.083333
v -3.875437 -0.990450 2.500000
v -3.814403 -1.204296 2.500000
v -3.860392 -1.567956 1.666667
v -3.737763 -2.022776 1.250000
v -3.561037 -2.469168 0.833333
v -3.330637 -2.900655 0.416667
v -3.456119 -2.881882 0.000000
v -3.290618 -3.069501 0.000000
v -3.783184 -1.536597 2.083333
v -3.741580 -1.414420 2.500000
v -3.657191 -1.620171 2.500000
v -3.664474 -1.983114 1.666667
v -3.492556 -2.421684 1.250000
v -3.267795 -2.845925 0.833333
v -2.991327 -3.249447 0.416667
v -3.114945 -3.247632 0.000000
v -2.929645 -3.415726 0.000000
v -3.591184 -1.943452 2.083333
v -3.561498 -1.820915 2.500000
v -3.454797 -2.016030 2.500000
v -3.424074 -2.374200 1.666667
v -3.204953 -2.791196 1.250000
v -2.934887 -3.188137 0.833333
v -2.615706 -3.558796 0.416667
v -2.735289 -3.573261 0.000000
v -2.532479 -3.719752 0.000000
v -3.355593 -2.326716 2.083333
v -3.337418 -2.204914 2.500000
v -3.209722 -2.386982 2.500000
v -3.142111 -2.736467 1.666667
v -2.878447 -3.126827 1.250000
v -2.566353 -3.491649 0.833333
v -2.208333 -3.824945 0.416667
v -2.321840 -3.854745 0.000000
v -2.104026 -3.977823 0.000000
v -3.079269 -2.681737 2.083333
v -3.072106 -2.561673 2.500000
v -2.924994 -2.728445 2.500000
v -2.822006 -3.065516 1.666667
v -2.517000 -3.424502 1.250000
v -2.166667 -3.752777 0.833333
v -1.774155 -4.044665 0.416667
v -1.879707 -4.088606 0.000000
v -1.649579 -4.186752 0.000000
v -2.765566 -3.004206 2.083333
v -2.768840 -2.886784 2.500000
v -2.604129 -3.036201 2.500000
v -2.467647 -3.357355 1.666667
v -2.125000 -3.680608 1.250000
v -1.740680 -3.968351 0.833333
v -1.318440 -4.215289 0.416667
v -1.414352 -4.271956 0.000000
v -1.174753 -4.343956 0.000000
v -2.418294 -3.290208 2.083333
v -2.431368 -3.176232 2.500000
v -2.251092 -3.306446 2.500000
v -2.083333 -3.608439 1.666667
v -1.707206 -3.892037 1.250000
v -1.293564 -4.135755 0.833333
v -0.846722 -4.334744 0.416667
v -0.931523 -4.402529 0.000000
v -0.685414 -4.447495 0.000000
v -2.041667 -3.536270 2.083333
v -2.063858 -3.426440 2.500000
v -1.870245 -3.535843 2.500000
v -1.673731 -3.815722 1.666667
v -1.268688 -4.056221 1.250000
v -0.830746 -4.252956 0.833333
v -0.364725 -4.401581 0.416667
v -0.437186 -4.478713 0.000000
v -0.187607 -4.496088 0.000000
v -1.640256 -3.739408 2.083333
v -1.670851 -3.634317 2.500000
v -1.466292 -3.721557 2.500000
v -1.243812 -3.976687 1.666667
v -0.814770 -4.171169 1.250000
v -0.357844 -4.318533 0.833333
v 0.121698 -4.414989 0.416667
v 0.062552 -4.499565 0.000000
v 0.312517 -4.489135 0.000000
v -1.218935 -3.897154 2.083333
v -1.257202 -3.797294 2.500000
v -1.044225 -3.861295 2.500000
v -0.798794 -4.089381 1.666667
v -0.350962 -4.235484 1.250000
v 0.119402 -4.331688 0.833333
v 0.606645 -4.374806 0.416667
v 0.561517 -4.464829 0.000000
v 0.808781 -4.426723 0.000000
v -0.782818 -4.007594 2.083333
v -0.828021 -3.913359 2.500000
v -0.609257 -3.953328 2.500000
v -0.344081 -4.152435 1.666667
v 0.117106 -4.248386 1.250000
v 0.595199 -4.292263 0.833333
v 1.084228 -4.281518 0.416667
v 1.053545 -4.374933 0.000000
v 1.295053 -4.309622 0.000000
v -0.337199 -4.069386 2.083333
v -0.388610 -3.981078 2.500000
v -0.166762 -3.996522 2.500000
v 0.114810 -4.165085 1.666667
v 0.583753 -4.209719 1.250000
v 1.063770 -4.200735 0.833333
v 1.548649 -4.136258 0.416667
v 1.532558 -4.230989 0.000000
v 1.765325 -4.139278 0.000000
v 0.112514 -4.081783 2.083333
v 0.055602 -3.999614 2.500000
v 0.277793 -3.990342 2.500000
v 0.572307 -4.127175 1.666667
v 1.043313 -4.119951 1.250000
v 1.519429 -4.058215 0.833333
v 1.994272 -3.940789 0.416667
v 1.992636 -4.034774 0.000000
v 2.213789 -3.917798 0.000000
v 0.560860 -4.044632 2.083333
v 0.499126 -3.968737 2.500000
v 0.718916 -3.934865 2.500000
v 1.022856 -4.039168 1.666667
v 1.490210 -3.980173 1.250000
v 1.956645 -3.866435 0.833333
v 2.415688 -3.697485 0.416667
v 2.428098 -3.788712 0.000000
v 2.634902 -3.647916 0.000000
v 1.002399 -3.958385 2.083333
v 0.936485 -3.888830 2.500000
v 1.151158 -3.830775 2.500000
v 1.460990 -3.902130 1.666667
v 1.919017 -3.792080 1.250000
v 2.370109 -3.627721 0.833333
v 2.807780 -3.409299 0.416667
v 2.833562 -3.495844 0.000000
v 3.023463 -3.332967 0.000000
v 1.431770 -3.824088 2.083333
v 1.362273 -3.760879 2.500000
v 1.569178 -3.679359 2.500000
v 1.881389 -3.717726 1.666667
v 2.324530 -3.557958 1.250000
v 2.754803 -3.344972 0.833333
v 3.165789 -3.079728 0.416667
v 3.204020 -3.159788 0.000000
v 3.374672 -2.976842 0.000000
v 1.843761 -3.643372 2.083333
v 1.771232 -3.586466 2.500000
v 1.967812 -3.482487 2.500000
v 2.278951 -3.488194 1.666667
v 2.701826 -3.280646 1.250000
v 3.106058 -3.021620 0.833333
v 3.485371 -2.712773 0.416667
v 3.534894 -2.784694 0.000000
v 3.684190 -2.583940 0.000000
v 2.233372 -3.418430 2.083333
v 2.158309 -3.367744 2.500000
v 2.342135 -3.242592 2.500000
v 2.648849 -3.216319 1.666667
v 3.046326 -2.963511 1.250000
v 3.419609 -2.661588 0.833333
v 3.762644 -2.312889 0.416667
v 3.822098 -2.375199 0.000000
v 3.948192 -2.159116 0.000000
v 2.595872 -3.151993 2.083333
v 2.518722 -3.107417 2.500000
v 2.687523 -2.962637 2.500000
v 2.986594 -2.905403 1.666667
v 3.353847 -2.610404 1.250000
v 3.691651 -2.269249 0.833333
v 3.994244 -1.884929 0.416667
v 4.062082 -1.936359 0.000000
v 4.163417 -1.707617 0.000000
v 2.926862 -2.847295 2.083333
v 2.848017 -2.808700 2.500000
v 2.999709 -2.646081 2.500000
v 3.288085 -2.559220 1.666667
v 3.620657 -2.225610 1.250000
v 3.918881 -1.849365 0.833333
v 4.177360 -1.434089 0.416667
v 4.251884 -1.473597 0.000000
v 4.327207 -1.235022 0.000000
v 3.222324 -2.508035 2.083333
v 3.142128 -2.475284 2.500000
v 3.274835 -2.296835 2.500000
v 3.549664 -2.181970 1.666667
v 3.843518 -1.813800 1.250000
v 4.098541 -1.407031 0.833333
v 4.309767 -0.965841 0.416667
v 4.389155 -0.992630 0.000000
v 4.437537 -0.747170 0.000000
v 3.478671 -2.138331 2.083333
v 3.397420 -2.111288 2.500000
v 3.509504 -1.919214 2.500000
v 3.768155 -1.778235 1.666667
v 4.019723 -1.379973 1.250000
v 4.228451 -0.947618 0.833333
v 4.389861 -0.485870 0.416667
v 4.472203 -0.499400 0.000000
v 4.493045 -0.250086 0.000000
v 4.333333 -0.000000 0.833333
v 3.692792 -1.742670 2.083333
v 3.610740 -1.721208 2.500000
v 3.700815 -1.517882 2.500000
v 3.940905 -1.352914 1.666667
v 4.147135 -0.929395 1.250000
v 4.307033 -0.476702 0.833333
v 3.862087 -1.325856 2.083333
v 3.779452 -1.309864 2.500000
v 3.846406 -1.097798 2.500000
v 4.065818 -0.911171 1.666667
v 4.224205 -0.467535 1.250000
v 4.250000 -0.000000 1.250000
v 4.166667 -0.000000 1.666667
v 3.984502 -0.892948 2.083333
v 3.901472 -0.882338 2.500000
v 3.944478 -0.664151 2.500000
v 4.141378 -0.458368 1.666667
v 4.058550 -0.449200 2.083333
v 3.993818 -0.222299 2.500000
v 3.975291 -0.443911 2.500000
v 4.389861 0.485870 0.416667
v 4.472203 0.499400 0.000000
v 4.437537 0.747170 0.000000
v 4.307033 0.476702 0.833333
v 4.309767 0.965841 0.416667
v 4.389155 0.992630 0.000000
v 4.327207 1.235022 0.000000
v 4.224205 0.467535 1.250000
v 4.228451 0.947618 0.833333
v 4.177360 1.434089 0.416667
v 4.251884 1.473597 0.000000
v 4.163417 1.707617 0.000000
v 4.141378 0.458368 1.666667
v 4.147135 0.929395 1.250000
v 4.098541 1.407031 0.833333
v 3.994244 1.884929 0.416667
v 4.062082 1.936359 0.000000
v 3.948192 2.159116 0.000000
v 4.058550 0.449200 2.083333
v 3.975291 0.443911 2.500000
v 3.944478 0.664151 2.500000
v 4.065818 0.911171 1.666667
v 4.019723 1.379973 1.250000
v 3.918881 1.849365 0.833333
v 3.762644 2.312889 0.416667
v 3.822098 2.375199 0.000000
v 3.684190 2.583940 0.000000
v 3.984502 0.892948 2.083333
v 3.901472 0.882338 2.500000
v 3.846406 1.097798 2.500000
v 3.940905 1.352914 1.666667
v 3.843518 1.813800 1.250000
v 3.691651 2.269249 0.833333
v 3.485371 2.712773 0.416667
v 3.534894 2.784694 0.000000
v 3.374672 2.976842 0.000000
v 3.862087 1.325856 2.083333
v 3.779452 1.309864 2.500000
v 3.700815 1.517882 2.500000
v 3.768155 1.778235 1.666667
v 3.620657 2.225610 1.250000
v 3.419609 2.661588 0.833333
v 3.165789 3.079728 0.416667
v 3.204020 3.159788 0.000000
v 3.023463 3.332967 0.000000
v 3.692792 1.742670 2.083333
v 3.610740 1.721208 2.500000
v 3.509504 1.919214 2.500000
v 3.549664 2.181970 1.666667
v 3.353847 2.610404 1.250000
v 3.106058 3.021620 0.833333
v 2.807780 3.409299 0.416667
v 2.833562 3.495844 0.000000
v 2.634902 3.647916 0.000000
v 3.478671 2.138331 2.083333
v 3.397420 2.111288 2.500000
v 3.274835 2.296835 2.500000
v 3.288085 2.559220 1.666667
v 3.046326 2.963511 1.250000
v 2.754803 3.344972 0.833333
v 2.415688 3.697485 0.416667
v 2.428098 3.788712 0.000000
v 2.213789 3.917798 0.000000
v 3.222324 2.508035 2.083333
v 3.142128 2.475284 2.500000
v 2.999709 2.646081 2.500000
v 2.986594 2.905403 1.666667
v 2.701826 3.280646 1.250000
v 2.370109 3.627721 0.833333
v 1.994272 3.940789 0.416667
v 1.992636 4.034774 0.000000
v 1.765325 4.139278 0.000000
v 2.926862 2.847295 2.083333
v 2.848017 2.808700 2.500000
v 2.687523 2.962637 2.500000
v 2.648849 3.216319 1.666667
v 2.324530 3.557958 1.250000
v 1.956645 3.866435 0.833333
v 1.548649 4.136258 0.416667
v 1.532558 4.230989 0.000000
v 1.295053 4.309622 0.000000
v 2.595872 3.151993 2.083333
v 2.518722 3.107417 2.500000
v 2.342135 3.242592 2.500000
v 2.278951 3.488194 1.666667
v 1.919017 3.792080 1.250000
v 1.519429 4.058215 0.833333
v 1.084228 4.281518 0.416667
v 1.053545 4.374933 0.000000
v 0.808781 4.426723 0.000000
v 2.233372 3.418430 2.083333
v 2.158309 3.367744 2.500000
v 1.967812 3.482487 2.500000
v 1.881389 3.717726 1.666667
v 1.490210 3.980173 1.250000
v 1.063770 4.200735 0.833333
v 0.606645 4.374806 0.416667
v 0.561517 4.464829 0.000000
v 0.312517 4.489135 0.000000
v 1.843761 3.643372 2.083333
v 1.771232 3.586466 2.500000
v 1.569178 3.679359 2.500000
v 1.460990 3.902130 1.666667
v 1.043313 4.119951 1.250000
v 0.595199 4.292263 0.833333
v 0.121698 4.414989 0.416667
v 0.062552 4.499565 0.000000
v -0.187607 4.496088 0.000000
v 1.431770 3.824088 2.083333
v 1.362273 3.760879 2.500000
v 1.151158 3.830775 2.500000
v 1.022856 4.039168 1.666667
v 0.583753 4.209719 1.250000
v 0.119402 4.331688 0.833333
v -0.364725 4.401581 0.416667
v -0.437186 4.478713 0.000000
v -0.685414 4.447495 0.000000
v 1.002399 3.958385 2.083333
v 0.936485 3.888830 2.500000
v 0.718916 3.934865 2.500000
v 0.572307 4.127175 1.666667
v 0.117106 4.248386 1.250000
v -0.357844 4.318533 0.833333
v -0.846722 4.334744 0.416667
v -0.931523 4.402529 0.000000
v -1.174753 4.343956 0.000000
v 0.560860 4.044632 2.083333
v 0.499126 3.968737 2.500000
v 0.277793 3.990342 2.500000
v 0.114810 4.165085 1.666667
v -0.350962 4.235484 1.250000
v -0.830746 4.252956 0.833333
v -1.318440 4.215289 0.416667
v -1.414352 4.271956 0.000000
v -1.649579 4.186752 0.000000
v 0.112514 4.081783 2.083333
v 0.055602 3.999614 2.500000
v -0.166762 3.996522 2.500000
v -0.344081 4.152435 1.666667
v -0.814770 4.171169 1.250000
v -1.293564 4.135755 0.833333
v -1.774155 4.044665 0.416667
v -1.879707 4.088606 0.000000
v -2.104026 3.977823 0.000000
v -0.337199 4.069386 2.083333
v -0.388610 3.981078 2.500000
v -0.609257 3.953328 2.500000
v -0.798794 4.089381 1.666667
v -1.268688 4.056221 1.250000
v -1.740680 3.968351 0.833333
v -2.208333 3.824945 0.416667
v -2.321840 3.854745 0.000000
v -2.532479 3.719752 0.000000
v -0.782818 4.007594 2.083333
v -0.828021 3.913359 2.500000
v -1.044225 3.861295 2.500000
v -1.243812 3.976687 1.666667
v -1.707206 3.892037 1.250000
v -2.166667 3.752777 0.833333
v -2.615706 3.558796 0.416667
v -2.735289 3.573261 0.000000
v -2.929645 3.415726 0.000000
v -1.218935 3.897154 2.083333
v -1.257202 3.797294 2.500000
v -1.466292 3.721557 2.500000
v -1.673731 3.815722 1.666667
v -2.125000 3.680608 1.250000
v -2.566353 3.491649 0.833333
v -2.991327 3.249447 0.416667
v -3.114945 3.247632 0.000000
v -3.290618 3.069501 0.000000
v -1.640256 3.739408 2.083333
v -1.670851 3.634317 2.500000
v -1.870245 3.535843 2.500000
v -2.083333 3.608439 1.666667
v -2.517000 3.424502 1.250000
v -2.934887 3.188137 0.833333
v -3.330637 2.900655 0.416667
v -3.456119 2.881882 0.000000
v -3.610937 2.685355 0.000000
v -2.041667 3.536270 2.083333
v -2.063858 3.426440 2.500000
v -2.251092 3.306446 2.500000
v -2.467647 3.357355 1.666667
v -2.878447 3.126827 1.250000
v -3.267795 2.845925 0.833333
v -3.629519 2.516652 0.416667
v -3.754595 2.480528 0.000000
v -3.886647 2.268034 0.000000
v -2.418294 3.290208 2.083333
v -2.431368 3.176232 2.500000
v -2.604129 3.036201 2.500000
v -2.822006 3.065516 1.666667
v -3.561037 2.469168 0.833333
v -4.006686 2.048529 0.000000
v -4.114340 1.822692 0.000000
v -2.768840 2.886784 2.500000
v -4.209277 1.591222 0.000000
v -3.072106 2.561673 2.500000
v -1.950000 -1.939072 2.500000
v -1.841765 -2.042156 2.500000
v -1.728089 -2.139207 2.500000
v -1.609309 -2.229939 2.500000
v -1.485774 -2.314082 2.500000
v -1.357849 -2.391390 2.500000
v -1.225914 -2.461633 2.500000
v -1.090356 -2.524604 2.500000
v -0.951578 -2.580116 2.500000
v -0.809989 -2.628006 2.500000
v -0.666006 -2.668133 2.500000
v -0.520056 -2.700378 2.500000
v -0.372570 -2.724645 2.500000
v -0.223983 -2.740863 2.500000
v -0.074735 -2.748984 2.500000
v 0.074735 -2.748984 2.500000
v 0.223983 -2.740863 2.500000
v 0.372570 -2.724645 2.500000
v 0.520056 -2.700378 2.500000
v 0.666006 -2.668133 2.500000
v 0.809989 -2.628006 2.500000
v 0.951578 -2.580116 2.500000
v 1.090356 -2.524604 2.500000
v 1.225914 -2.461633 2.500000
v 1.357849 -2.391390 2.500000
v 1.485774 -2.314082 2.500000
v 1.609309 -2.229939 2.500000
v 1.728089 -2.139207 2.500000
v 1.841765 -2.042156 2.500000
v -1.950000 1.939072 2.500000
v 1.950000 -1.939072 2.500000
v -1.841765 2.042156 2.500000
v -1.728089 2.139207 2.500000
v -1.609309 2.229939 2.500000
v -1.485774 2.314082 2.500000
v -1.357849 2.391390 2.500000
v -1.225914 2.461633 2.500000
v -1.090356 2.524604 2.500000
v -0.951578 2.580116 2.500000
v -0.809989 2.628006 2.500000
v -0.666006 2.668133 2.500000
v -0.520056 2.700378 2.500000
v -0.372570 2.724645 2.500000
v -0.223983 2.740863 2.500000
v -0.074735 2.748984 2.500000
v 1.950000 1.939072 2.500000
v 0.074735 2.748984 2.500000
v 0.223983 2.740863 2.500000
v 0.372570 2.724645 2.500000
v 0.520056 2.700378 2.500000
v 0.666006 2.668133 2.500000
v 0.809989 2.628006 2.500000
v 0.951578 2.580116 2.500000
v 1.090356 2.524604 2.500000
v 1.225914 2.461633 2.500000
v 1.357849 2.391390 2.500000
v 1.485774 2.314082 2.500000
v 1.609309 2.229939 2.500000
v 1.728089 2.139207 2.500000
v 1.841765 2.042156 2.500000
v -1.950000 -1.939072 0.000000
v -1.841765 -2.042156 0.000000
v -1.728089 -2.139207 0.000000
v -1.609309 -2.229939 0.000000
v -1.485774 -2.314082 0.000000
v -1.357849 -2.391390 0.000000
v -1.225914 -2.461633 0.000000
v -1.090356 -2.524604 0.000000
v -0.951578 -2.580116 0.000000
v -0.809989 -2.628006 0.000000
v -0.666006 -2.668133 0.000000
v -0.520056 -2.700378 0.000000
v -0.372570 -2.724645 0.000000
v -0.223983 -2.740863 0.000000
v -0.074735 -2.748984 0.000000
v 0.074735 -2.748984 0.000000
v 0.223983 -2.740863 0.000000
v 0.372570 -2.724645 0.000000
v 0.520056 -2.700378 0.000000
v 0.666006 -2.668133 0.000000
v 0.809989 -2.628006 0.000000
v 0.951578 -2.580116 0.000000
v 1.090356 -2.524604 0.000000
v 1.225914 -2.461633 0.000000
v 1.357849 -2.391390 0.000000
v 1.485774 -2.314082 0.000000
v 1.609309 -2.229939 0.000000
v 1.728089 -2.139207 0.000000
v 1.841765 -2.042156 0.000000
v -1.950000 1.939072 0.000000
v 1.950000 -1.939072 0.000000
v -1.841765 2.042156 0.000000
v -1.728089 2.139207 0.000000
v -1.609309 2.229939 0.000000
v -1.485774 2.314082 0.000000
v -1.357849 2.391390 0.000000
v -1.225914 2.461633 0.000000
v -1.090356 2.524604 0.000000
v -0.951578 2.580116 0.000000
v -0.809989 2.628006 0.000000
v -0.666006 2.668133 0.000000
v -0.520056 2.700378 0.000000
v -0.372570 2.724645 0.000000
v -0.223983 2.740863 0.000000
v -0.074735 2.748984 0.000000
v 1.950000 1.939072 0.000000
v 0.074735 2.748984 0.000000
v 0.223983 2.740863 0.000000
v 0.372570 2.724645 0.000000
v 0.520056 2.700378 0.000000
v 0.666006 2.668133 0.000000
v 0.809989 2.628006 0.000000
v 0.951578 2.580116 0.000000
v 1.090356 2.524604 0.000000
v 1.225914 2.461633 0.000000
v 1.357849 2.391390 0.000000
v 1.485774 2.314082 0.000000
v 1.609309 2.229939 0.000000
v 1.728089 2.139207 0.000000
v 1.841765 2.042156 0.000000
vn -0.702904 0.683796 0.195830
vn -0.704540 0.685387 0.184032
vn -0.773861 0.602320 0.195830
vn -0.773861 0.602320 0.195830
vn -0.835424 0.513533 0.195830
vn -0.835424 0.513534 0.195830
vn -0.886847 0.418513 0.195829
vn -0.886847 0.418513 0.195830
vn 0.980216 0.027259 0.196044
vn -0.943672 0.269332 0.192206
vn -0.954393 0.215840 0.206270
vn -0.925111 0.317592 0.208097
vn -0.773861 0.602320 0.195830
vn -0.802255 0.562669 0.199477
vn -0.834221 0.518417 0.187936
vn -0.775634 0.603700 0.184223
vn -0.773861 0.602320 0.195830
vn -0.835424 0.513534 0.195830
vn -0.835424 0.513534 0.195830
vn -0.886847 0.418513 0.195830
vn -0.886847 0.418513 0.195830
vn -0.927504 0.318412 0.195829
vn -0.927504 0.318413 0.195830
vn -0.967736 0.162944 0.192187
vn -0.972342 0.108579 0.206790
vn 0.980216 0.027259 0.196044
vn -0.954486 0.213905 0.207847
vn -0.837306 0.514690 0.184422
vn -0.859735 0.470156 0.199521
vn -0.886680 0.422672 0.187476
vn -0.835424 0.513533 0.195830
vn -0.886847 0.418513 0.195830
vn -0.886847 0.418513 0.195830
vn -0.927504 0.318412 0.195829
vn -0.927504 0.318413 0.195830
vn -0.927504 0.318413 0.195830
vn -0.956903 0.214447 0.195830
vn -0.956903 0.214447 0.195830
vn -0.979843 0.054538 0.192178
vn -0.972279 0.107611 0.207588
vn -0.886847 0.418513 0.195830
vn -0.888809 0.419439 0.184631
vn -0.906595 0.371838 0.199556
vn -0.928194 0.321689 0.187008
vn -0.886847 0.418513 0.195830
vn -0.927504 0.318413 0.195830
vn -0.956903 0.214447 0.195830
vn -0.956903 0.214447 0.195830
vn -0.956903 0.214447 0.195829
vn -0.974686 0.107878 0.195830
vn -0.974686 0.107878 0.195829
vn -0.978274 0.000000 0.207319
vn -0.979843 -0.054538 0.192178
vn -0.978273 0.000000 0.207318
vn -0.927504 0.318413 0.195830
vn -0.927504 0.318413 0.195830
vn -0.942255 0.268928 0.199583
vn -0.958249 0.216713 0.186531
vn -0.929518 0.319104 0.184847
vn -0.956903 0.214447 0.195830
vn -0.956903 0.214447 0.195830
vn -0.974686 0.107878 0.195830
vn -0.974686 0.107878 0.195830
vn -0.974686 0.107878 0.195829
vn -0.980638 0.000000 0.195829
vn -0.980638 0.000000 0.195829
vn -0.972279 -0.107611 0.207588
vn -0.972342 -0.108579 0.206790
vn -0.967736 -0.162944 0.192187
vn -0.966276 0.162697 0.199600
vn -0.976472 0.109040 0.186044
vn -0.958939 0.214903 0.185073
vn -0.956903 0.214447 0.195831
vn -0.974686 0.107878 0.195829
vn -0.980638 0.000000 0.195829
vn -0.980638 0.000000 0.195829
vn -0.980638 0.000000 0.195829
vn -0.974686 -0.107878 0.195829
vn -0.974686 -0.107878 0.195830
vn -0.954486 -0.213905 0.207847
vn -0.954393 -0.215840 0.206270
vn -0.943672 -0.269332 0.192206
vn -0.978361 0.054457 0.199609
vn -0.976717 0.108103 0.185307
vn -0.974686 0.107878 0.195831
vn -0.974686 0.107878 0.195831
vn -0.980638 0.000000 0.195831
vn -0.980638 0.000000 0.195829
vn -0.974686 -0.107878 0.195829
vn -0.974686 -0.107878 0.195830
vn -0.956903 -0.214447 0.195830
vn -0.956903 -0.214447 0.195830
vn -0.925111 -0.317592 0.208097
vn -0.924645 -0.320459 0.205761
vn -0.907947 -0.372394 0.192235
vn -0.982635 0.000000 0.185549
vn -0.978361 -0.054457 0.199609
vn -0.980638 0.000000 0.195831
vn -0.982635 0.000000 0.185549
vn -0.974686 -0.107878 0.195830
vn -0.974686 -0.107878 0.195829
vn -0.956903 -0.214447 0.195829
vn -0.956903 -0.214447 0.195830
vn -0.927504 -0.318412 0.195830
vn -0.927504 -0.318413 0.195829
vn -0.884513 -0.417411 0.208338
vn -0.883465 -0.421139 0.205259
vn -0.861005 -0.470851 0.192273
vn -0.976717 -0.108103 0.185307
vn -0.974686 -0.107878 0.195831
vn -0.976472 -0.109040 0.186044
vn -0.966276 -0.162697 0.199600
vn -0.974686 -0.107878 0.195831
vn -0.956903 -0.214447 0.195830
vn -0.956903 -0.214447 0.195830
vn -0.927504 -0.318412 0.195830
vn -0.927504 -0.318413 0.195829
vn -0.886847 -0.418513 0.195830
vn -0.886847 -0.418513 0.195829
vn -0.833184 -0.512156 0.208568
vn -0.831358 -0.516638 0.204767
vn -0.803425 -0.563490 0.192320
vn -0.956903 -0.214447 0.195830
vn -0.958939 -0.214903 0.185073
vn -0.958249 -0.216713 0.186531
vn -0.942255 -0.268928 0.199583
vn -0.956903 -0.214447 0.195831
vn -0.927504 -0.318413 0.195830
vn -0.927504 -0.318413 0.195830
vn -0.886847 -0.418513 0.195830
vn -0.886847 -0.418513 0.195830
vn -0.886847 -0.418513 0.195830
vn -0.835424 -0.513534 0.195830
vn -0.835424 -0.513533 0.195830
vn -0.771748 -0.600676 0.208789
vn -0.768966 -0.605771 0.204285
vn -0.735920 -0.649163 0.192378
vn -0.927504 -0.318413 0.195830
vn -0.927504 -0.318413 0.195830
vn -0.929518 -0.319104 0.184847
vn -0.928194 -0.321689 0.187008
vn -0.906595 -0.371838 0.199556
vn -0.886847 -0.418513 0.195830
vn -0.886847 -0.418513 0.195830
vn -0.835424 -0.513534 0.195830
vn -0.835424 -0.513534 0.195830
vn -0.835424 -0.513533 0.195830
vn -0.773861 -0.602320 0.195830
vn -0.773861 -0.602320 0.195830
vn -0.700953 -0.681897 0.209001
vn -0.697059 -0.687437 0.203811
vn -0.659323 -0.726814 0.192444
vn -0.886847 -0.418513 0.195830
vn -0.888809 -0.419439 0.184631
vn -0.886680 -0.422672 0.187476
vn -0.859735 -0.470156 0.199521
vn -0.835424 -0.513534 0.195830
vn -0.835424 -0.513534 0.195830
vn -0.773861 -0.602320 0.195829
vn -0.773861 -0.602320 0.195830
vn -0.702904 -0.683796 0.195830
vn -0.702904 -0.683795 0.195830
vn -0.702904 -0.683796 0.195829
vn -0.621657 -0.754836 0.209203
vn -0.616524 -0.760623 0.203348
vn -0.574580 -0.795483 0.192521
vn -0.834221 -0.518417 0.187936
vn -0.835424 -0.513533 0.195830
vn -0.802255 -0.562669 0.199477
vn -0.837306 -0.514690 0.184422
vn -0.773861 -0.602320 0.195830
vn -0.773861 -0.602320 0.195830
vn -0.702904 -0.683796 0.195830
vn -0.623415 -0.756971 0.195830
vn -0.623415 -0.756971 0.195830
vn -0.623415 -0.756971 0.195830
vn -0.534823 -0.818608 0.209395
vn -0.528354 -0.824425 0.202894
vn -0.482742 -0.854320 0.192606
vn -0.771467 -0.607741 0.188386
vn -0.734864 -0.648232 0.199425
vn -0.773861 -0.602320 0.195830
vn -0.773861 -0.602320 0.195830
vn -0.775634 -0.603700 0.184223
vn -0.702904 -0.683796 0.195830
vn -0.702904 -0.683796 0.195830
vn -0.623415 -0.756971 0.195830
vn -0.536358 -0.820957 0.195829
vn -0.536358 -0.820957 0.195830
vn -0.441506 -0.872439 0.209578
vn -0.433639 -0.878050 0.202450
vn -0.384942 -0.902599 0.192702
vn -0.702904 -0.683796 0.195830
vn -0.699195 -0.689543 0.188828
vn -0.658393 -0.725791 0.199363
vn -0.704540 -0.685387 0.184032
vn -0.702904 -0.683796 0.195830
vn -0.623415 -0.756971 0.195830
vn -0.623415 -0.756971 0.195830
vn -0.536358 -0.820957 0.195830
vn -0.536358 -0.820957 0.195830
vn -0.442791 -0.874978 0.195829
vn -0.442791 -0.874979 0.195829
vn -0.342838 -0.915678 0.209751
vn -0.333546 -0.920835 0.202013
vn -0.282390 -0.939724 0.192806
vn -0.623415 -0.756971 0.195830
vn -0.624888 -0.758759 0.183850
vn -0.618300 -0.762814 0.189260
vn -0.573787 -0.794387 0.199294
vn -0.623415 -0.756971 0.195830
vn -0.536358 -0.820957 0.195830
vn -0.536358 -0.820957 0.195830
vn -0.442791 -0.874978 0.195830
vn -0.442791 -0.874978 0.195830
vn -0.343848 -0.918378 0.195829
vn -0.343849 -0.918378 0.195829
vn -0.343848 -0.918378 0.195830
vn -0.240016 -0.947802 0.209913
vn -0.229315 -0.952248 0.201587
vn -0.176353 -0.965236 0.192921
vn -0.536358 -0.820957 0.195830
vn -0.536358 -0.820957 0.195830
vn -0.537643 -0.822924 0.183677
vn -0.529781 -0.826651 0.189684
vn -0.482092 -0.853171 0.199215
vn -0.442791 -0.874978 0.195830
vn -0.442791 -0.874978 0.195830
vn -0.343849 -0.918378 0.195829
vn -0.240732 -0.950631 0.195829
vn -0.240732 -0.950631 0.195830
vn -0.122230 -0.971901 0.201170
vn -0.068143 -0.978821 0.193045
vn -0.134289 -0.968421 0.210067
vn -0.442791 -0.874978 0.195830
vn -0.443865 -0.877101 0.183512
vn -0.434734 -0.880266 0.190098
vn -0.384438 -0.901419 0.199126
vn -0.442791 -0.874978 0.195830
vn -0.343848 -0.918378 0.195830
vn -0.343849 -0.918378 0.195830
vn -0.240732 -0.950631 0.195829
vn -0.240732 -0.950631 0.195830
vn -0.134694 -0.971344 0.195829
vn -0.134695 -0.971343 0.195830
vn -0.013617 -0.979545 0.200763
vn 0.040905 -0.980311 0.193178
vn -0.026939 -0.977285 0.210212
vn -0.343848 -0.918379 0.195829
vn -0.344693 -0.920634 0.183355
vn -0.334331 -0.923001 0.190504
vn -0.282032 -0.938533 0.199030
vn -0.343849 -0.918378 0.195830
vn -0.240732 -0.950630 0.195830
vn -0.240732 -0.950631 0.195830
vn -0.134695 -0.971343 0.195830
vn -0.134694 -0.971343 0.195830
vn -0.134694 -0.971343 0.195830
vn -0.027020 -0.980266 0.195829
vn -0.027021 -0.980266 0.195829
vn -0.027020 -0.980265 0.195830
vn 0.095182 -0.975087 0.200364
vn 0.149441 -0.969688 0.193321
vn 0.080731 -0.974288 0.210346
vn -0.240732 -0.950631 0.195829
vn -0.240733 -0.950631 0.195830
vn -0.241330 -0.952992 0.183208
vn -0.229815 -0.954328 0.190901
vn -0.176137 -0.964056 0.198925
vn -0.134694 -0.971343 0.195830
vn -0.027021 -0.980266 0.195829
vn 0.080980 -0.977289 0.195829
vn 0.080980 -0.977289 0.195829
vn 0.202824 -0.958578 0.199975
vn 0.256122 -0.947085 0.193473
vn 0.187416 -0.959467 0.210470
vn -0.134694 -0.971344 0.195830
vn -0.122478 -0.973862 0.191288
vn -0.134694 -0.971344 0.195830
vn -0.068061 -0.977672 0.198810
vn -0.135032 -0.973782 0.183069
vn -0.027021 -0.980265 0.195830
vn -0.027021 -0.980265 0.195830
vn -0.027021 -0.980266 0.195829
vn 0.080981 -0.977289 0.195829
vn 0.080980 -0.977288 0.195831
vn 0.080981 -0.977289 0.195829
vn 0.187999 -0.962449 0.195830
vn 0.187999 -0.962449 0.195829
vn 0.307977 -0.930221 0.199596
vn 0.359636 -0.912780 0.193635
vn 0.291821 -0.933003 0.210586
vn -0.027090 -0.982751 0.182939
vn -0.013643 -0.981365 0.191668
vn 0.040860 -0.979211 0.198687
vn -0.027021 -0.980265 0.195831
vn 0.080981 -0.977289 0.195830
vn 0.187999 -0.962449 0.195830
vn 0.187998 -0.962449 0.195829
vn 0.187998 -0.962449 0.195831
vn 0.292736 -0.935926 0.195830
vn 0.292735 -0.935926 0.195831
vn 0.409339 -0.890366 0.199226
vn 0.458696 -0.867201 0.193807
vn 0.392679 -0.895217 0.210691
vn 0.081187 -0.979789 0.182818
vn 0.080981 -0.977289 0.195830
vn 0.095344 -0.976745 0.192039
vn 0.149281 -0.968654 0.198556
vn 0.080980 -0.977288 0.195831
vn 0.187998 -0.962449 0.195830
vn 0.292735 -0.935926 0.195830
vn 0.292736 -0.935926 0.195829
vn 0.393917 -0.898042 0.195830
vn 0.393918 -0.898042 0.195830
vn 0.505660 -0.839500 0.198865
vn 0.552082 -0.810909 0.193988
vn 0.488766 -0.846567 0.210788
vn 0.187999 -0.962449 0.195830
vn 0.187998 -0.962449 0.195830
vn 0.188484 -0.964931 0.182705
vn 0.203137 -0.960061 0.192400
vn 0.255866 -0.946131 0.198416
vn 0.292735 -0.935926 0.195830
vn 0.292735 -0.935926 0.195830
vn 0.393918 -0.898042 0.195829
vn 0.393917 -0.898042 0.195830
vn 0.490319 -0.849257 0.195830
vn 0.490319 -0.849257 0.195830
vn 0.595745 -0.778255 0.198514
vn 0.638640 -0.744603 0.194178
vn 0.578918 -0.787646 0.210874
vn 0.292735 -0.935926 0.195830
vn 0.292735 -0.935926 0.195830
vn 0.293496 -0.938359 0.182600
vn 0.308407 -0.931521 0.192752
vn 0.359296 -0.911919 0.198266
vn 0.393918 -0.898042 0.195830
vn 0.393918 -0.898042 0.195829
vn 0.490319 -0.849258 0.195830
vn 0.490319 -0.849257 0.195829
vn 0.580768 -0.790164 0.195830
vn 0.580768 -0.790164 0.195830
vn 0.678482 -0.707382 0.198172
vn 0.717301 -0.669102 0.194378
vn 0.662040 -0.719168 0.210951
vn 0.393918 -0.898042 0.195830
vn 0.393918 -0.898042 0.195830
vn 0.394949 -0.900393 0.182505
vn 0.409852 -0.891480 0.193096
vn 0.458294 -0.866441 0.198108
vn 0.490319 -0.849258 0.195829
vn 0.490319 -0.849258 0.195830
vn 0.580769 -0.790164 0.195829
vn 0.580768 -0.790164 0.195830
vn 0.580768 -0.790164 0.195830
vn 0.664168 -0.721479 0.195830
vn 0.664168 -0.721479 0.195830
vn 0.752846 -0.627760 0.197839
vn 0.787092 -0.585339 0.194588
vn 0.737126 -0.641963 0.211018
vn 0.490319 -0.849257 0.195830
vn 0.490319 -0.849257 0.195830
vn 0.491610 -0.851494 0.182418
vn 0.506220 -0.840432 0.193430
vn 0.551637 -0.810256 0.197942
vn 0.580769 -0.790164 0.195830
vn 0.664168 -0.721479 0.195830
vn 0.664168 -0.721479 0.195830
vn 0.739506 -0.644036 0.195830
vn 0.739505 -0.644036 0.195830
vn 0.817917 -0.540369 0.197517
vn 0.847152 -0.494351 0.194807
vn 0.805867 -0.558775 0.195830
vn 0.803263 -0.556970 0.211075
vn 0.580769 -0.790164 0.195830
vn 0.580768 -0.790164 0.195830
vn 0.596324 -0.779010 0.193756
vn 0.638173 -0.744059 0.197766
vn 0.582307 -0.792257 0.182340
vn 0.664168 -0.721479 0.195830
vn 0.664168 -0.721479 0.195830
vn 0.739505 -0.644036 0.195830
vn 0.739506 -0.644036 0.195830
vn 0.805866 -0.558775 0.195830
vn 0.872890 -0.446289 0.197203
vn 0.896740 -0.397265 0.195035
vn 0.859650 -0.465219 0.211123
vn 0.664168 -0.721479 0.195830
vn 0.665936 -0.723400 0.182270
vn 0.664168 -0.721479 0.195830
vn 0.679050 -0.707974 0.194073
vn 0.716833 -0.668664 0.197581
vn 0.739505 -0.644036 0.195830
vn 0.739505 -0.644036 0.195830
vn 0.805866 -0.558775 0.195830
vn 0.805867 -0.558775 0.195830
vn 0.862445 -0.466732 0.195830
vn 0.862446 -0.466732 0.195830
vn 0.917083 -0.346683 0.196899
vn 0.935243 -0.295278 0.195273
vn 0.905603 -0.367824 0.211162
vn 0.908555 -0.369023 0.195830
vn 0.753377 -0.628204 0.194380
vn 0.786644 -0.585004 0.197387
vn 0.739506 -0.644036 0.195830
vn 0.739505 -0.644036 0.195830
vn 0.741483 -0.645757 0.182210
vn 0.805867 -0.558775 0.195830
vn 0.805866 -0.558775 0.195830
vn 0.862445 -0.466732 0.195830
vn 0.862445 -0.466732 0.195830
vn 0.862446 -0.466732 0.195829
vn 0.908555 -0.369023 0.195830
vn 0.949950 -0.242779 0.196604
vn 0.962187 -0.189653 0.195520
vn 0.940564 -0.265966 0.211191
vn 0.818390 -0.540682 0.194680
vn 0.846741 -0.494112 0.197186
vn 0.808029 -0.560275 0.182157
vn 0.805866 -0.558776 0.195830
vn 0.805866 -0.558775 0.195830
vn 0.862445 -0.466732 0.195830
vn 0.862445 -0.466732 0.195830
vn 0.908555 -0.369023 0.195829
vn 0.908555 -0.369023 0.195829
vn 0.908555 -0.369023 0.195830
vn 0.943636 -0.266835 0.195830
vn 0.943637 -0.266835 0.195830
vn 0.971082 -0.135865 0.196318
vn 0.977240 -0.081697 0.195776
vn 0.979149 -0.054021 0.195829
vn 0.975955 -0.053844 0.211219
vn 0.964110 -0.160882 0.211209
vn 0.873288 -0.446492 0.194970
vn 0.896385 -0.397108 0.196975
vn 0.864767 -0.467988 0.182114
vn 0.862445 -0.466732 0.195830
vn 0.908555 -0.369023 0.195830
vn 0.908555 -0.369023 0.195830
vn 0.943637 -0.266835 0.195829
vn 0.943637 -0.266835 0.195829
vn 0.967263 -0.161408 0.195830
vn 0.979149 -0.054021 0.195830
vn 0.967263 -0.161408 0.195830
vn 0.911007 -0.370019 0.182079
vn 0.917392 -0.346799 0.195252
vn 0.934960 -0.295189 0.196755
vn 0.908555 -0.369023 0.195830
vn 0.943636 -0.266835 0.195830
vn 0.943636 -0.266835 0.195830
vn 0.967263 -0.161408 0.195830
vn 0.979149 -0.054021 0.195830
vn 0.979149 -0.054021 0.195830
vn 0.979149 -0.054021 0.195830
vn 0.967263 -0.161408 0.195829
vn 0.967263 -0.161408 0.195830
vn 0.950159 -0.242834 0.195524
vn 0.961990 -0.189614 0.196526
vn 0.946187 -0.267556 0.182053
vn 0.943636 -0.266835 0.195830
vn 0.943636 -0.266835 0.195830
vn 0.967263 -0.161408 0.195830
vn 0.979149 -0.054021 0.195830
vn 0.981800 -0.054168 0.182028
vn 0.971187 -0.135880 0.195789
vn 0.977137 -0.081688 0.196290
vn 0.979149 -0.054021 0.195829
vn 0.969881 -0.161845 0.182036
vn 0.967263 -0.161408 0.195830
vn 0.967263 -0.161408 0.195830
vn 0.979149 -0.054021 0.195830
vn 0.980216 -0.027259 0.196044
vn 0.980216 -0.027259 0.196044
vn 0.977240 0.081697 0.195776
vn 0.971082 0.135865 0.196318
vn 0.975955 0.053844 0.211219
vn 0.979149 0.054021 0.195829
vn 0.979149 0.054021 0.195830
vn 0.962187 0.189653 0.195520
vn 0.949950 0.242779 0.196604
vn 0.964110 0.160882 0.211209
vn 0.979149 0.054021 0.195830
vn 0.979149 0.054021 0.195830
vn 0.967263 0.161408 0.195830
vn 0.967263 0.161408 0.195830
vn 0.935243 0.295278 0.195273
vn 0.917083 0.346683 0.196899
vn 0.940564 0.265966 0.211191
vn 0.979149 0.054021 0.195830
vn 0.979149 0.054021 0.195830
vn 0.967263 0.161408 0.195830
vn 0.967263 0.161408 0.195829
vn 0.943636 0.266835 0.195830
vn 0.943636 0.266835 0.195830
vn 0.905603 0.367824 0.211162
vn 0.896740 0.397265 0.195035
vn 0.872890 0.446289 0.197203
vn 0.977137 0.081688 0.196290
vn 0.971187 0.135880 0.195789
vn 0.979149 0.054021 0.195829
vn 0.979149 0.054021 0.195830
vn 0.981800 0.054168 0.182028
vn 0.967263 0.161408 0.195830
vn 0.967263 0.161408 0.195830
vn 0.943636 0.266835 0.195830
vn 0.943637 0.266835 0.195829
vn 0.943637 0.266835 0.195829
vn 0.908555 0.369023 0.195830
vn 0.908555 0.369023 0.195830
vn 0.847152 0.494351 0.194807
vn 0.817917 0.540369 0.197517
vn 0.859650 0.465219 0.211123
vn 0.961990 0.189614 0.196526
vn 0.950159 0.242834 0.195524
vn 0.967263 0.161408 0.195830
vn 0.969881 0.161845 0.182036
vn 0.967263 0.161408 0.195830
vn 0.943636 0.266835 0.195830
vn 0.943636 0.266835 0.195830
vn 0.908555 0.369023 0.195829
vn 0.908555 0.369023 0.195829
vn 0.862445 0.466732 0.195830
vn 0.862445 0.466732 0.195830
vn 0.787092 0.585339 0.194588
vn 0.752846 0.627760 0.197839
vn 0.803263 0.556970 0.211075
vn 0.934960 0.295189 0.196755
vn 0.917392 0.346799 0.195252
vn 0.946187 0.267556 0.182053
vn 0.943636 0.266835 0.195830
vn 0.908555 0.369023 0.195830
vn 0.908555 0.369023 0.195830
vn 0.862445 0.466732 0.195830
vn 0.862445 0.466732 0.195829
vn 0.805866 0.558775 0.195830
vn 0.805867 0.558775 0.195830
vn 0.717301 0.669102 0.194378
vn 0.678482 0.707382 0.198172
vn 0.737126 0.641963 0.211018
vn 0.896385 0.397108 0.196975
vn 0.873288 0.446492 0.194970
vn 0.911007 0.370019 0.182079
vn 0.908555 0.369023 0.195830
vn 0.908555 0.369023 0.195830
vn 0.862445 0.466732 0.195830
vn 0.862445 0.466732 0.195830
vn 0.805867 0.558775 0.195830
vn 0.805866 0.558776 0.195830
vn 0.739506 0.644036 0.195830
vn 0.739505 0.644036 0.195830
vn 0.662040 0.719168 0.210951
vn 0.638640 0.744603 0.194178
vn 0.595745 0.778255 0.198514
vn 0.846741 0.494112 0.197186
vn 0.818390 0.540682 0.194680
vn 0.864767 0.467988 0.182114
vn 0.862445 0.466732 0.195830
vn 0.862445 0.466732 0.195830
vn 0.805866 0.558775 0.195830
vn 0.805867 0.558775 0.195830
vn 0.739505 0.644036 0.195830
vn 0.739506 0.644036 0.195830
vn 0.664168 0.721479 0.195830
vn 0.664168 0.721479 0.195830
vn 0.578918 0.787646 0.210874
vn 0.552082 0.810909 0.193988
vn 0.505660 0.839500 0.198865
vn 0.786644 0.585004 0.197387
vn 0.805866 0.558775 0.195830
vn 0.753377 0.628204 0.194380
vn 0.805866 0.558776 0.195830
vn 0.808029 0.560275 0.182158
vn 0.739505 0.644036 0.195830
vn 0.739505 0.644036 0.195830
vn 0.739505 0.644036 0.195830
vn 0.664168 0.721479 0.195830
vn 0.664168 0.721479 0.195830
vn 0.580768 0.790164 0.195830
vn 0.580768 0.790164 0.195830
vn 0.458696 0.867201 0.193807
vn 0.409339 0.890366 0.199226
vn 0.488766 0.846567 0.210788
vn 0.716833 0.668664 0.197581
vn 0.679050 0.707974 0.194073
vn 0.741483 0.645757 0.182210
vn 0.739506 0.644036 0.195830
vn 0.664168 0.721479 0.195830
vn 0.664168 0.721479 0.195830
vn 0.580768 0.790164 0.195829
vn 0.580768 0.790164 0.195830
vn 0.490319 0.849257 0.195830
vn 0.490319 0.849257 0.195830
vn 0.359636 0.912780 0.193635
vn 0.307977 0.930221 0.199596
vn 0.392679 0.895217 0.210691
vn 0.393918 0.898042 0.195830
vn 0.665936 0.723400 0.182270
vn 0.638173 0.744059 0.197766
vn 0.596324 0.779010 0.193756
vn 0.664168 0.721479 0.195830
vn 0.664168 0.721479 0.195830
vn 0.580769 0.790164 0.195830
vn 0.580769 0.790164 0.195830
vn 0.580768 0.790164 0.195830
vn 0.490319 0.849258 0.195829
vn 0.490319 0.849257 0.195830
vn 0.393917 0.898042 0.195830
vn 0.291821 0.933003 0.210586
vn 0.256122 0.947085 0.193473
vn 0.202824 0.958578 0.199975
vn 0.292735 0.935926 0.195831
vn 0.582307 0.792257 0.182340
vn 0.551637 0.810256 0.197942
vn 0.506220 0.840432 0.193430
vn 0.580768 0.790164 0.195830
vn 0.490319 0.849257 0.195830
vn 0.490319 0.849258 0.195829
vn 0.393917 0.898042 0.195829
vn 0.393918 0.898042 0.195830
vn 0.292736 0.935926 0.195830
vn 0.187416 0.959467 0.210470
vn 0.149441 0.969688 0.193321
vn 0.095182 0.975087 0.200364
vn 0.458294 0.866441 0.198108
vn 0.409852 0.891480 0.193096
vn 0.490319 0.849257 0.195830
vn 0.490319 0.849257 0.195830
vn 0.491610 0.851494 0.182418
vn 0.393918 0.898042 0.195830
vn 0.393918 0.898042 0.195830
vn 0.393918 0.898042 0.195829
vn 0.292736 0.935926 0.195830
vn 0.292735 0.935926 0.195829
vn 0.187999 0.962449 0.195829
vn 0.187999 0.962449 0.195830
vn 0.040905 0.980311 0.193178
vn -0.013617 0.979545 0.200763
vn 0.080731 0.974288 0.210346
vn 0.359296 0.911919 0.198266
vn 0.308407 0.931521 0.192752
vn 0.394949 0.900393 0.182505
vn 0.393918 0.898042 0.195830
vn 0.292735 0.935926 0.195830
vn 0.292735 0.935926 0.195830
vn 0.292735 0.935926 0.195830
vn 0.187998 0.962449 0.195830
vn 0.187998 0.962449 0.195830
vn 0.187999 0.962448 0.195831
vn 0.080980 0.977289 0.195829
vn 0.080980 0.977289 0.195829
vn -0.068143 0.978821 0.193045
vn -0.122230 0.971901 0.201170
vn -0.026939 0.977285 0.210212
vn 0.255866 0.946131 0.198416
vn 0.203137 0.960061 0.192400
vn 0.292735 0.935926 0.195830
vn 0.293496 0.938359 0.182600
vn 0.187998 0.962449 0.195830
vn 0.187998 0.962449 0.195829
vn 0.080980 0.977289 0.195829
vn 0.080981 0.977288 0.195831
vn -0.027020 0.980266 0.195829
vn -0.027021 0.980266 0.195829
vn -0.134289 0.968421 0.210067
vn -0.176353 0.965236 0.192921
vn -0.134694 0.971344 0.195829
vn -0.229315 0.952248 0.201587
vn 0.149281 0.968654 0.198556
vn 0.095344 0.976745 0.192039
vn 0.188484 0.964931 0.182705
vn 0.187999 0.962449 0.195829
vn 0.080981 0.977289 0.195829
vn 0.080981 0.977289 0.195829
vn -0.027021 0.980266 0.195829
vn -0.027020 0.980265 0.195830
vn -0.027021 0.980266 0.195829
vn -0.134695 0.971343 0.195830
vn -0.282390 0.939724 0.192806
vn -0.333546 0.920835 0.202013
vn -0.240732 0.950631 0.195830
vn -0.240016 0.947802 0.209913
vn 0.040860 0.979211 0.198687
vn -0.013643 0.981365 0.191668
vn 0.080981 0.977288 0.195831
vn 0.080980 0.977289 0.195829
vn 0.081187 0.979789 0.182818
vn -0.027021 0.980265 0.195830
vn -0.134695 0.971343 0.195830
vn -0.134694 0.971343 0.195830
vn -0.240732 0.950631 0.195829
vn -0.342838 0.915678 0.209751
vn -0.384942 0.902599 0.192702
vn -0.433639 0.878050 0.202450
vn -0.027021 0.980265 0.195831
vn -0.027022 0.980265 0.195830
vn -0.068061 0.977672 0.198810
vn -0.122478 0.973862 0.191288
vn -0.027090 0.982751 0.182939
vn -0.134694 0.971343 0.195830
vn -0.134694 0.971343 0.195830
vn -0.240732 0.950631 0.195829
vn -0.240732 0.950631 0.195830
vn -0.240732 0.950631 0.195830
vn -0.343848 0.918378 0.195829
vn -0.343849 0.918378 0.195829
vn -0.482742 0.854320 0.192606
vn -0.441506 0.872439 0.209578
vn -0.528354 0.824425 0.202894
vn -0.134694 0.971344 0.195830
vn -0.176137 0.964056 0.198925
vn -0.229815 0.954328 0.190901
vn -0.134694 0.971344 0.195830
vn -0.135032 0.973782 0.183069
vn -0.240732 0.950630 0.195830
vn -0.240733 0.950631 0.195830
vn -0.343849 0.918378 0.195830
vn -0.343849 0.918378 0.195829
vn -0.343848 0.918378 0.195830
vn -0.442791 0.874978 0.195829
vn -0.442791 0.874978 0.195829
vn -0.442791 0.874978 0.195830
vn -0.534823 0.818608 0.209395
vn -0.574580 0.795483 0.192521
vn -0.616524 0.760623 0.203348
vn -0.241330 0.952992 0.183208
vn -0.240732 0.950631 0.195829
vn -0.282032 0.938533 0.199030
vn -0.334331 0.923001 0.190504
vn -0.343848 0.918378 0.195830
vn -0.343848 0.918379 0.195829
vn -0.442791 0.874978 0.195830
vn -0.536358 0.820957 0.195829
vn -0.536358 0.820957 0.195830
vn -0.621657 0.754836 0.209203
vn -0.659323 0.726814 0.192444
vn -0.697059 0.687437 0.203811
vn -0.384438 0.901419 0.199126
vn -0.434734 0.880266 0.190098
vn -0.344693 0.920634 0.183355
vn -0.343849 0.918378 0.195830
vn -0.442791 0.874978 0.195830
vn -0.442791 0.874978 0.195830
vn -0.536358 0.820957 0.195830
vn -0.536358 0.820957 0.195830
vn -0.623415 0.756971 0.195830
vn -0.623415 0.756971 0.195830
vn -0.700953 0.681897 0.209001
vn -0.735920 0.649163 0.192378
vn -0.768966 0.605771 0.204285
vn -0.443865 0.877101 0.183512
vn -0.482092 0.853171 0.199215
vn -0.529781 0.826651 0.189684
vn -0.442791 0.874978 0.195830
vn -0.442791 0.874978 0.195830
vn -0.536358 0.820957 0.195830
vn -0.536358 0.820957 0.195830
vn -0.623415 0.756971 0.195830
vn -0.623415 0.756971 0.195830
vn -0.702904 0.683796 0.195830
vn -0.702904 0.683795 0.195830
vn -0.702904 0.683796 0.195830
vn -0.803425 0.563490 0.192320
vn -0.771748 0.600676 0.208789
vn -0.831358 0.516638 0.204767
vn -0.536358 0.820957 0.195830
vn -0.573787 0.794387 0.199294
vn -0.618300 0.762814 0.189260
vn -0.536358 0.820957 0.195830
vn -0.537643 0.822924 0.183677
vn -0.623415 0.756971 0.195830
vn -0.623415 0.756971 0.195830
vn -0.702904 0.683796 0.195829
vn -0.702904 0.683796 0.195830
vn -0.773861 0.602320 0.195830
vn -0.773861 0.602320 0.195830
vn -0.833184 0.512156 0.208568
vn -0.861005 0.470851 0.192273
vn -0.883465 0.421139 0.205259
vn -0.623415 0.756971 0.195830
vn -0.658393 0.725791 0.199363
vn -0.699195 0.689543 0.188828
vn -0.623415 0.756971 0.195830
vn -0.624888 0.758759 0.183850
vn -0.702904 0.683796 0.195830
vn -0.702904 0.683796 0.195830
vn -0.773861 0.602320 0.195830
vn -0.773861 0.602320 0.195829
vn -0.835424 0.513534 0.195830
vn -0.835424 0.513534 0.195830
vn -0.835424 0.513533 0.195830
vn -0.907947 0.372394 0.192235
vn -0.924645 0.320459 0.205761
vn -0.884513 0.417411 0.208338
vn -0.734864 0.648232 0.199425
vn -0.771467 0.607741 0.188386
vn 0.000000 0.000000 1.000000
vn 0.000000 0.000000 1.000000
vn 0.000000 0.000000 1.000000
vn 0.000000 0.000000 1.000000
vn 0.000000 0.000000 1.000000
vn 0.000000 0.000000 1.000000
vn 0.000000 0.000000 1.000000
vn 0.000000 0.000000 1.000000
vn 0.000000 0.000000 1.000000
vn 0.000000 0.000000 1.000000
vn 0.000000 0.000000 1.000000
vn 0.000000 0.000000 1.000000
vn 0.000000 0.000000 1.000000
vn 0.000000 0.000000 1.000000
vn 0.000000 0.000000 1.000000
vn 0.000000 0.000000 1.000000
vn 0.000000 0.000000 1.000000
vn 0.000000 0.000000 1.000000
vn 0.000000 0.000000 1.000000
vn 0.000000 0.000000 1.000000
vn 0.000000 0.000000 1.000000
vn 0.000000 0.000000 1.000000
vn 0.000000 0.000000 1.000000
vn 0.000000 0.000000 1.000000
vn 0.000000 0.000000 1.000000
vn 0.000000 0.000000 1.000000
vn 0.000000 0.000000 1.000000
vn 0.000000 0.000000 1.000000
vn 0.000000 0.000000 1.000000
vn 0.000000 0.000000 1.000000
vn 0.000000 0.000000 1.000000
vn 0.000000 0.000000 1.000000
vn 0.000000 0.000000 1.000000
vn 0.000000 0.000000 1.000000
vn 0.000000 0.000000 1.000000
vn 0.000000 0.000000 1.000000
vn 0.000000 0.000000 1.000000
vn 0.000000 0.000000 1.000000
vn 0.000000 0.000000 1.000000
vn 0.000000 0.000000 1.000000
vn 0.000000 0.000000 1.000000
vn 0.000000 0.000000 1.000000
vn 0.000000 0.000000 1.000000
vn 0.000000 0.000000 1.000000
vn 0.000000 0.000000 1.000000
vn 0.000000 0.000000 1.000000
vn 0.000000 0.000000 1.000000
vn 0.000000 0.000000 1.000000
vn 0.000000 0.000000 1.000000
vn 0.000000 0.000000 1.000000
vn 0.000000 0.000000 1.000000
vn 0.000000 0.000000 1.000000
vn 0.000000 0.000000 1.000000
vn 0.000000 0.000000 1.000000
vn 0.000000 0.000000 1.000000
vn 0.000000 0.000000 1.000000
vn 0.000000 0.000000 1.000000
vn 0.000000 0.000000 1.000000
vn 0.000000 0.000000 1.000000
vn 0.000000 0.000000 1.000000
vn 0.000000 0.000000 1.000000
vn 0.000000 0.000000 1.000000
vn 0.000000 0.000000 1.000000
vn 0.000000 0.000000 1.000000
vn 0.000000 0.000000 1.000000
vn 0.000000 0.000000 1.000000
vn 0.000000 0.000000 1.000000
vn 0.000000 0.000000 1.000000
vn 0.000000 0.000000 1.000000
vn 0.000000 0.000000 1.000000
vn 0.000000 0.000000 1.000000
vn 0.000000 0.000000 1.000000
vn 0.000000 0.000000 1.000000
vn 0.000000 0.000000 1.000000
vn 0.000000 0.000000 1.000000
vn 0.000000 0.000000 1.000000
vn 0.000000 0.000000 1.000000
vn 0.000000 0.000000 1.000000
vn 0.000000 0.000000 1.000000
vn 0.000000 0.000000 1.000000
vn 0.000000 0.000000 1.000000
vn 0.000000 0.000000 1.000000
vn 0.000000 0.000000 1.000000
vn 0.000000 0.000000 1.000000
vn 0.000000 0.000000 1.000000
vn 0.000000 0.000000 1.000000
vn 0.000000 0.000000 1.000000
vn 0.000000 0.000000 1.000000
vn 0.000000 0.000000 1.000000
vn 0.000000 0.000000 1.000000
vn 0.000000 0.000000 1.000000
vn 0.000000 0.000000 1.000000
vn 0.000000 0.000000 1.000000
vn 0.000000 0.000000 1.000000
vn 0.000000 0.000000 1.000000
vn 0.000000 0.000000 1.000000
vn 0.000000 0.000000 1.000000
vn 0.000000 0.000000 1.000000
vn 0.000000 0.000000 1.000000
vn 0.000000 0.000000 1.000000
vn 0.000000 0.000000 1.000000
vn 0.000000 0.000000 1.000000
vn 0.000000 0.000000 1.000000
vn 0.000000 0.000000 1.000000
vn 0.000000 0.000000 1.000000
vn 0.000000 0.000000 1.000000
vn 0.000000 0.000000 1.000000
vn 0.000000 0.000000 1.000000
vn 0.000000 0.000000 1.000000
vn 0.000000 0.000000 1.000000
vn 0.000000 0.000000 1.000000
vn 0.000000 0.000000 1.000000
vn 0.000000 0.000000 1.000000
vn 0.000000 0.000000 1.000000
vn 0.000000 0.000000 1.000000
vn 0.000000 0.000000 1.000000
vn 0.000000 0.000000 1.000000
vn 0.000000 0.000000 1.000000
vn 0.000000 0.000000 1.000000
vn 0.000000 0.000000 1.000000
vn 0.000000 0.000000 1.000000
vn 0.000000 0.000000 1.000000
vn 0.000000 0.000000 1.000000
vn 0.000000 0.000000 1.000000
vn 0.000000 0.000000 1.000000
vn 0.000000 0.000000 1.000000
vn 0.000000 0.000000 1.000000
vn 0.000000 0.000000 1.000000
vn 0.000000 0.000000 1.000000
vn 0.000000 0.000000 1.000000
vn 0.000000 0.000000 1.000000
vn 0.000000 0.000000 1.000000
vn 0.000000 0.000000 1.000000
vn 0.000000 0.000000 1.000000
vn 0.000000 0.000000 1.000000
vn 0.000000 0.000000 1.000000
vn 0.000000 0.000000 1.000000
vn 0.000000 0.000000 1.000000
vn 0.000000 0.000000 1.000000
vn 0.000000 0.000000 1.000000
vn 0.000000 0.000000 1.000000
vn 0.000000 0.000000 1.000000
vn 0.000000 0.000000 1.000000
vn 0.000000 0.000000 1.000000
vn 0.000000 0.000000 1.000000
vn 0.000000 0.000000 1.000000
vn 0.000000 0.000000 1.000000
vn 0.000000 0.000000 1.000000
vn 0.000000 0.000000 1.000000
vn 0.000000 0.000000 1.000000
vn 0.000000 0.000000 1.000000
vn 0.000000 0.000000 1.000000
vn 0.000000 0.000000 1.000000
vn 0.000000 0.000000 1.000000
vn 0.000000 0.000000 1.000000
vn 0.000000 0.000000 1.000000
vn 0.000000 0.000000 1.000000
vn 0.000000 0.000000 1.000000
vn 0.000000 0.000000 1.000000
vn 0.000000 0.000000 1.000000
vn 0.000000 0.000000 1.000000
vn 0.000000 0.000000 1.000000
vn 0.000000 0.000000 1.000000
vn 0.000000 0.000000 1.000000
vn 0.000000 0.000000 1.000000
vn 0.000000 0.000000 1.000000
vn 0.000000 0.000000 1.000000
vn 0.000000 0.000000 1.000000
vn 0.000000 0.000000 1.000000
vn 0.000000 0.000000 1.000000
vn 0.000000 0.000000 1.000000
vn 0.000000 0.000000 1.000000
vn 0.000000 0.000000 1.000000
vn 0.000000 0.000000 -1.000000
vn 0.000000 0.000000 -1.000000
vn 0.000000 0.000000 -1.000000
vn 0.000000 0.000000 -1.000000
vn 0.000000 0.000000 -1.000000
vn 0.000000 0.000000 -1.000000
vn 0.000000 0.000000 -1.000000
vn 0.000000 0.000000 -1.000000
vn 0.000000 0.000000 -1.000000
vn 0.000000 0.000000 -1.000000
vn 0.000000 0.000000 -1.000000
vn 0.000000 0.000000 -1.000000
vn 0.000000 0.000000 -1.000000
vn 0.000000 0.000000 -1.000000
vn 0.000000 -0.000000 -1.000000
vn 0.000000 0.000000 -1.000000
vn 0.000000 -0.000000 -1.000000
vn 0.000000 0.000000 -1.000000
vn 0.000000 -0.000000 -1.000000
vn 0.000000 0.000000 -1.000000
vn 0.000000 0.000000 -1.000000
vn 0.000000 -0.000000 -1.000000
vn 0.000000 -0.000000 -1.000000
vn 0.000000 0.000000 -1.000000
vn 0.000000 0.000000 -1.000000
vn 0.000000 -0.000000 -1.000000
vn 0.000000 -0.000000 -1.000000
vn 0.000000 0.000000 -1.000000
vn 0.000000 -0.000000 -1.000000
vn 0.000000 0.000000 -1.000000
vn 0.000000 0.000000 -1.000000
vn 0.000000 -0.000000 -1.000000
vn 0.000000 0.000000 -1.000000
vn 0.000000 -0.000000 -1.000000
vn 0.000000 0.000000 -1.000000
vn 0.000000 -0.000000 -1.000000
vn 0.000000 -0.000000 -1.000000
vn 0.000000 0.000000 -1.000000
vn 0.000000 -0.000000 -1.000000
vn 0.000000 0.000000 -1.000000
vn 0.000000 0.000000 -1.000000
vn 0.000000 0.000000 -1.000000
vn 0.000000 0.000000 -1.000000
vn 0.000000 0.000000 -1.000000
vn 0.000000 0.000000 -1.000000
vn 0.000000 0.000000 -1.000000
vn 0.000000 0.000000 -1.000000
vn 0.000000 0.000000 -1.000000
vn 0.000000 0.000000 -1.000000
vn 0.000000 0.000000 -1.000000
vn 0.000000 0.000000 -1.000000
vn 0.000000 0.000000 -1.000000
vn 0.000000 0.000000 -1.000000
vn 0.000000 0.000000 -1.000000
vn 0.000000 0.000000 -1.000000
vn 0.000000 0.000000 -1.000000
vn 0.000000 0.000000 -1.000000
vn 0.000000 0.000000 -1.000000
vn 0.000000 0.000000 -1.000000
vn 0.000000 0.000000 -1.000000
vn 0.000000 0.000000 -1.000000
vn 0.000000 0.000000 -1.000000
vn 0.000000 0.000000 -1.000000
vn 0.000000 0.000000 -1.000000
vn 0.000000 0.000000 -1.000000
vn 0.000000 0.000000 -1.000000
vn 0.000000 0.000000 -1.000000
vn 0.000000 0.000000 -1.000000
vn 0.000000 0.000000 -1.000000
vn 0.000000 0.000000 -1.000000
vn 0.000000 -0.000000 -1.000000
vn 0.000000 -0.000000 -1.000000
vn 0.000000 -0.000000 -1.000000
vn 0.000000 -0.000000 -1.000000
vn 0.000000 -0.000000 -1.000000
vn 0.000000 -0.000000 -1.000000
vn 0.000000 -0.000000 -1.000000
vn 0.000000 -0.000000 -1.000000
vn 0.000000 -0.000000 -1.000000
vn 0.000000 -0.000000 -1.000000
vn 0.000000 -0.000000 -1.000000
vn 0.000000 -0.000000 -1.000000
vn 0.000000 -0.000000 -1.000000
vn 0.000000 0.000000 -1.000000
vn 0.000000 0.000000 -1.000000
vn 0.000000 0.000000 -1.000000
vn 0.000000 0.000000 -1.000000
vn 0.000000 0.000000 -1.000000
vn 0.000000 0.000000 -1.000000
vn 0.000000 0.000000 -1.000000
vn 0.000000 0.000000 -1.000000
vn 0.000000 0.000000 -1.000000
vn 0.000000 0.000000 -1.000000
vn 0.000000 0.000000 -1.000000
vn 0.000000 0.000000 -1.000000
vn 0.000000 0.000000 -1.000000
vn 0.000000 0.000000 -1.000000
vn 0.000000 0.000000 -1.000000
vn 0.000000 0.000000 -1.000000
vn 0.000000 0.000000 -1.000000
vn 0.000000 0.000000 -1.000000
vn 0.000000 0.000000 -1.000000
vn 0.000000 0.000000 -1.000000
vn 0.000000 0.000000 -1.000000
vn 0.000000 0.000000 -1.000000
vn 0.000000 0.000000 -1.000000
vn 0.000000 0.000000 -1.000000
vn 0.000000 0.000000 -1.000000
vn 0.000000 0.000000 -1.000000
vn 0.000000 0.000000 -1.000000
vn 0.000000 0.000000 -1.000000
vn 0.000000 0.000000 -1.000000
vn 0.000000 0.000000 -1.000000
vn 0.000000 0.000000 -1.000000
vn 0.000000 0.000000 -1.000000
vn 0.000000 0.000000 -1.000000
vn 0.000000 0.000000 -1.000000
vn 0.000000 0.000000 -1.000000
vn 0.000000 0.000000 -1.000000
vn 0.000000 0.000000 -1.000000
vn 0.000000 0.000000 -1.000000
vn 0.000000 0.000000 -1.000000
vn 0.000000 0.000000 -1.000000
vn 0.000000 0.000000 -1.000000
vn 0.000000 0.000000 -1.000000
vn 0.000000 0.000000 -1.000000
vn 0.000000 0.000000 -1.000000
vn 0.000000 0.000000 -1.000000
vn 0.000000 0.000000 -1.000000
vn 0.000000 0.000000 -1.000000
vn 0.000000 0.000000 -1.000000
vn 0.000000 0.000000 -1.000000
vn 0.000000 0.000000 -1.000000
vn 0.000000 0.000000 -1.000000
vn 0.000000 0.000000 -1.000000
vn 0.000000 0.000000 -1.000000
vn 0.000000 -0.000000 -1.000000
vn 0.000000 0.000000 -1.000000
vn 0.000000 -0.000000 -1.000000
vn 0.000000 0.000000 -1.000000
vn 0.000000 0.000000 -1.000000
vn 0.000000 0.000000 -1.000000
vn 0.000000 -0.000000 -1.000000
vn 0.000000 0.000000 -1.000000
vn 0.000000 0.000000 -1.000000
vn 0.000000 -0.000000 -1.000000
vn 0.000000 0.000000 -1.000000
vn 0.000000 0.000000 -1.000000
vn 0.000000 -0.000000 -1.000000
vn 0.000000 0.000000 -1.000000
vn 0.000000 -0.000000 -1.000000
vn 0.000000 0.000000 -1.000000
vn 0.000000 0.000000 -1.000000
vn 0.000000 0.000000 -1.000000
vn 0.000000 -0.000000 -1.000000
vn 0.000000 0.000000 -1.000000
vn 0.000000 0.000000 -1.000000
vn 0.000000 -0.000000 -1.000000
vn 0.000000 0.000000 -1.000000
vn 0.000000 -0.000000 -1.000000
vn 0.000000 0.000000 -1.000000
vn 0.000000 0.000000 -1.000000
vn 0.000000 -0.000000 -1.000000
vn 0.000000 0.000000 -1.000000
vn 0.000000 0.000000 -1.000000
vn 0.000000 0.000000 -1.000000
vn 0.000000 -0.000000 -1.000000
vn 0.000000 0.000000 -1.000000
vn 0.000000 0.000000 -1.000000
vn 0.000000 -0.000000 -1.000000
vn 0.000000 0.000000 -1.000000
vn 0.000000 0.000000 -1.000000
vn 0.000000 -0.000000 -1.000000
vn 0.689667 0.724127 -0.000000
vn 0.689667 0.724127 0.000000
vn 0.649305 0.760529 -0.000000
vn 0.649305 0.760529 0.000000
vn 0.607023 0.794684 -0.000000
vn 0.607023 0.794684 0.000000
vn 0.562951 0.826491 -0.000000
vn 0.562951 0.826491 0.000000
vn 0.517213 0.855856 -0.000000
vn 0.517213 0.855856 0.000000
vn 0.469948 0.882694 -0.000000
vn 0.469948 0.882694 0.000000
vn 0.421296 0.906923 -0.000000
vn 0.421296 0.906923 0.000000
vn 0.371397 0.928474 -0.000000
vn 0.371397 0.928474 0.000000
vn 0.320403 0.947281 0.000000
vn 0.320403 0.947281 -0.000000
vn 0.268463 0.963290 0.000000
vn 0.268463 0.963290 -0.000000
vn 0.215726 0.976454 0.000000
vn 0.162356 0.986732 -0.000000
vn 0.215726 0.976454 -0.000000
vn 0.162356 0.986732 -0.000000
vn 0.108505 0.994096 -0.000000
vn 0.108505 0.994096 0.000000
vn 0.054332 0.998523 -0.000000
vn 0.054332 0.998523 0.000000
vn 0.000000 1.000000 0.000000
vn -0.054332 0.998523 0.000000
vn 0.000000 1.000000 -0.000000
vn -0.054332 0.998523 0.000000
vn -0.108505 0.994096 0.000000
vn -0.108505 0.994096 0.000000
vn -0.162356 0.986732 0.000000
vn -0.162356 0.986732 0.000000
vn -0.268463 0.963290 0.000000
vn -0.215726 0.976454 0.000000
vn -0.215726 0.976454 0.000000
vn -0.320403 0.947281 0.000000
vn -0.268463 0.963290 0.000000
vn -0.320403 0.947281 0.000000
vn -0.371397 0.928474 0.000000
vn -0.371397 0.928474 0.000000
vn -0.469948 0.882694 0.000000
vn -0.421296 0.906923 0.000000
vn -0.421296 0.906923 0.000000
vn -0.469948 0.882694 0.000000
vn -0.562951 0.826491 0.000000
vn -0.517213 0.855856 0.000000
vn -0.517213 0.855856 0.000000
vn -0.562951 0.826491 0.000000
vn -0.649305 0.760529 0.000000
vn -0.607023 0.794684 0.000000
vn -0.607023 0.794684 0.000000
vn -0.649305 0.760529 0.000000
vn -0.689667 0.724127 0.000000
vn -0.689667 0.724127 0.000000
vn -1.000000 0.000000 0.000000
vn -1.000000 0.000000 0.000000
vn -0.689667 -0.724127 0.000000
vn -0.689667 -0.724127 0.000000
vn -0.649305 -0.760529 0.000000
vn -0.649305 -0.760529 0.000000
vn -0.607023 -0.794684 0.000000
vn -0.607023 -0.794684 0.000000
vn -0.562951 -0.826491 0.000000
vn -0.562951 -0.826491 0.000000
vn -0.517213 -0.855856 0.000000
vn -0.517213 -0.855856 0.000000
vn -0.469948 -0.882694 0.000000
vn -0.469948 -0.882694 0.000000
vn -0.371397 -0.928474 0.000000
vn -0.421296 -0.906923 0.000000
vn -0.421296 -0.906923 0.000000
vn -0.371397 -0.928474 0.000000
vn -0.320403 -0.947281 0.000000
vn -0.268463 -0.963290 0.000000
vn -0.320403 -0.947281 0.000000
vn -0.268463 -0.963290 0.000000
vn -0.215726 -0.976454 0.000000
vn -0.215726 -0.976454 0.000000
vn -0.162356 -0.986732 0.000000
vn -0.108505 -0.994096 0.000000
vn -0.162356 -0.986732 0.000000
vn -0.108505 -0.994096 0.000000
vn -0.054332 -0.998523 0.000000
vn -0.054332 -0.998523 0.000000
vn 0.000000 -1.000000 0.000000
vn 0.000000 -1.000000 0.000000
vn 0.054332 -0.998523 0.000000
vn 0.108505 -0.994096 0.000000
vn 0.054332 -0.998523 0.000000
vn 0.108505 -0.994096 0.000000
vn 0.162356 -0.986732 0.000000
vn 0.162356 -0.986732 0.000000
vn 0.215726 -0.976454 0.000000
vn 0.215726 -0.976454 0.000000
vn 0.268463 -0.963290 0.000000
vn 0.268463 -0.963290 0.000000
vn 0.320403 -0.947281 0.000000
vn 0.320403 -0.947281 0.000000
vn 0.421296 -0.906923 0.000000
vn 0.371397 -0.928474 0.000000
vn 0.371397 -0.928474 0.000000
vn 0.421296 -0.906923 0.000000
vn 0.469948 -0.882694 0.000000
vn 0.469948 -0.882694 0.000000
vn 0.562951 -0.826491 0.000000
vn 0.517213 -0.855856 0.000000
vn 0.517213 -0.855856 0.000000
vn 0.607023 -0.794684 0.000000
vn 0.562951 -0.826491 0.000000
vn 0.607023 -0.794684 0.000000
vn 0.649305 -0.760529 0.000000
vn 0.649305 -0.760529 0.000000
vn 0.689667 -0.724127 0.000000
vn 0.689667 -0.724127 0.000000
vn 1.000000 0.000000 0.000000
vn 1.000000 -0.000000 0.000000
f 1//1 2//1 3//1
f 1//2 4//2 2//2
f 5//3 3//3 6//3
f 5//4 6//4 7//4
f 8//5 7//5 9//5
f 8//6 5//6 7//6
f 10//7 11//7 12//7
f 10//8 9//8 11//8
f 13//9 14//9 15//9
f 16//10 17//10 18//10
f 16//11 18//11 19//11
f 16//12 12//12 17//12
f 20//13 1//13 3//13
f 20//14 21//14 22//14
f 20//15 23//15 21//15
f 20//16 22//16 1//16
f 20//17 3//17 5//17
f 24//18 20//18 5//18
f 24//19 5//19 8//19
f 25//20 9//20 10//20
f 25//21 8//21 9//21
f 26//22 10//22 12//22
f 26//23 12//23 16//23
f 27//24 19//24 28//24
f 27//25 28//25 29//25
f 30//26 31//26 32//26
f 27//27 16//27 19//27
f 33//28 23//28 20//28
f 33//29 34//29 23//29
f 33//30 35//30 34//30
f 33//31 20//31 24//31
f 36//32 24//32 8//32
f 36//33 8//33 25//33
f 37//34 10//34 26//34
f 37//35 36//35 25//35
f 37//36 25//36 10//36
f 38//37 26//37 16//37
f 38//38 16//38 27//38
f 39//39 29//39 40//39
f 39//40 27//40 29//40
f 41//41 24//41 36//41
f 41//42 35//42 33//42
f 41//43 42//43 35//43
f 41//44 43//44 42//44
f 41//45 33//45 24//45
f 44//46 36//46 37//46
f 45//47 26//47 38//47
f 45//48 44//48 37//48
f 45//49 37//49 26//49
f 46//50 38//50 27//50
f 46//51 27//51 39//51
f 47//52 40//52 48//52
f 47//53 48//53 49//53
f 47//54 39//54 40//54
f 50//55 41//55 36//55
f 50//56 36//56 44//56
f 50//57 51//57 43//57
f 50//58 52//58 51//58
f 50//59 43//59 41//59
f 53//60 44//60 45//60
f 53//61 50//61 44//61
f 54//62 53//62 45//62
f 54//63 45//63 38//63
f 54//64 38//64 46//64
f 55//65 39//65 47//65
f 55//66 46//66 39//66
f 56//67 47//67 49//67
f 56//68 49//68 57//68
f 56//69 57//69 58//69
f 59//70 60//70 52//70
f 59//71 61//71 60//71
f 59//72 52//72 50//72
f 59//73 50//73 53//73
f 62//74 53//74 54//74
f 63//75 46//75 55//75
f 63//76 54//76 46//76
f 63//77 62//77 54//77
f 64//78 55//78 47//78
f 64//79 47//79 56//79
f 65//80 56//80 58//80
f 65//81 58//81 66//81
f 65//82 66//82 67//82
f 68//83 69//83 61//83
f 68//84 61//84 59//84
f 68//85 59//85 53//85
f 68//86 53//86 62//86
f 70//87 68//87 62//87
f 70//88 62//88 63//88
f 71//89 63//89 55//89
f 71//90 55//90 64//90
f 72//91 56//91 65//91
f 72//92 64//92 56//92
f 73//93 65//93 67//93
f 73//94 67//94 74//94
f 73//95 74//95 75//95
f 76//96 77//96 69//96
f 76//97 78//97 77//97
f 76//98 68//98 70//98
f 76//99 69//99 68//99
f 79//100 63//100 71//100
f 79//101 70//101 63//101
f 80//102 64//102 72//102
f 80//103 71//103 64//103
f 81//104 72//104 65//104
f 81//105 65//105 73//105
f 82//106 73//106 75//106
f 82//107 75//107 83//107
f 82//108 83//108 84//108
f 85//109 78//109 76//109
f 85//110 76//110 70//110
f 85//111 86//111 78//111
f 85//112 87//112 86//112
f 85//113 70//113 79//113
f 88//114 79//114 71//114
f 88//115 71//115 80//115
f 89//116 72//116 81//116
f 89//117 80//117 72//117
f 90//118 73//118 82//118
f 90//119 81//119 73//119
f 91//120 82//120 84//120
f 91//121 84//121 92//121
f 91//122 92//122 93//122
f 94//123 79//123 88//123
f 94//124 87//124 85//124
f 94//125 95//125 87//125
f 94//126 96//126 95//126
f 94//127 85//127 79//127
f 97//128 80//128 89//128
f 97//129 88//129 80//129
f 98//130 81//130 90//130
f 98//131 97//131 89//131
f 98//132 89//132 81//132
f 99//133 90//133 82//133
f 99//134 82//134 91//134
f 100//135 91//135 93//135
f 100//136 93//136 101//136
f 100//137 101//137 102//137
f 103//138 94//138 88//138
f 103//139 88//139 97//139
f 103//140 96//140 94//140
f 103//141 104//141 96//141
f 103//142 105//142 104//142
f 106//143 103//143 97//143
f 106//144 97//144 98//144
f 107//145 106//145 98//145
f 107//146 90//146 99//146
f 107//147 98//147 90//147
f 108//148 99//148 91//148
f 108//149 91//149 100//149
f 109//150 100//150 102//150
f 109//151 102//151 110//151
f 109//152 110//152 111//152
f 112//153 103//153 106//153
f 112//154 105//154 103//154
f 112//155 113//155 105//155
f 112//156 114//156 113//156
f 115//157 106//157 107//157
f 115//158 112//158 106//158
f 116//159 99//159 108//159
f 116//160 107//160 99//160
f 117//161 108//161 100//161
f 117//162 100//162 109//162
f 117//163 116//163 108//163
f 118//164 109//164 111//164
f 118//165 111//165 119//165
f 118//166 119//166 120//166
f 121//167 122//167 114//167
f 121//168 112//168 115//168
f 121//169 123//169 122//169
f 121//170 114//170 112//170
f 124//171 107//171 116//171
f 124//172 115//172 107//172
f 125//173 116//173 117//173
f 126//174 125//174 117//174
f 126//175 117//175 109//175
f 126//176 109//176 118//176
f 127//177 118//177 120//177
f 127//178 120//178 128//178
f 127//179 128//179 129//179
f 130//180 131//180 123//180
f 130//181 132//181 131//181
f 130//182 121//182 115//182
f 130//183 115//183 124//183
f 130//184 123//184 121//184
f 133//185 124//185 116//185
f 133//186 116//186 125//186
f 134//187 125//187 126//187
f 135//188 118//188 127//188
f 135//189 126//189 118//189
f 136//190 127//190 129//190
f 136//191 129//191 137//191
f 136//192 137//192 138//192
f 139//193 130//193 124//193
f 139//194 140//194 132//194
f 139//195 141//195 140//195
f 139//196 132//196 130//196
f 139//197 124//197 133//197
f 142//198 133//198 125//198
f 142//199 125//199 134//199
f 143//200 134//200 126//200
f 143//201 126//201 135//201
f 144//202 135//202 127//202
f 144//203 127//203 136//203
f 145//204 136//204 138//204
f 145//205 138//205 146//205
f 145//206 146//206 147//206
f 148//207 139//207 133//207
f 148//208 141//208 139//208
f 148//209 149//209 141//209
f 148//210 150//210 149//210
f 148//211 133//211 142//211
f 151//212 142//212 134//212
f 151//213 134//213 143//213
f 152//214 143//214 135//214
f 152//215 135//215 144//215
f 153//216 144//216 136//216
f 153//217 136//217 145//217
f 153//218 152//218 144//218
f 154//219 145//219 147//219
f 154//220 147//220 155//220
f 154//221 155//221 156//221
f 157//222 148//222 142//222
f 157//223 142//223 151//223
f 157//224 150//224 148//224
f 157//225 158//225 150//225
f 157//226 159//226 158//226
f 160//227 151//227 143//227
f 160//228 143//228 152//228
f 161//229 152//229 153//229
f 162//230 153//230 145//230
f 162//231 145//231 154//231
f 163//232 156//232 164//232
f 163//233 164//233 165//233
f 163//234 154//234 156//234
f 166//235 157//235 151//235
f 166//236 159//236 157//236
f 166//237 167//237 159//237
f 166//238 168//238 167//238
f 166//239 151//239 160//239
f 169//240 160//240 152//240
f 169//241 152//241 161//241
f 170//242 161//242 153//242
f 170//243 153//243 162//243
f 171//244 154//244 163//244
f 171//245 162//245 154//245
f 172//246 165//246 173//246
f 172//247 173//247 174//247
f 172//248 163//248 165//248
f 175//249 160//249 169//249
f 175//250 168//250 166//250
f 175//251 176//251 168//251
f 175//252 177//252 176//252
f 175//253 166//253 160//253
f 178//254 169//254 161//254
f 178//255 161//255 170//255
f 179//256 162//256 171//256
f 179//257 170//257 162//257
f 179//258 178//258 170//258
f 180//259 171//259 163//259
f 180//260 163//260 172//260
f 180//261 179//261 171//261
f 181//262 174//262 182//262
f 181//263 182//263 183//263
f 181//264 172//264 174//264
f 184//265 175//265 169//265
f 184//266 169//266 178//266
f 184//267 177//267 175//267
f 184//268 185//268 177//268
f 184//269 186//269 185//269
f 187//270 178//270 179//270
f 188//271 179//271 180//271
f 189//272 180//272 172//272
f 189//273 172//273 181//273
f 190//274 183//274 191//274
f 190//275 191//275 192//275
f 190//276 181//276 183//276
f 193//277 178//277 187//277
f 193//278 194//278 186//278
f 193//279 184//279 178//279
f 193//280 195//280 194//280
f 193//281 186//281 184//281
f 196//282 187//282 179//282
f 196//283 193//283 187//283
f 196//284 179//284 188//284
f 197//285 196//285 188//285
f 197//286 180//286 189//286
f 197//287 188//287 180//287
f 198//288 181//288 190//288
f 198//289 189//289 181//289
f 199//290 192//290 200//290
f 199//291 200//291 201//291
f 199//292 190//292 192//292
f 202//293 195//293 193//293
f 202//294 203//294 195//294
f 202//295 204//295 203//295
f 202//296 193//296 196//296
f 205//297 196//297 197//297
f 206//298 189//298 198//298
f 206//299 205//299 197//299
f 206//300 197//300 189//300
f 207//301 198//301 190//301
f 207//302 190//302 199//302
f 208//303 201//303 209//303
f 208//304 209//304 210//304
f 208//305 199//305 201//305
f 211//306 204//306 202//306
f 211//307 196//307 205//307
f 211//308 212//308 204//308
f 211//309 213//309 212//309
f 211//310 202//310 196//310
f 214//311 205//311 206//311
f 215//312 206//312 198//312
f 215//313 198//313 207//313
f 216//314 207//314 199//314
f 216//315 199//315 208//315
f 217//316 210//316 218//316
f 217//317 218//317 219//317
f 217//318 208//318 210//318
f 220//319 211//319 205//319
f 220//320 205//320 214//320
f 220//321 213//321 211//321
f 220//322 221//322 213//322
f 220//323 222//323 221//323
f 223//324 214//324 206//324
f 223//325 206//325 215//325
f 224//326 215//326 207//326
f 224//327 207//327 216//327
f 225//328 216//328 208//328
f 225//329 208//329 217//329
f 226//330 219//330 227//330
f 226//331 227//331 228//331
f 226//332 217//332 219//332
f 229//333 220//333 214//333
f 229//334 214//334 223//334
f 229//335 222//335 220//335
f 229//336 230//336 222//336
f 229//337 231//337 230//337
f 232//338 223//338 215//338
f 232//339 215//339 224//339
f 233//340 224//340 216//340
f 233//341 216//341 225//341
f 234//342 225//342 217//342
f 234//343 217//343 226//343
f 235//344 228//344 236//344
f 235//345 236//345 237//345
f 235//346 226//346 228//346
f 238//347 229//347 223//347
f 238//348 223//348 232//348
f 238//349 231//349 229//349
f 238//350 239//350 231//350
f 238//351 240//351 239//351
f 241//352 232//352 224//352
f 241//353 224//353 233//353
f 242//354 233//354 225//354
f 242//355 225//355 234//355
f 242//356 241//356 233//356
f 243//357 234//357 226//357
f 243//358 226//358 235//358
f 244//359 237//359 245//359
f 244//360 245//360 246//360
f 244//361 235//361 237//361
f 247//362 238//362 232//362
f 247//363 232//363 241//363
f 247//364 240//364 238//364
f 247//365 248//365 240//365
f 247//366 249//366 248//366
f 250//367 241//367 242//367
f 251//368 242//368 234//368
f 251//369 234//369 243//369
f 252//370 243//370 235//370
f 252//371 235//371 244//371
f 253//372 246//372 254//372
f 253//373 254//373 255//373
f 253//374 252//374 244//374
f 253//375 244//375 246//375
f 256//376 247//376 241//376
f 256//377 241//377 250//377
f 256//378 257//378 249//378
f 256//379 258//379 257//379
f 256//380 249//380 247//380
f 259//381 250//381 242//381
f 259//382 242//382 251//382
f 260//383 251//383 243//383
f 260//384 243//384 252//384
f 261//385 252//385 253//385
f 262//386 255//386 263//386
f 262//387 263//387 264//387
f 262//388 253//388 255//388
f 265//389 256//389 250//389
f 265//390 258//390 256//390
f 265//391 250//391 259//391
f 265//392 266//392 258//392
f 265//393 267//393 266//393
f 268//394 251//394 260//394
f 268//395 259//395 251//395
f 269//396 252//396 261//396
f 269//397 260//397 252//397
f 270//398 253//398 262//398
f 270//399 261//399 253//399
f 271//400 264//400 272//400
f 271//401 272//401 273//401
f 271//402 262//402 264//402
f 271//403 270//403 262//403
f 274//404 275//404 267//404
f 274//405 276//405 275//405
f 274//406 265//406 259//406
f 274//407 259//407 268//407
f 274//408 267//408 265//408
f 277//409 260//409 269//409
f 277//410 268//410 260//410
f 278//411 269//411 261//411
f 278//412 277//412 269//412
f 278//413 261//413 270//413
f 279//414 270//414 271//414
f 280//415 273//415 281//415
f 280//416 281//416 282//416
f 280//417 271//417 273//417
f 283//418 284//418 276//418
f 283//419 285//419 284//419
f 283//420 276//420 274//420
f 283//421 274//421 268//421
f 283//422 268//422 277//422
f 286//423 277//423 278//423
f 286//424 283//424 277//424
f 287//425 278//425 270//425
f 287//426 270//426 279//426
f 287//427 286//427 278//427
f 288//428 279//428 271//428
f 288//429 271//429 280//429
f 289//430 282//430 290//430
f 289//431 290//431 291//431
f 289//432 13//432 292//432
f 289//433 291//433 13//433
f 289//434 280//434 282//434
f 293//435 294//435 285//435
f 293//436 295//436 294//436
f 293//437 285//437 283//437
f 293//438 283//438 286//438
f 296//439 286//439 287//439
f 296//440 293//440 286//440
f 297//441 287//441 279//441
f 297//442 279//442 288//442
f 298//443 288//443 280//443
f 298//444 289//444 292//444
f 298//445 280//445 289//445
f 299//446 295//446 293//446
f 299//447 300//447 295//447
f 299//448 301//448 300//448
f 299//449 293//449 296//449
f 302//450 287//450 297//450
f 302//451 296//451 287//451
f 303//452 302//452 297//452
f 303//453 292//453 304//453
f 303//454 304//454 305//454
f 303//455 298//455 292//455
f 303//456 297//456 288//456
f 303//457 288//457 298//457
f 306//458 307//458 301//458
f 306//459 308//459 307//459
f 306//460 301//460 299//460
f 306//461 299//461 296//461
f 306//462 296//462 302//462
f 309//463 302//463 303//463
f 309//464 303//464 305//464
f 310//465 32//465 311//465
f 310//466 312//466 308//466
f 310//467 311//467 312//467
f 310//468 305//468 32//468
f 310//469 308//469 306//469
f 310//470 302//470 309//470
f 310//471 306//471 302//471
f 310//472 309//472 305//472
f 13//473 291//473 14//473
f 31//474 311//474 32//474
f 313//475 15//475 314//475
f 313//476 314//476 315//476
f 313//477 13//477 15//477
f 316//478 292//478 13//478
f 316//479 13//479 313//479
f 317//480 315//480 318//480
f 317//481 318//481 319//481
f 317//482 313//482 315//482
f 320//483 304//483 292//483
f 320//484 292//484 316//484
f 321//485 313//485 317//485
f 321//486 316//486 313//486
f 322//487 319//487 323//487
f 322//488 323//488 324//488
f 322//489 317//489 319//489
f 325//490 305//490 304//490
f 325//491 304//491 320//491
f 326//492 320//492 316//492
f 326//493 316//493 321//493
f 327//494 317//494 322//494
f 327//495 321//495 317//495
f 328//496 322//496 324//496
f 328//497 324//497 329//497
f 328//498 329//498 330//498
f 331//499 332//499 30//499
f 331//500 333//500 332//500
f 331//501 32//501 305//501
f 331//502 305//502 325//502
f 331//503 30//503 32//503
f 334//504 320//504 326//504
f 334//505 325//505 320//505
f 335//506 334//506 326//506
f 335//507 321//507 327//507
f 335//508 326//508 321//508
f 336//509 327//509 322//509
f 336//510 322//510 328//510
f 337//511 330//511 338//511
f 337//512 338//512 339//512
f 337//513 328//513 330//513
f 340//514 341//514 333//514
f 340//515 342//515 341//515
f 340//516 331//516 325//516
f 340//517 333//517 331//517
f 340//518 325//518 334//518
f 343//519 334//519 335//519
f 343//520 340//520 334//520
f 344//521 327//521 336//521
f 344//522 335//522 327//522
f 345//523 328//523 337//523
f 345//524 336//524 328//524
f 346//525 339//525 347//525
f 346//526 347//526 348//526
f 346//527 337//527 339//527
f 349//528 350//528 342//528
f 349//529 351//529 350//529
f 349//530 342//530 340//530
f 349//531 340//531 343//531
f 352//532 335//532 344//532
f 352//533 343//533 335//533
f 353//534 336//534 345//534
f 353//535 344//535 336//535
f 354//536 345//536 337//536
f 354//537 337//537 346//537
f 355//538 348//538 356//538
f 355//539 356//539 357//539
f 355//540 346//540 348//540
f 358//541 359//541 351//541
f 358//542 360//542 359//542
f 358//543 351//543 349//543
f 358//544 349//544 343//544
f 358//545 343//545 352//545
f 361//546 344//546 353//546
f 361//547 352//547 344//547
f 362//548 353//548 345//548
f 362//549 345//549 354//549
f 363//550 354//550 346//550
f 363//551 346//551 355//551
f 364//552 355//552 357//552
f 364//553 357//553 365//553
f 364//554 365//554 366//554
f 367//555 368//555 360//555
f 367//556 369//556 368//556
f 367//557 360//557 358//557
f 367//558 358//558 352//558
f 367//559 352//559 361//559
f 370//560 361//560 353//560
f 370//561 353//561 362//561
f 371//562 362//562 354//562
f 371//563 354//563 363//563
f 372//564 355//564 364//564
f 372//565 363//565 355//565
f 373//566 364//566 366//566
f 373//567 366//567 374//567
f 373//568 374//568 375//568
f 376//569 377//569 369//569
f 376//570 361//570 370//570
f 376//571 378//571 377//571
f 376//572 367//572 361//572
f 376//573 369//573 367//573
f 379//574 370//574 362//574
f 379//575 362//575 371//575
f 379//576 376//576 370//576
f 380//577 363//577 372//577
f 380//578 371//578 363//578
f 381//579 364//579 373//579
f 381//580 372//580 364//580
f 382//581 375//581 383//581
f 382//582 383//582 384//582
f 382//583 373//583 375//583
f 385//584 386//584 378//584
f 385//585 387//585 386//585
f 385//586 378//586 376//586
f 385//587 376//587 379//587
f 388//588 379//588 371//588
f 388//589 371//589 380//589
f 389//590 372//590 381//590
f 389//591 380//591 372//591
f 390//592 381//592 373//592
f 390//593 373//593 382//593
f 391//594 384//594 392//594
f 391//595 392//595 393//595
f 391//596 382//596 384//596
f 391//597 390//597 382//597
f 394//598 387//598 385//598
f 394//599 395//599 387//599
f 394//600 396//600 395//600
f 394//601 379//601 388//601
f 394//602 385//602 379//602
f 397//603 394//603 388//603
f 397//604 388//604 380//604
f 397//605 380//605 389//605
f 398//606 389//606 381//606
f 398//607 381//607 390//607
f 399//608 390//608 391//608
f 400//609 391//609 393//609
f 400//610 393//610 401//610
f 400//611 401//611 402//611
f 400//612 399//612 391//612
f 403//613 396//613 394//613
f 403//614 404//614 396//614
f 403//615 405//615 404//615
f 403//616 394//616 397//616
f 406//617 397//617 389//617
f 406//618 389//618 398//618
f 407//619 390//619 399//619
f 407//620 398//620 390//620
f 408//621 399//621 400//621
f 409//622 400//622 402//622
f 409//623 402//623 410//623
f 409//624 410//624 411//624
f 412//625 413//625 405//625
f 412//626 414//626 413//626
f 412//627 403//627 397//627
f 412//628 397//628 406//628
f 412//629 405//629 403//629
f 415//630 398//630 407//630
f 415//631 412//631 406//631
f 415//632 406//632 398//632
f 416//633 399//633 408//633
f 416//634 407//634 399//634
f 417//635 400//635 409//635
f 417//636 408//636 400//636
f 418//637 411//637 419//637
f 418//638 419//638 420//638
f 418//639 409//639 411//639
f 421//640 422//640 414//640
f 421//641 423//641 422//641
f 421//642 414//642 412//642
f 421//643 412//643 415//643
f 424//644 421//644 415//644
f 424//645 415//645 407//645
f 424//646 407//646 416//646
f 425//647 424//647 416//647
f 425//648 416//648 408//648
f 425//649 408//649 417//649
f 426//650 409//650 418//650
f 426//651 417//651 409//651
f 427//652 420//652 428//652
f 427//653 428//653 429//653
f 427//654 418//654 420//654
f 430//655 431//655 423//655
f 430//656 432//656 431//656
f 430//657 421//657 424//657
f 430//658 423//658 421//658
f 433//659 430//659 424//659
f 433//660 424//660 425//660
f 434//661 417//661 426//661
f 434//662 425//662 417//662
f 435//663 426//663 418//663
f 435//664 418//664 427//664
f 436//665 427//665 429//665
f 436//666 429//666 437//666
f 436//667 435//667 427//667
f 436//668 437//668 438//668
f 439//669 440//669 432//669
f 439//670 441//670 440//670
f 439//671 432//671 430//671
f 439//672 430//672 433//672
f 442//673 433//673 425//673
f 442//674 425//674 434//674
f 443//675 442//675 434//675
f 443//676 426//676 435//676
f 443//677 434//677 426//677
f 444//678 435//678 436//678
f 445//679 438//679 446//679
f 445//680 446//680 447//680
f 445//681 444//681 436//681
f 445//682 436//682 438//682
f 448//683 449//683 441//683
f 448//684 450//684 449//684
f 448//685 433//685 442//685
f 448//686 439//686 433//686
f 448//687 441//687 439//687
f 451//688 442//688 443//688
f 452//689 435//689 444//689
f 452//690 443//690 435//690
f 453//691 444//691 445//691
f 454//692 445//692 447//692
f 454//693 447//693 455//693
f 454//694 455//694 456//694
f 457//695 448//695 442//695
f 457//696 442//696 451//696
f 457//697 458//697 450//697
f 457//698 459//698 458//698
f 457//699 450//699 448//699
f 460//700 451//700 443//700
f 460//701 443//701 452//701
f 461//702 444//702 453//702
f 461//703 452//703 444//703
f 461//704 460//704 452//704
f 462//705 453//705 445//705
f 462//706 445//706 454//706
f 463//707 456//707 464//707
f 463//708 454//708 456//708
f 463//709 464//709 465//709
f 466//710 457//710 451//710
f 466//711 467//711 459//711
f 466//712 468//712 467//712
f 466//713 451//713 460//713
f 466//714 459//714 457//714
f 469//715 460//715 461//715
f 469//716 466//716 460//716
f 470//717 469//717 461//717
f 470//718 461//718 453//718
f 470//719 453//719 462//719
f 471//720 462//720 454//720
f 471//721 454//721 463//721
f 471//722 470//722 462//722
f 472//723 463//723 465//723
f 472//724 465//724 473//724
f 472//725 473//725 474//725
f 475//726 468//726 466//726
f 475//727 466//727 469//727
f 475//728 476//728 468//728
f 475//729 477//729 476//729
f 478//730 469//730 470//730
f 478//731 475//731 469//731
f 479//732 470//732 471//732
f 480//733 471//733 463//733
f 480//734 463//734 472//734
f 481//735 472//735 474//735
f 481//736 474//736 482//736
f 481//737 482//737 483//737
f 484//738 485//738 477//738
f 484//739 486//739 485//739
f 484//740 477//740 475//740
f 484//741 475//741 478//741
f 487//742 470//742 479//742
f 487//743 478//743 470//743
f 488//744 479//744 471//744
f 488//745 471//745 480//745
f 489//746 480//746 472//746
f 489//747 472//747 481//747
f 490//748 481//748 483//748
f 490//749 483//749 491//749
f 490//750 491//750 492//750
f 493//751 486//751 484//751
f 493//752 494//752 486//752
f 493//753 495//753 494//753
f 493//754 484//754 478//754
f 493//755 478//755 487//755
f 496//756 487//756 479//756
f 496//757 479//757 488//757
f 497//758 480//758 489//758
f 497//759 488//759 480//759
f 498//760 489//760 481//760
f 498//761 481//761 490//761
f 498//762 497//762 489//762
f 499//763 492//763 500//763
f 499//764 490//764 492//764
f 499//765 500//765 501//765
f 502//766 487//766 496//766
f 502//767 503//767 495//767
f 502//768 504//768 503//768
f 502//769 493//769 487//769
f 502//770 495//770 493//770
f 505//771 496//771 488//771
f 505//772 488//772 497//772
f 6//773 497//773 498//773
f 6//774 505//774 497//774
f 506//775 498//775 490//775
f 506//776 490//776 499//776
f 11//777 499//777 501//777
f 11//778 501//778 507//778
f 11//779 507//779 508//779
f 2//780 502//780 496//780
f 2//781 509//781 504//781
f 2//782 4//782 509//782
f 2//783 496//783 505//783
f 2//784 504//784 502//784
f 3//785 2//785 505//785
f 3//786 505//786 6//786
f 7//787 498//787 506//787
f 7//788 6//788 498//788
f 9//789 7//789 506//789
f 9//790 506//790 499//790
f 9//791 499//791 11//791
f 12//792 508//792 510//792
f 12//793 510//793 17//793
f 12//794 11//794 508//794
f 1//795 511//795 4//795
f 1//796 22//796 511//796
f 512//797 77//797 78//797
f 512//798 78//798 86//798
f 512//799 86//799 87//799
f 512//800 87//800 95//800
f 512//801 95//801 96//801
f 512//802 96//802 104//802
f 512//803 104//803 105//803
f 512//804 105//804 113//804
f 512//805 113//805 114//805
f 512//806 114//806 122//806
f 512//807 122//807 123//807
f 512//808 123//808 131//808
f 512//809 131//809 132//809
f 512//810 132//810 140//810
f 513//811 512//811 140//811
f 513//812 140//812 141//812
f 514//813 513//813 141//813
f 514//814 141//814 149//814
f 515//815 514//815 149//815
f 515//816 149//816 150//816
f 516//817 150//817 158//817
f 516//818 515//818 150//818
f 517//819 516//819 158//819
f 517//820 158//820 159//820
f 518//821 159//821 167//821
f 518//822 517//822 159//822
f 519//823 167//823 168//823
f 519//824 518//824 167//824
f 520//825 168//825 176//825
f 520//826 519//826 168//826
f 521//827 520//827 176//827
f 521//828 176//828 177//828
f 522//829 521//829 177//829
f 522//830 177//830 185//830
f 523//831 522//831 185//831
f 523//832 185//832 186//832
f 524//833 523//833 186//833
f 524//834 186//834 194//834
f 525//835 524//835 194//835
f 525//836 194//836 195//836
f 526//837 525//837 195//837
f 526//838 195//838 203//838
f 527//839 526//839 203//839
f 527//840 203//840 204//840
f 528//841 527//841 204//841
f 528//842 204//842 212//842
f 529//843 212//843 213//843
f 529//844 528//844 212//844
f 530//845 529//845 213//845
f 530//846 213//846 221//846
f 531//847 221//847 222//847
f 531//848 530//848 221//848
f 532//849 222//849 230//849
f 532//850 531//850 222//850
f 533//851 532//851 230//851
f 533//852 230//852 231//852
f 534//853 533//853 231//853
f 534//854 231//854 239//854
f 535//855 534//855 239//855
f 535//856 239//856 240//856
f 536//857 535//857 240//857
f 536//858 240//858 248//858
f 537//859 536//859 248//859
f 537//860 248//860 249//860
f 538//861 537//861 249//861
f 539//862 538//862 249//862
f 539//863 249//863 257//863
f 540//864 539//864 257//864
f 540//865 257//865 258//865
f 541//866 77//866 512//866
f 541//867 4//867 511//867
f 541//868 511//868 22//868
f 541//869 22//869 21//869
f 541//870 21//870 23//870
f 541//871 23//871 34//871
f 541//872 34//872 35//872
f 541//873 35//873 42//873
f 541//874 42//874 43//874
f 541//875 43//875 51//875
f 541//876 51//876 52//876
f 541//877 52//877 60//877
f 541//878 60//878 61//878
f 541//879 61//879 69//879
f 541//880 69//880 77//880
f 542//881 540//881 258//881
f 266//882 542//882 258//882
f 509//883 4//883 541//883
f 543//884 509//884 541//884
f 267//885 542//885 266//885
f 504//886 543//886 544//886
f 504//887 509//887 543//887
f 275//888 542//888 267//888
f 503//889 544//889 545//889
f 503//890 504//890 544//890
f 276//891 542//891 275//891
f 495//892 545//892 546//892
f 495//893 503//893 545//893
f 284//894 542//894 276//894
f 494//895 546//895 547//895
f 494//896 495//896 546//896
f 285//897 542//897 284//897
f 486//898 547//898 548//898
f 486//899 494//899 547//899
f 294//900 542//900 285//900
f 485//901 548//901 549//901
f 485//902 486//902 548//902
f 295//903 542//903 294//903
f 477//904 549//904 550//904
f 477//905 485//905 549//905
f 300//906 542//906 295//906
f 476//907 550//907 551//907
f 476//908 477//908 550//908
f 301//909 542//909 300//909
f 468//910 551//910 552//910
f 468//911 476//911 551//911
f 307//912 542//912 301//912
f 467//913 468//913 552//913
f 467//914 552//914 553//914
f 308//915 542//915 307//915
f 459//916 467//916 553//916
f 459//917 553//917 554//917
f 312//918 542//918 308//918
f 458//919 554//919 555//919
f 458//920 459//920 554//920
f 311//921 542//921 312//921
f 450//922 458//922 555//922
f 450//923 555//923 556//923
f 31//924 542//924 311//924
f 31//925 557//925 542//925
f 449//926 450//926 556//926
f 449//927 556//927 558//927
f 30//928 557//928 31//928
f 441//929 449//929 558//929
f 441//930 558//930 559//930
f 332//931 557//931 30//931
f 440//932 559//932 560//932
f 440//933 441//933 559//933
f 333//934 557//934 332//934
f 432//935 560//935 561//935
f 432//936 440//936 560//936
f 341//937 557//937 333//937
f 431//938 561//938 562//938
f 431//939 432//939 561//939
f 342//940 557//940 341//940
f 423//941 562//941 563//941
f 423//942 431//942 562//942
f 350//943 557//943 342//943
f 422//944 563//944 564//944
f 422//945 423//945 563//945
f 351//946 557//946 350//946
f 414//947 564//947 565//947
f 414//948 422//948 564//948
f 359//949 557//949 351//949
f 413//950 565//950 566//950
f 413//951 414//951 565//951
f 360//952 557//952 359//952
f 405//953 566//953 567//953
f 405//954 413//954 566//954
f 368//955 557//955 360//955
f 404//956 405//956 567//956
f 404//957 567//957 568//957
f 369//958 557//958 368//958
f 396//959 404//959 568//959
f 396//960 568//960 569//960
f 396//961 569//961 570//961
f 377//962 557//962 369//962
f 395//963 396//963 570//963
f 395//964 570//964 571//964
f 378//965 557//965 377//965
f 387//966 395//966 571//966
f 387//967 571//967 557//967
f 386//968 557//968 378//968
f 386//969 387//969 557//969
f 48//970 572//970 49//970
f 49//971 572//971 57//971
f 57//972 572//972 58//972
f 58//973 572//973 66//973
f 66//974 572//974 67//974
f 67//975 572//975 74//975
f 74//976 572//976 75//976
f 75//977 572//977 83//977
f 83//978 572//978 84//978
f 84//979 572//979 92//979
f 92//980 572//980 93//980
f 93//981 572//981 101//981
f 101//982 572//982 102//982
f 102//983 572//983 110//983
f 572//984 573//984 110//984
f 110//985 573//985 111//985
f 573//986 574//986 111//986
f 111//987 574//987 119//987
f 574//988 575//988 119//988
f 119//989 575//989 120//989
f 120//990 576//990 128//990
f 575//991 576//991 120//991
f 576//992 577//992 128//992
f 128//993 577//993 129//993
f 129//994 578//994 137//994
f 577//995 578//995 129//995
f 578//996 579//996 137//996
f 137//997 579//997 138//997
f 579//998 580//998 138//998
f 138//999 580//999 146//999
f 146//1000 581//1000 147//1000
f 580//1001 581//1001 146//1001
f 147//1002 582//1002 155//1002
f 581//1003 582//1003 147//1003
f 155//1004 583//1004 156//1004
f 582//1005 583//1005 155//1005
f 583//1006 584//1006 156//1006
f 156//1007 584//1007 164//1007
f 584//1008 585//1008 164//1008
f 164//1009 585//1009 165//1009
f 585//1010 586//1010 165//1010
f 165//1011 586//1011 173//1011
f 586//1012 587//1012 173//1012
f 173//1013 587//1013 174//1013
f 587//1014 588//1014 174//1014
f 174//1015 588//1015 182//1015
f 588//1016 589//1016 182//1016
f 182//1017 589//1017 183//1017
f 589//1018 590//1018 183//1018
f 183//1019 590//1019 191//1019
f 191//1020 591//1020 192//1020
f 590//1021 591//1021 191//1021
f 591//1022 592//1022 192//1022
f 192//1023 592//1023 200//1023
f 592//1024 593//1024 200//1024
f 200//1025 593//1025 201//1025
f 593//1026 594//1026 201//1026
f 201//1027 594//1027 209//1027
f 594//1028 595//1028 209//1028
f 209//1029 595//1029 210//1029
f 595//1030 596//1030 210//1030
f 210//1031 596//1031 218//1031
f 596//1032 597//1032 218//1032
f 218//1033 597//1033 219//1033
f 597//1034 598//1034 219//1034
f 598//1035 599//1035 219//1035
f 219//1036 599//1036 227//1036
f 599//1037 600//1037 227//1037
f 227//1038 600//1038 228//1038
f 48//1039 601//1039 572//1039
f 483//1040 601//1040 491//1040
f 491//1041 601//1041 492//1041
f 492//1042 601//1042 500//1042
f 500//1043 601//1043 501//1043
f 501//1044 601//1044 507//1044
f 507//1045 601//1045 508//1045
f 508//1046 601//1046 510//1046
f 510//1047 601//1047 17//1047
f 17//1048 601//1048 18//1048
f 18//1049 601//1049 19//1049
f 19//1050 601//1050 28//1050
f 28//1051 601//1051 29//1051
f 29//1052 601//1052 40//1052
f 40//1053 601//1053 48//1053
f 600//1054 602//1054 228//1054
f 602//1055 236//1055 228//1055
f 483//1056 482//1056 601//1056
f 482//1057 603//1057 601//1057
f 602//1058 237//1058 236//1058
f 603//1059 474//1059 604//1059
f 482//1060 474//1060 603//1060
f 602//1061 245//1061 237//1061
f 604//1062 473//1062 605//1062
f 474//1063 473//1063 604//1063
f 602//1064 246//1064 245//1064
f 605//1065 465//1065 606//1065
f 473//1066 465//1066 605//1066
f 602//1067 254//1067 246//1067
f 606//1068 464//1068 607//1068
f 465//1069 464//1069 606//1069
f 602//1070 255//1070 254//1070
f 607//1071 456//1071 608//1071
f 464//1072 456//1072 607//1072
f 602//1073 263//1073 255//1073
f 608//1074 455//1074 609//1074
f 456//1075 455//1075 608//1075
f 602//1076 264//1076 263//1076
f 609//1077 447//1077 610//1077
f 455//1078 447//1078 609//1078
f 602//1079 272//1079 264//1079
f 447//1080 446//1080 610//1080
f 610//1081 446//1081 611//1081
f 602//1082 273//1082 272//1082
f 611//1083 438//1083 612//1083
f 446//1084 438//1084 611//1084
f 602//1085 281//1085 273//1085
f 438//1086 437//1086 612//1086
f 612//1087 437//1087 613//1087
f 602//1088 282//1088 281//1088
f 437//1089 429//1089 613//1089
f 613//1090 429//1090 614//1090
f 602//1091 290//1091 282//1091
f 429//1092 428//1092 614//1092
f 614//1093 428//1093 615//1093
f 602//1094 291//1094 290//1094
f 428//1095 420//1095 615//1095
f 615//1096 420//1096 616//1096
f 602//1097 14//1097 291//1097
f 617//1098 14//1098 602//1098
f 420//1099 419//1099 616//1099
f 616//1100 419//1100 618//1100
f 617//1101 15//1101 14//1101
f 419//1102 411//1102 618//1102
f 618//1103 411//1103 619//1103
f 617//1104 314//1104 15//1104
f 619//1105 410//1105 620//1105
f 411//1106 410//1106 619//1106
f 617//1107 315//1107 314//1107
f 410//1108 402//1108 620//1108
f 620//1109 402//1109 621//1109
f 617//1110 318//1110 315//1110
f 621//1111 401//1111 622//1111
f 402//1112 401//1112 621//1112
f 617//1113 319//1113 318//1113
f 622//1114 393//1114 623//1114
f 401//1115 393//1115 622//1115
f 617//1116 323//1116 319//1116
f 623//1117 392//1117 624//1117
f 393//1118 392//1118 623//1118
f 617//1119 324//1119 323//1119
f 392//1120 384//1120 624//1120
f 624//1121 384//1121 625//1121
f 617//1122 329//1122 324//1122
f 625//1123 383//1123 626//1123
f 384//1124 383//1124 625//1124
f 617//1125 330//1125 329//1125
f 626//1126 375//1126 627//1126
f 383//1127 375//1127 626//1127
f 617//1128 338//1128 330//1128
f 375//1129 374//1129 627//1129
f 627//1130 374//1130 628//1130
f 617//1131 339//1131 338//1131
f 374//1132 366//1132 628//1132
f 628//1133 366//1133 629//1133
f 629//1134 366//1134 630//1134
f 617//1135 347//1135 339//1135
f 366//1136 365//1136 630//1136
f 630//1137 365//1137 631//1137
f 617//1138 348//1138 347//1138
f 365//1139 357//1139 631//1139
f 631//1140 357//1140 617//1140
f 617//1141 356//1141 348//1141
f 357//1142 356//1142 617//1142
f 573//1143 512//1143 513//1143
f 573//1144 572//1144 512//1144
f 574//1145 513//1145 514//1145
f 574//1146 573//1146 513//1146
f 575//1147 514//1147 515//1147
f 575//1148 574//1148 514//1148
f 576//1149 515//1149 516//1149
f 576//1150 575//1150 515//1150
f 577//1151 516//1151 517//1151
f 577//1152 576//1152 516//1152
f 578//1153 517//1153 518//1153
f 578//1154 577//1154 517//1154
f 579//1155 518//1155 519//1155
f 579//1156 578//1156 518//1156
f 580//1157 519//1157 520//1157
f 580//1158 579//1158 519//1158
f 581//1159 580//1159 520//1159
f 581//1160 520//1160 521//1160
f 582//1161 581//1161 521//1161
f 582//1162 521//1162 522//1162
f 583//1163 582//1163 522//1163
f 583//1164 523//1164 524//1164
f 583//1165 522//1165 523//1165
f 584//1166 583//1166 524//1166
f 585//1167 524//1167 525//1167
f 585//1168 584//1168 524//1168
f 586//1169 525//1169 526//1169
f 586//1170 585//1170 525//1170
f 587//1171 586//1171 526//1171
f 587//1172 527//1172 528//1172
f 587//1173 526//1173 527//1173
f 588//1174 587//1174 528//1174
f 589//1175 528//1175 529//1175
f 589//1176 588//1176 528//1176
f 590//1177 529//1177 530//1177
f 590//1178 589//1178 529//1178
f 591//1179 531//1179 532//1179
f 591//1180 530//1180 531//1180
f 591//1181 590//1181 530//1181
f 592//1182 532//1182 533//1182
f 592//1183 591//1183 532//1183
f 593//1184 592//1184 533//1184
f 594//1185 533//1185 534//1185
f 594//1186 593//1186 533//1186
f 595//1187 535//1187 536//1187
f 595//1188 534//1188 535//1188
f 595//1189 594//1189 534//1189
f 596//1190 595//1190 536//1190
f 597//1191 537//1191 538//1191
f 597//1192 536//1192 537//1192
f 597//1193 596//1193 536//1193
f 598//1194 597//1194 538//1194
f 599//1195 539//1195 540//1195
f 599//1196 538//1196 539//1196
f 599//1197 598//1197 538//1197
f 600//1198 599//1198 540//1198
f 602//1199 540//1199 542//1199
f 602//1200 600//1200 540//1200
f 602//1201 542//1201 617//1201
f 617//1202 542//1202 557//1202
f 631//1203 617//1203 557//1203
f 631//1204 557//1204 571//1204
f 630//1205 571//1205 570//1205
f 630//1206 631//1206 571//1206
f 629//1207 570//1207 569//1207
f 629//1208 630//1208 570//1208
f 628//1209 569//1209 568//1209
f 628//1210 629//1210 569//1210
f 627//1211 568//1211 567//1211
f 627//1212 628//1212 568//1212
f 626//1213 567//1213 566//1213
f 626//1214 627//1214 567//1214
f 625//1215 565//1215 564//1215
f 625//1216 566//1216 565//1216
f 625//1217 626//1217 566//1217
f 624//1218 625//1218 564//1218
f 623//1219 624//1219 564//1219
f 623//1220 563//1220 562//1220
f 623//1221 564//1221 563//1221
f 622//1222 623//1222 562//1222
f 622//1223 562//1223 561//1223
f 621//1224 622//1224 561//1224
f 620//1225 621//1225 561//1225
f 620//1226 560//1226 559//1226
f 620//1227 561//1227 560//1227
f 619//1228 620//1228 559//1228
f 618//1229 619//1229 559//1229
f 618//1230 559//1230 558//1230
f 616//1231 618//1231 558//1231
f 616//1232 558//1232 556//1232
f 615//1233 616//1233 556//1233
f 615//1234 555//1234 554//1234
f 615//1235 556//1235 555//1235
f 614//1236 615//1236 554//1236
f 614//1237 554//1237 553//1237
f 613//1238 614//1238 553//1238
f 612//1239 613//1239 553//1239
f 612//1240 553//1240 552//1240
f 611//1241 552//1241 551//1241
f 611//1242 612//1242 552//1242
f 610//1243 551//1243 550//1243
f 610//1244 611//1244 551//1244
f 609//1245 549//1245 548//1245
f 609//1246 550//1246 549//1246
f 609//1247 610//1247 550//1247
f 608//1248 609//1248 548//1248
f 607//1249 548//1249 547//1249
f 607//1250 608//1250 548//1250
f 606//1251 546//1251 545//1251
f 606//1252 547//1252 546//1252
f 606//1253 607//1253 547//1253
f 605//1254 545//1254 544//1254
f 605//1255 606//1255 545//1255
f 604//1256 605//1256 544//1256
f 603//1257 544//1257 543//1257
f 603//1258 604//1258 544//1258
f 601//1259 543//1259 541//1259
f 601//1260 603//1260 543//1260
f 512//1261 572//1261 601//1261
f 512//1262 601//1262 541//1262
