# Created by FreeCAD <http://www.freecad.org>
v -70.000000 16.000000 47.000000
v -70.000000 18.000000 51.000000
v -70.000000 18.000000 47.000000
v -70.000000 16.000000 51.000000
v -69.000000 15.000000 46.000000
v -69.000000 15.000000 51.000000
v -69.000000 19.000000 46.000000
v -69.000000 19.000000 51.000000
v -69.000000 16.000000 52.000000
v -69.000000 18.000000 52.000000
v -60.000000 15.000000 46.000000
v -60.000000 15.000000 49.000000
v -59.000000 15.000000 50.000000
v -57.000000 15.000000 50.000000
v -45.000000 15.000000 46.000000
v -45.000000 15.000000 49.000000
v -56.000000 15.000000 46.000000
v -56.000000 15.000000 49.000000
v -44.000000 15.000000 50.000000
v -30.000000 15.000000 46.000000
v -30.000000 15.000000 49.000000
v -41.000000 15.000000 46.000000
v -41.000000 15.000000 49.000000
v -42.000000 15.000000 50.000000
v -29.000000 15.000000 50.000000
v -26.000000 15.000000 46.000000
v -15.000000 15.000000 46.000000
v -26.000000 15.000000 49.000000
v -15.000000 15.000000 49.000000
v -14.000000 15.000000 50.000000
v -27.000000 15.000000 50.000000
v -11.000000 15.000000 46.000000
v 0.000000 15.000000 46.000000
v -11.000000 15.000000 49.000000
v 0.000000 15.000000 49.000000
v 1.000000 15.000000 50.000000
v -12.000000 15.000000 50.000000
v 4.000000 15.000000 46.000000
v 15.000000 15.000000 46.000000
v 4.000000 15.000000 49.000000
v 15.000000 15.000000 49.000000
v 16.000000 15.000000 50.000000
v 3.000000 15.000000 50.000000
v 30.000000 15.000000 46.000000
v 30.000000 15.000000 49.000000
v 19.000000 15.000000 46.000000
v 19.000000 15.000000 49.000000
v 31.000000 15.000000 50.000000
v 18.000000 15.000000 50.000000
v 34.000000 15.000000 46.000000
v 45.000000 15.000000 46.000000
v 34.000000 15.000000 49.000000
v 45.000000 15.000000 49.000000
v 33.000000 15.000000 50.000000
v 46.000000 15.000000 50.000000
v 60.000000 15.000000 46.000000
v 60.000000 15.000000 49.000000
v 49.000000 15.000000 46.000000
v 49.000000 15.000000 49.000000
v 48.000000 15.000000 50.000000
v 61.000000 15.000000 50.000000
v 64.000000 15.000000 46.000000
v 74.000000 15.000000 46.000000
v 64.000000 15.000000 49.000000
v 74.000000 15.000000 51.000000
v 63.000000 15.000000 50.000000
v 74.000000 16.000000 52.000000
v 74.000000 18.000000 52.000000
v -60.000000 -18.000000 46.000000
v -60.000000 -18.000000 49.000000
v -59.000000 -18.000000 50.000000
v -57.000000 -18.000000 50.000000
v -56.000000 -18.000000 49.000000
v -56.000000 -18.000000 46.000000
v -45.000000 -18.000000 46.000000
v -45.000000 -18.000000 49.000000
v -44.000000 -18.000000 50.000000
v -42.000000 -18.000000 50.000000
v -41.000000 -18.000000 49.000000
v -41.000000 -18.000000 46.000000
v -30.000000 -18.000000 46.000000
v -30.000000 -18.000000 49.000000
v -29.000000 -18.000000 50.000000
v -27.000000 -18.000000 50.000000
v -26.000000 -18.000000 49.000000
v -26.000000 -18.000000 46.000000
v -15.000000 -18.000000 46.000000
v -15.000000 -18.000000 49.000000
v -14.000000 -18.000000 50.000000
v -12.000000 -18.000000 50.000000
v -11.000000 -18.000000 49.000000
v -11.000000 -18.000000 46.000000
v 0.000000 -18.000000 46.000000
v 0.000000 -18.000000 49.000000
v 1.000000 -18.000000 50.000000
v 3.000000 -18.000000 50.000000
v 4.000000 -18.000000 49.000000
v 4.000000 -18.000000 46.000000
v 15.000000 -18.000000 46.000000
v 15.000000 -18.000000 49.000000
v 16.000000 -18.000000 50.000000
v 18.000000 -18.000000 50.000000
v 19.000000 -18.000000 49.000000
v 19.000000 -18.000000 46.000000
v 30.000000 -18.000000 46.000000
v 30.000000 -18.000000 49.000000
v 31.000000 -18.000000 50.000000
v 33.000000 -18.000000 50.000000
v 34.000000 -18.000000 49.000000
v 34.000000 -18.000000 46.000000
v 45.000000 -18.000000 46.000000
v 45.000000 -18.000000 49.000000
v 46.000000 -18.000000 50.000000
v 48.000000 -18.000000 50.000000
v 49.000000 -18.000000 49.000000
v 49.000000 -18.000000 46.000000
v 60.000000 -18.000000 46.000000
v 60.000000 -18.000000 49.000000
v 61.000000 -18.000000 50.000000
v 63.000000 -18.000000 50.000000
v 64.000000 -18.000000 49.000000
v 64.000000 -18.000000 46.000000
v 75.000000 16.000000 47.000000
v 75.000000 16.000000 51.000000
v 74.000000 19.000000 51.000000
v 75.000000 18.000000 51.000000
v -69.000000 -18.000000 46.000000
v -69.000000 -18.000000 51.000000
v 74.000000 -18.000000 46.000000
v 74.000000 -18.000000 51.000000
v 74.000000 19.000000 46.000000
v 75.000000 18.000000 47.000000
v 75.000000 -19.000000 47.000000
v 75.000000 -19.000000 51.000000
v -69.000000 -19.000000 52.000000
v 74.000000 -19.000000 52.000000
v -70.000000 -19.000000 47.000000
v -70.000000 -19.000000 51.000000
v -69.000000 -22.000000 46.000000
v -70.000000 -21.000000 47.000000
v 74.000000 -22.000000 46.000000
v 75.000000 -21.000000 47.000000
v 75.000000 -21.000000 51.000000
v 74.000000 -21.000000 52.000000
v -69.000000 -21.000000 52.000000
v -70.000000 -21.000000 51.000000
v 74.000000 -22.000000 51.000000
v -69.000000 -22.000000 51.000000
vn -1.000000 0.000000 0.000000
vn -1.000000 0.000000 0.000000
vn -0.707107 -0.707107 0.000000
vn -0.707107 -0.707107 0.000000
vn -0.707107 -0.000000 -0.707107
vn -0.707107 0.000000 -0.707107
vn -0.707107 0.707107 0.000000
vn -0.707107 0.707107 0.000000
vn -0.707107 0.000000 0.707107
vn -0.707107 0.000000 0.707107
vn -0.577350 -0.577350 0.577350
vn 0.000000 -1.000000 0.000000
vn 0.000000 -1.000000 0.000000
vn 0.000000 -1.000000 0.000000
vn 0.000000 -1.000000 0.000000
vn 0.000000 -1.000000 0.000000
vn 0.000000 -1.000000 0.000000
vn 0.000000 -1.000000 0.000000
vn 0.000000 -1.000000 0.000000
vn 0.000000 -1.000000 0.000000
vn 0.000000 -1.000000 0.000000
vn 0.000000 -1.000000 0.000000
vn 0.000000 -1.000000 0.000000
vn 0.000000 -1.000000 0.000000
vn 0.000000 -1.000000 0.000000
vn 0.000000 -1.000000 0.000000
vn 0.000000 -1.000000 0.000000
vn 0.000000 -1.000000 0.000000
vn 0.000000 -1.000000 0.000000
vn 0.000000 -1.000000 0.000000
vn 0.000000 -1.000000 0.000000
vn 0.000000 -1.000000 0.000000
vn 0.000000 -1.000000 0.000000
vn 0.000000 -1.000000 0.000000
vn 0.000000 -1.000000 0.000000
vn 0.000000 -1.000000 0.000000
vn 0.000000 -1.000000 0.000000
vn 0.000000 -1.000000 0.000000
vn 0.000000 -1.000000 0.000000
vn 0.000000 -1.000000 0.000000
vn 0.000000 -1.000000 0.000000
vn 0.000000 -1.000000 0.000000
vn 0.000000 -1.000000 0.000000
vn 0.000000 -1.000000 0.000000
vn 0.000000 -1.000000 0.000000
vn 0.000000 -1.000000 0.000000
vn 0.000000 -1.000000 0.000000
vn 0.000000 -1.000000 0.000000
vn 0.000000 -1.000000 0.000000
vn 0.000000 -1.000000 0.000000
vn 0.000000 -1.000000 0.000000
vn -0.000000 -1.000000 0.000000
vn 0.000000 -1.000000 0.000000
vn 0.000000 -1.000000 0.000000
vn 0.000000 -1.000000 0.000000
vn 0.000000 -1.000000 0.000000
vn 0.000000 -1.000000 0.000000
vn 0.000000 -1.000000 0.000000
vn 0.000000 -1.000000 0.000000
vn 0.000000 -1.000000 0.000000
vn 0.000000 -1.000000 0.000000
vn 0.000000 -1.000000 0.000000
vn 0.000000 -1.000000 0.000000
vn 0.000000 -1.000000 0.000000
vn 0.000000 -1.000000 0.000000
vn 0.000000 -1.000000 0.000000
vn 0.000000 -1.000000 0.000000
vn -0.577350 0.577350 0.577350
vn 0.000000 0.000000 1.000000
vn 0.000000 0.000000 1.000000
vn 0.000000 -0.707107 0.707107
vn 0.000000 -0.707107 0.707107
vn -1.000000 0.000000 0.000000
vn -1.000000 0.000000 0.000000
vn -0.707107 0.000000 0.707107
vn -0.707107 0.000000 0.707107
vn 0.000000 0.000000 1.000000
vn 0.000000 0.000000 1.000000
vn 0.707107 0.000000 0.707107
vn 0.707107 0.000000 0.707107
vn 1.000000 0.000000 0.000000
vn 1.000000 -0.000000 0.000000
vn -1.000000 0.000000 0.000000
vn -1.000000 0.000000 0.000000
vn -0.707107 0.000000 0.707107
vn -0.707107 0.000000 0.707107
vn 0.000000 0.000000 1.000000
vn 0.000000 0.000000 1.000000
vn 0.707107 0.000000 0.707107
vn 0.707107 0.000000 0.707107
vn 1.000000 0.000000 0.000000
vn 1.000000 -0.000000 0.000000
vn -1.000000 0.000000 0.000000
vn -1.000000 0.000000 0.000000
vn -0.707107 0.000000 0.707107
vn -0.707107 0.000000 0.707107
vn 0.000000 0.000000 1.000000
vn 0.000000 0.000000 1.000000
vn 0.707107 0.000000 0.707107
vn 0.707107 0.000000 0.707107
vn 1.000000 0.000000 0.000000
vn 1.000000 -0.000000 0.000000
vn -1.000000 0.000000 0.000000
vn -1.000000 0.000000 0.000000
vn -0.707107 0.000000 0.707107
vn -0.707107 0.000000 0.707107
vn 0.000000 0.000000 1.000000
vn 0.000000 0.000000 1.000000
vn 0.707107 0.000000 0.707107
vn 0.707107 0.000000 0.707107
vn 1.000000 0.000000 0.000000
vn 1.000000 -0.000000 0.000000
vn -1.000000 0.000000 0.000000
vn -1.000000 0.000000 0.000000
vn -0.707107 0.000000 0.707107
vn -0.707107 0.000000 0.707107
vn 0.000000 0.000000 1.000000
vn 0.000000 0.000000 1.000000
vn 0.707107 0.000000 0.707107
vn 0.707107 0.000000 0.707107
vn 1.000000 0.000000 0.000000
vn 1.000000 -0.000000 0.000000
vn -1.000000 0.000000 0.000000
vn -1.000000 0.000000 0.000000
vn -0.707107 0.000000 0.707107
vn -0.707107 0.000000 0.707107
vn 0.000000 0.000000 1.000000
vn 0.000000 0.000000 1.000000
vn 0.707107 0.000000 0.707107
vn 0.707107 0.000000 0.707107
vn 1.000000 0.000000 0.000000
vn 1.000000 -0.000000 0.000000
vn -1.000000 0.000000 0.000000
vn -1.000000 0.000000 0.000000
vn -0.707107 0.000000 0.707107
vn -0.707107 0.000000 0.707107
vn 0.000000 0.000000 1.000000
vn 0.000000 0.000000 1.000000
vn 0.707107 0.000000 0.707107
vn 0.707107 0.000000 0.707107
vn 1.000000 0.000000 0.000000
vn 1.000000 -0.000000 0.000000
vn -1.000000 0.000000 0.000000
vn -1.000000 0.000000 0.000000
vn -0.707107 0.000000 0.707107
vn -0.707107 0.000000 0.707107
vn 0.000000 0.000000 1.000000
vn 0.000000 0.000000 1.000000
vn 0.707107 0.000000 0.707107
vn 0.707107 0.000000 0.707107
vn 1.000000 0.000000 0.000000
vn 1.000000 -0.000000 0.000000
vn -1.000000 0.000000 0.000000
vn -1.000000 0.000000 0.000000
vn -0.707107 0.000000 0.707107
vn -0.707107 0.000000 0.707107
vn 0.000000 0.000000 1.000000
vn 0.000000 0.000000 1.000000
vn 0.707107 0.000000 0.707107
vn 0.707107 0.000000 0.707107
vn 1.000000 0.000000 0.000000
vn 1.000000 -0.000000 0.000000
vn 0.707107 -0.707107 0.000000
vn 0.707107 -0.707107 0.000000
vn 0.000000 0.707107 0.707107
vn -0.000000 0.707107 0.707107
vn 0.707107 0.000000 0.707107
vn 0.707107 0.000000 0.707107
vn 0.577350 -0.577350 0.577350
vn 0.000000 1.000000 0.000000
vn 0.000000 1.000000 0.000000
vn 0.000000 1.000000 0.000000
vn 0.000000 1.000000 0.000000
vn 0.000000 1.000000 0.000000
vn 0.000000 1.000000 0.000000
vn 0.000000 1.000000 0.000000
vn 0.000000 1.000000 0.000000
vn 0.000000 1.000000 0.000000
vn 0.000000 1.000000 0.000000
vn 0.000000 1.000000 0.000000
vn 0.000000 1.000000 0.000000
vn 0.000000 1.000000 0.000000
vn 0.000000 1.000000 0.000000
vn 0.000000 1.000000 0.000000
vn 0.000000 1.000000 0.000000
vn 0.000000 1.000000 0.000000
vn 0.000000 1.000000 0.000000
vn 0.000000 1.000000 0.000000
vn 0.000000 1.000000 0.000000
vn 0.000000 1.000000 0.000000
vn 0.000000 1.000000 0.000000
vn 0.000000 1.000000 0.000000
vn 0.000000 1.000000 0.000000
vn 0.000000 1.000000 0.000000
vn 0.000000 1.000000 0.000000
vn 0.000000 1.000000 0.000000
vn 0.000000 1.000000 0.000000
vn 0.000000 1.000000 0.000000
vn 0.000000 1.000000 0.000000
vn 0.000000 1.000000 0.000000
vn 0.000000 1.000000 0.000000
vn 0.000000 1.000000 0.000000
vn 0.000000 1.000000 0.000000
vn 0.000000 1.000000 0.000000
vn 0.000000 1.000000 0.000000
vn 0.000000 1.000000 0.000000
vn 0.000000 1.000000 0.000000
vn 0.000000 1.000000 0.000000
vn 0.000000 1.000000 0.000000
vn -0.000000 1.000000 0.000000
vn 0.000000 1.000000 0.000000
vn 0.000000 1.000000 0.000000
vn 0.000000 1.000000 0.000000
vn 0.000000 1.000000 0.000000
vn 0.000000 1.000000 0.000000
vn 0.000000 1.000000 0.000000
vn 0.000000 1.000000 0.000000
vn 0.000000 1.000000 0.000000
vn 0.000000 1.000000 0.000000
vn 0.000000 1.000000 0.000000
vn 0.000000 1.000000 0.000000
vn 0.000000 1.000000 0.000000
vn 0.000000 1.000000 0.000000
vn 0.000000 1.000000 0.000000
vn 0.000000 1.000000 0.000000
vn 0.707107 0.000000 -0.707107
vn 0.707107 0.000000 -0.707107
vn 0.707107 0.707107 -0.000000
vn 0.707107 0.707107 -0.000000
vn 1.000000 0.000000 0.000000
vn 1.000000 -0.000000 0.000000
vn 0.577350 0.577350 0.577350
vn 0.707107 0.707107 -0.000000
vn 0.707107 0.707107 -0.000000
vn 0.000000 0.707107 0.707107
vn -0.000000 0.707107 0.707107
vn -0.707107 0.707107 0.000000
vn -0.707107 0.707107 0.000000
vn -0.707107 -0.000000 -0.707107
vn -0.707107 0.000000 -0.707107
vn 0.707107 0.000000 -0.707107
vn 0.707107 0.000000 -0.707107
vn 1.000000 0.000000 0.000000
vn 1.000000 -0.000000 0.000000
vn 0.577350 0.577350 0.577350
vn -0.577350 0.577350 0.577350
vn 0.000000 0.000000 1.000000
vn 0.000000 0.000000 1.000000
vn -1.000000 0.000000 0.000000
vn -1.000000 0.000000 0.000000
vn 0.707107 -0.707107 0.000000
vn 0.707107 -0.707107 0.000000
vn 0.000000 -0.707107 0.707107
vn 0.000000 -0.707107 0.707107
vn -0.707107 -0.707107 0.000000
vn -0.707107 -0.707107 0.000000
vn 0.707107 0.000000 0.707107
vn 0.707107 0.000000 0.707107
vn -0.707107 0.000000 0.707107
vn -0.707107 0.000000 0.707107
vn 0.577350 -0.577350 0.577350
vn -0.577350 -0.577350 0.577350
vn 0.000000 0.000000 -1.000000
vn 0.000000 0.000000 -1.000000
vn 0.000000 0.000000 -1.000000
vn 0.000000 0.000000 -1.000000
vn 0.000000 0.000000 -1.000000
vn 0.000000 0.000000 -1.000000
vn 0.000000 0.000000 -1.000000
vn 0.000000 0.000000 -1.000000
vn 0.000000 0.000000 -1.000000
vn 0.000000 0.000000 -1.000000
vn 0.000000 0.000000 -1.000000
vn 0.000000 0.000000 -1.000000
vn 0.000000 0.000000 -1.000000
vn 0.000000 0.000000 -1.000000
vn 0.000000 0.000000 -1.000000
vn 0.000000 0.000000 -1.000000
vn 0.000000 0.000000 -1.000000
vn 0.000000 0.000000 -1.000000
vn 0.000000 0.000000 -1.000000
vn 0.000000 0.000000 -1.000000
vn 0.000000 0.000000 -1.000000
vn 0.000000 0.000000 -1.000000
vn 0.000000 0.000000 -1.000000
vn 0.000000 0.000000 -1.000000
vn 0.000000 0.000000 -1.000000
vn 0.000000 0.000000 -1.000000
vn 0.000000 0.000000 -1.000000
vn 0.000000 0.000000 -1.000000
vn 0.000000 0.000000 -1.000000
vn 0.000000 0.000000 -1.000000
vn 0.000000 0.000000 -1.000000
vn 0.000000 0.000000 -1.000000
vn 0.000000 0.000000 -1.000000
vn 0.000000 0.000000 -1.000000
vn 0.000000 0.000000 -1.000000
vn 0.000000 0.000000 -1.000000
vn 0.000000 0.000000 -1.000000
vn 0.000000 -0.000000 -1.000000
vn 0.000000 0.000000 -1.000000
vn 0.000000 0.000000 -1.000000
vn 0.000000 0.000000 -1.000000
vn 0.000000 0.000000 -1.000000
vn 0.000000 0.000000 -1.000000
vn 0.000000 0.000000 -1.000000
vn 0.000000 0.000000 -1.000000
vn 0.000000 0.000000 -1.000000
vn 0.000000 0.000000 -1.000000
vn 0.000000 0.000000 -1.000000
vn 0.000000 0.000000 -1.000000
vn 0.000000 0.000000 -1.000000
vn 0.000000 0.000000 -1.000000
vn 0.000000 0.000000 -1.000000
vn 0.000000 0.000000 -1.000000
vn 0.000000 0.000000 -1.000000
vn 0.000000 0.000000 -1.000000
vn 0.000000 0.000000 -1.000000
vn 0.000000 0.000000 -1.000000
vn 0.000000 0.000000 -1.000000
vn 0.000000 1.000000 0.000000
vn 0.000000 1.000000 0.000000
vn 0.000000 -1.000000 0.000000
vn 0.000000 -1.000000 0.000000
f 1//1 2//1 3//1
f 1//2 4//2 2//2
f 5//3 6//3 1//3
f 1//4 6//4 4//4
f 7//5 5//5 1//5
f 7//6 1//6 3//6
f 8//7 7//7 3//7
f 8//8 3//8 2//8
f 9//9 10//9 4//9
f 4//10 10//10 2//10
f 4//11 6//11 9//11
f 11//12 12//12 5//12
f 5//13 12//13 6//13
f 12//14 13//14 6//14
f 13//15 14//15 6//15
f 15//16 16//16 17//16
f 17//17 16//17 18//17
f 18//18 19//18 14//18
f 16//19 19//19 18//19
f 20//20 21//20 22//20
f 22//21 21//21 23//21
f 23//22 21//22 24//22
f 21//23 25//23 24//23
f 26//24 27//24 28//24
f 27//25 29//25 28//25
f 29//26 30//26 28//26
f 28//27 30//27 31//27
f 32//28 33//28 34//28
f 33//29 35//29 34//29
f 35//30 36//30 34//30
f 34//31 36//31 37//31
f 38//32 39//32 40//32
f 39//33 41//33 40//33
f 41//34 42//34 40//34
f 40//35 42//35 43//35
f 44//36 45//36 46//36
f 46//37 45//37 47//37
f 47//38 48//38 49//38
f 45//39 48//39 47//39
f 50//40 51//40 52//40
f 52//41 53//41 54//41
f 51//42 53//42 52//42
f 53//43 55//43 54//43
f 56//44 57//44 58//44
f 58//45 57//45 59//45
f 59//46 57//46 60//46
f 57//47 61//47 60//47
f 62//48 63//48 64//48
f 64//49 65//49 66//49
f 66//50 65//50 61//50
f 63//51 65//51 64//51
f 65//52 6//52 48//52
f 65//53 48//53 54//53
f 65//54 54//54 55//54
f 65//55 55//55 60//55
f 65//56 60//56 61//56
f 48//57 6//57 49//57
f 49//58 6//58 42//58
f 42//59 6//59 43//59
f 43//60 6//60 36//60
f 36//61 6//61 37//61
f 37//62 6//62 30//62
f 30//63 6//63 31//63
f 31//64 6//64 25//64
f 25//65 6//65 24//65
f 24//66 6//66 19//66
f 19//67 6//67 14//67
f 2//68 10//68 8//68
f 67//69 10//69 9//69
f 68//70 10//70 67//70
f 65//71 9//71 6//71
f 67//72 9//72 65//72
f 69//73 70//73 11//73
f 11//74 70//74 12//74
f 71//75 12//75 70//75
f 71//76 13//76 12//76
f 14//77 13//77 71//77
f 14//78 71//78 72//78
f 18//79 72//79 73//79
f 14//80 72//80 18//80
f 73//81 74//81 17//81
f 73//82 17//82 18//82
f 75//83 76//83 15//83
f 15//84 76//84 16//84
f 77//85 16//85 76//85
f 77//86 19//86 16//86
f 24//87 19//87 77//87
f 24//88 77//88 78//88
f 23//89 78//89 79//89
f 24//90 78//90 23//90
f 79//91 80//91 22//91
f 79//92 22//92 23//92
f 81//93 82//93 20//93
f 20//94 82//94 21//94
f 83//95 21//95 82//95
f 83//96 25//96 21//96
f 31//97 25//97 83//97
f 31//98 83//98 84//98
f 28//99 84//99 85//99
f 31//100 84//100 28//100
f 85//101 86//101 26//101
f 85//102 26//102 28//102
f 87//103 88//103 27//103
f 27//104 88//104 29//104
f 89//105 29//105 88//105
f 89//106 30//106 29//106
f 37//107 30//107 89//107
f 37//108 89//108 90//108
f 34//109 90//109 91//109
f 37//110 90//110 34//110
f 91//111 92//111 32//111
f 91//112 32//112 34//112
f 93//113 94//113 33//113
f 33//114 94//114 35//114
f 95//115 35//115 94//115
f 95//116 36//116 35//116
f 43//117 36//117 95//117
f 43//118 95//118 96//118
f 40//119 96//119 97//119
f 43//120 96//120 40//120
f 97//121 98//121 38//121
f 97//122 38//122 40//122
f 99//123 100//123 39//123
f 39//124 100//124 41//124
f 101//125 41//125 100//125
f 101//126 42//126 41//126
f 49//127 42//127 101//127
f 49//128 101//128 102//128
f 47//129 102//129 103//129
f 49//130 102//130 47//130
f 103//131 104//131 46//131
f 103//132 46//132 47//132
f 105//133 106//133 44//133
f 44//134 106//134 45//134
f 107//135 45//135 106//135
f 107//136 48//136 45//136
f 54//137 48//137 107//137
f 54//138 107//138 108//138
f 52//139 108//139 109//139
f 54//140 108//140 52//140
f 109//141 110//141 50//141
f 109//142 50//142 52//142
f 111//143 112//143 51//143
f 51//144 112//144 53//144
f 113//145 53//145 112//145
f 113//146 55//146 53//146
f 60//147 55//147 113//147
f 60//148 113//148 114//148
f 59//149 114//149 115//149
f 60//150 114//150 59//150
f 115//151 116//151 58//151
f 115//152 58//152 59//152
f 117//153 118//153 56//153
f 56//154 118//154 57//154
f 119//155 57//155 118//155
f 119//156 61//156 57//156
f 66//157 61//157 119//157
f 66//158 119//158 120//158
f 64//159 120//159 121//159
f 66//160 120//160 64//160
f 121//161 122//161 62//161
f 121//162 62//162 64//162
f 65//163 63//163 123//163
f 65//164 123//164 124//164
f 10//165 125//165 8//165
f 10//166 68//166 125//166
f 68//167 67//167 124//167
f 68//168 124//168 126//168
f 65//169 124//169 67//169
f 70//170 69//170 127//170
f 70//171 127//171 128//171
f 71//172 70//172 128//172
f 72//173 71//173 128//173
f 76//174 75//174 74//174
f 76//175 74//175 73//175
f 77//176 73//176 72//176
f 77//177 76//177 73//177
f 82//178 81//178 80//178
f 82//179 80//179 79//179
f 82//180 79//180 78//180
f 83//181 82//181 78//181
f 87//182 86//182 85//182
f 88//183 87//183 85//183
f 89//184 88//184 85//184
f 89//185 85//185 84//185
f 93//186 92//186 91//186
f 94//187 93//187 91//187
f 95//188 94//188 91//188
f 95//189 91//189 90//189
f 99//190 98//190 97//190
f 100//191 99//191 97//191
f 101//192 100//192 97//192
f 101//193 97//193 96//193
f 106//194 105//194 104//194
f 106//195 104//195 103//195
f 107//196 103//196 102//196
f 107//197 106//197 103//197
f 111//198 110//198 109//198
f 112//199 109//199 108//199
f 112//200 111//200 109//200
f 113//201 112//201 108//201
f 118//202 117//202 116//202
f 118//203 116//203 115//203
f 118//204 115//204 114//204
f 119//205 118//205 114//205
f 129//206 122//206 121//206
f 130//207 121//207 120//207
f 130//208 120//208 119//208
f 130//209 129//209 121//209
f 128//210 130//210 107//210
f 107//211 130//211 108//211
f 108//212 130//212 113//212
f 113//213 130//213 114//213
f 114//214 130//214 119//214
f 128//215 107//215 102//215
f 128//216 102//216 101//216
f 128//217 101//217 96//217
f 128//218 96//218 95//218
f 128//219 95//219 90//219
f 128//220 90//220 89//220
f 128//221 89//221 84//221
f 128//222 84//222 83//222
f 128//223 83//223 78//223
f 128//224 78//224 77//224
f 128//225 77//225 72//225
f 63//226 131//226 123//226
f 123//227 131//227 132//227
f 131//228 125//228 132//228
f 132//229 125//229 126//229
f 126//230 123//230 132//230
f 124//231 123//231 126//231
f 68//232 126//232 125//232
f 129//233 130//233 133//233
f 133//234 130//234 134//234
f 135//235 130//235 128//235
f 135//236 136//236 130//236
f 128//237 127//237 137//237
f 128//238 137//238 138//238
f 127//239 139//239 140//239
f 127//240 140//240 137//240
f 141//241 129//241 142//241
f 142//242 129//242 133//242
f 134//243 142//243 133//243
f 143//244 142//244 134//244
f 136//245 134//245 130//245
f 138//246 135//246 128//246
f 144//247 135//247 145//247
f 136//248 135//248 144//248
f 140//249 138//249 137//249
f 140//250 146//250 138//250
f 147//251 141//251 142//251
f 147//252 142//252 143//252
f 147//253 145//253 148//253
f 144//254 145//254 147//254
f 139//255 148//255 140//255
f 140//256 148//256 146//256
f 136//257 144//257 143//257
f 136//258 143//258 134//258
f 145//259 138//259 146//259
f 145//260 135//260 138//260
f 147//261 143//261 144//261
f 146//262 148//262 145//262
f 122//263 129//263 141//263
f 117//264 122//264 141//264
f 116//265 117//265 141//265
f 111//266 116//266 141//266
f 110//267 111//267 141//267
f 62//268 131//268 63//268
f 105//269 110//269 141//269
f 56//270 62//270 122//270
f 56//271 122//271 117//271
f 56//272 131//272 62//272
f 104//273 105//273 141//273
f 58//274 131//274 56//274
f 99//275 104//275 141//275
f 51//276 58//276 116//276
f 51//277 116//277 111//277
f 98//278 99//278 141//278
f 44//279 50//279 110//279
f 44//280 110//280 105//280
f 39//281 46//281 104//281
f 39//282 104//282 99//282
f 33//283 38//283 98//283
f 33//284 98//284 93//284
f 27//285 32//285 92//285
f 27//286 92//286 87//286
f 20//287 86//287 81//287
f 20//288 26//288 86//288
f 139//289 81//289 86//289
f 139//290 75//290 80//290
f 139//291 74//291 75//291
f 139//292 80//292 81//292
f 139//293 69//293 74//293
f 139//294 86//294 87//294
f 139//295 92//295 93//295
f 139//296 98//296 141//296
f 139//297 93//297 98//297
f 139//298 87//298 92//298
f 127//299 69//299 139//299
f 22//300 80//300 75//300
f 15//301 22//301 75//301
f 11//302 17//302 74//302
f 11//303 74//303 69//303
f 7//304 11//304 5//304
f 7//305 15//305 17//305
f 7//306 17//306 11//306
f 7//307 131//307 58//307
f 7//308 58//308 51//308
f 7//309 51//309 50//309
f 7//310 50//310 44//310
f 7//311 44//311 46//311
f 7//312 46//312 39//312
f 7//313 39//313 38//313
f 7//314 38//314 33//314
f 7//315 33//315 32//315
f 7//316 32//316 27//316
f 7//317 27//317 26//317
f 7//318 26//318 20//318
f 7//319 20//319 22//319
f 7//320 22//320 15//320
f 125//321 131//321 7//321
f 125//322 7//322 8//322
f 139//323 147//323 148//323
f 141//324 147//324 139//324
