# Created by FreeCAD <http://www.freecad.org>
v -0.700000 7.000000 -6.000000
v -0.200000 7.000000 -5.500000
v -2.500000 7.000000 -6.000000
v -4.000000 7.000000 -4.500000
v -0.200000 7.000000 0.000000
v -4.000000 7.000000 0.000000
v -2.500000 32.000000 -6.000000
v -0.700000 32.000000 -6.000000
v -4.000000 32.000000 -4.500000
v -0.700000 7.000000 -6.000000
v -0.200000 32.000000 -5.500000
v -0.200000 7.000000 -5.500000
v -0.700000 32.000000 -6.000000
v -4.000000 32.000000 0.000000
v -4.000000 36.799999 3.700000
v -4.000000 36.799999 0.000000
v -4.000000 1.000000 3.700000
v -4.000000 1.000000 0.000000
v -0.200000 31.000000 -2.513393
v -0.200000 31.000000 -5.486607
v -0.200000 34.000000 3.700000
v -0.200000 32.000000 0.000000
v -0.200000 34.000000 0.000000
v -0.200000 9.000000 -2.513393
v -0.200000 9.000000 -5.486607
v -0.200000 6.000000 3.700000
v -0.200000 6.000000 0.000000
v 0.000000 6.000000 0.000000
v 0.000000 -3.000000 0.000000
v -0.200000 32.000000 -5.500000
v 0.000000 38.799999 0.000000
v 0.000000 34.000000 0.000000
v -2.000000 38.799999 0.000000
v -2.000000 38.799999 3.700000
v -2.700000 1.538478 5.000000
v -2.700000 36.261524 5.000000
v -0.000000 -3.000000 2.500000
v 1.000000 -4.000000 2.500000
v 1.000000 -4.000000 3.700000
v 0.000000 6.000000 2.500000
v 32.000000 6.000000 2.500000
v 32.200001 6.000000 0.000000
v 32.000000 6.000000 0.000000
v 32.200001 6.000000 3.700000
v -1.500000 35.299999 5.000000
v -1.500000 4.700000 5.000000
v 0.000000 34.000000 3.600000
v 32.200001 34.000000 0.000000
v 32.000000 34.000000 3.600000
v 32.000000 34.000000 0.000000
v 32.200001 34.000000 3.700000
v 0.292382 31.000000 -2.528772
v 0.211085 31.000000 -2.514927
v 0.251829 31.000000 -2.521290
v 0.491225 31.000000 -2.582715
v 0.412593 31.000000 -2.557860
v 0.452080 31.000000 -2.569747
v 0.568373 31.000000 -2.611853
v 0.529999 31.000000 -2.596754
v 0.643802 31.000000 -2.645187
v 0.606317 31.000000 -2.628001
v 0.717286 31.000000 -2.682616
v 0.680801 31.000000 -2.663396
v 0.823379 31.000000 -2.746187
v 0.753228 31.000000 -2.702831
v 0.788601 31.000000 -2.724027
v 0.923873 31.000000 -2.818282
v 0.332714 31.000000 -2.537365
v 0.372794 31.000000 -2.547064
v 0.857533 31.000000 -2.769294
v 0.891040 31.000000 -2.793332
v 1.018087 31.000000 -2.898411
v 0.956008 31.000000 -2.844125
v 0.987421 31.000000 -2.870841
v 1.105379 31.000000 -2.986029
v 1.047984 31.000000 -2.926813
v 1.077089 31.000000 -2.956027
v 1.132835 31.000000 -3.016798
v 1.209983 31.000000 -3.113467
v 1.159434 31.000000 -3.048310
v 1.185156 31.000000 -3.080541
v 1.233896 31.000000 -3.147063
v 1.278906 31.000000 -3.216164
v 1.256876 31.000000 -3.181304
v 1.339134 31.000000 -3.324189
v 1.299970 31.000000 -3.251616
v 1.320051 31.000000 -3.287633
v 1.374251 31.000000 -3.398806
v 1.357205 31.000000 -3.361256
v 1.390258 31.000000 -3.436810
v 1.431929 31.000000 -3.553258
v 1.405214 31.000000 -3.475239
v 1.419108 31.000000 -3.514065
v 1.454317 31.000000 -3.632628
v 1.443669 31.000000 -3.592789
v 1.463866 31.000000 -3.672745
v 1.479639 31.000000 -3.753689
v 1.472309 31.000000 -3.713109
v 1.485850 31.000000 -3.794456
v 1.490939 31.000000 -3.835378
v -0.159059 31.000000 -5.491543
v 1.497733 31.000000 -3.917564
v 1.494901 31.000000 -3.876425
v -0.076848 31.000000 -5.498030
v -0.159059 31.000000 -2.508457
v -0.117998 31.000000 -5.495352
v 1.499433 31.000000 -3.958767
v 1.500000 31.000000 -4.000000
v 1.497733 31.000000 -4.082436
v 1.499433 31.000000 -4.041234
v 1.494901 31.000000 -4.123576
v 0.129151 31.000000 -5.494430
v 0.088022 31.000000 -5.497415
v 0.046826 31.000000 -5.499269
v 0.005595 31.000000 -5.499990
v 1.490939 31.000000 -4.164622
v 1.485850 31.000000 -4.205544
v 0.251829 31.000000 -5.478710
v 0.211085 31.000000 -5.485074
v 0.170183 31.000000 -5.490314
v 1.472309 31.000000 -4.286891
v 1.479639 31.000000 -4.246311
v 0.292382 31.000000 -5.471229
v 1.463866 31.000000 -4.327255
v 0.372794 31.000000 -5.452937
v 0.332714 31.000000 -5.462635
v 1.443669 31.000000 -4.407210
v 1.454317 31.000000 -4.367372
v 0.412593 31.000000 -5.442140
v 1.431929 31.000000 -4.446742
v 0.452080 31.000000 -5.430253
v -0.035640 31.000000 -5.499577
v 1.419108 31.000000 -4.485935
v 0.529999 31.000000 -5.403246
v 0.491225 31.000000 -5.417285
v 1.374251 31.000000 -4.601194
v 1.405214 31.000000 -4.524761
v 1.390258 31.000000 -4.563190
v 1.357205 31.000000 -4.638744
v 0.643802 31.000000 -5.354813
v 0.606317 31.000000 -5.371999
v 0.568373 31.000000 -5.388147
v 1.339134 31.000000 -4.675811
v 1.320051 31.000000 -4.712367
v 0.717286 31.000000 -5.317384
v 0.680801 31.000000 -5.336604
v 1.299970 31.000000 -4.748384
v 0.788601 31.000000 -5.275973
v 0.753228 31.000000 -5.297169
v 1.256876 31.000000 -4.818696
v 1.278906 31.000000 -4.783836
v 0.857533 31.000000 -5.230706
v 0.823379 31.000000 -5.253813
v 1.185156 31.000000 -4.919459
v 1.233896 31.000000 -4.852936
v 1.209983 31.000000 -4.886533
v 0.923873 31.000000 -5.181718
v 0.891040 31.000000 -5.206668
v 0.956008 31.000000 -5.155875
v 1.132835 31.000000 -4.983202
v 1.159434 31.000000 -4.951690
v 0.987421 31.000000 -5.129159
v 1.077089 31.000000 -5.043973
v 1.105379 31.000000 -5.013971
v 1.047984 31.000000 -5.073187
v -0.117998 31.000000 -2.504648
v -0.076848 31.000000 -2.501970
v -0.035640 31.000000 -2.500423
v 0.005595 31.000000 -2.500010
v 0.046826 31.000000 -2.500731
v 0.088022 31.000000 -2.502585
v 0.129151 31.000000 -2.505570
v 0.170183 31.000000 -2.509685
v 1.018087 31.000000 -5.101589
v -0.159059 9.000000 -2.508457
v -0.117998 9.000000 -2.504648
v -0.076848 9.000000 -2.501970
v -0.035640 9.000000 -2.500423
v 0.005595 9.000000 -2.500010
v 0.046826 9.000000 -2.500731
v 0.088022 9.000000 -2.502585
v 0.129151 9.000000 -2.505570
v 0.170183 9.000000 -2.509685
v 0.211085 9.000000 -2.514927
v 0.251829 9.000000 -2.521290
v 0.292382 9.000000 -2.528772
v 0.332714 9.000000 -2.537365
v 0.372794 9.000000 -2.547064
v 0.412593 9.000000 -2.557860
v 0.452080 9.000000 -2.569747
v 0.491225 9.000000 -2.582715
v 0.529999 9.000000 -2.596754
v 0.568373 9.000000 -2.611853
v 0.606317 9.000000 -2.628001
v 0.643802 9.000000 -2.645187
v 0.680801 9.000000 -2.663396
v 0.717286 9.000000 -2.682616
v 0.753228 9.000000 -2.702831
v 0.788601 9.000000 -2.724027
v 0.823379 9.000000 -2.746187
v 0.857533 9.000000 -2.769294
v 0.891040 9.000000 -2.793332
v 0.923873 9.000000 -2.818282
v 0.956008 9.000000 -2.844125
v 0.987421 9.000000 -2.870841
v 1.018087 9.000000 -2.898411
v 1.047984 9.000000 -2.926813
v 1.077089 9.000000 -2.956027
v 1.105379 9.000000 -2.986029
v 1.132835 9.000000 -3.016798
v 1.159434 9.000000 -3.048310
v 1.185156 9.000000 -3.080541
v 1.209983 9.000000 -3.113467
v 1.233896 9.000000 -3.147063
v 1.256876 9.000000 -3.181304
v 1.278906 9.000000 -3.216164
v 1.299970 9.000000 -3.251616
v 1.320051 9.000000 -3.287633
v 1.339134 9.000000 -3.324189
v 1.357205 9.000000 -3.361256
v 1.374251 9.000000 -3.398806
v 1.390258 9.000000 -3.436810
v 1.405214 9.000000 -3.475239
v 1.419108 9.000000 -3.514065
v 1.431929 9.000000 -3.553258
v 1.443669 9.000000 -3.592789
v 1.454317 9.000000 -3.632628
v 1.463866 9.000000 -3.672745
v 1.472309 9.000000 -3.713109
v 1.479639 9.000000 -3.753689
v 1.485850 9.000000 -3.794456
v 1.490939 9.000000 -3.835378
v 1.494901 9.000000 -3.876425
v 1.497733 9.000000 -3.917564
v 1.499433 9.000000 -3.958767
v 1.500000 9.000000 -4.000000
v 1.499433 9.000000 -4.041234
v 1.497733 9.000000 -4.082436
v 1.494901 9.000000 -4.123576
v 1.490939 9.000000 -4.164622
v 1.485850 9.000000 -4.205544
v 1.479639 9.000000 -4.246311
v 1.472309 9.000000 -4.286891
v 1.463866 9.000000 -4.327255
v 1.454317 9.000000 -4.367372
v 1.443669 9.000000 -4.407210
v 1.431929 9.000000 -4.446742
v 1.419108 9.000000 -4.485935
v 1.405214 9.000000 -4.524761
v 1.390258 9.000000 -4.563190
v 1.374251 9.000000 -4.601194
v 1.357205 9.000000 -4.638744
v 1.339134 9.000000 -4.675811
v 1.320051 9.000000 -4.712367
v 1.299970 9.000000 -4.748384
v 1.278906 9.000000 -4.783836
v 1.256876 9.000000 -4.818696
v 1.233896 9.000000 -4.852936
v 1.209983 9.000000 -4.886533
v 1.185156 9.000000 -4.919459
v 1.159434 9.000000 -4.951690
v 1.132835 9.000000 -4.983202
v 1.105379 9.000000 -5.013971
v 1.077089 9.000000 -5.043973
v 1.047984 9.000000 -5.073187
v 1.018087 9.000000 -5.101589
v 0.987421 9.000000 -5.129159
v 0.956008 9.000000 -5.155875
v 0.923873 9.000000 -5.181718
v 0.891040 9.000000 -5.206668
v 0.857533 9.000000 -5.230706
v 0.823379 9.000000 -5.253813
v 0.788601 9.000000 -5.275973
v 0.753228 9.000000 -5.297169
v 0.717286 9.000000 -5.317384
v 0.680801 9.000000 -5.336604
v 0.643802 9.000000 -5.354813
v 0.606317 9.000000 -5.371999
v 0.568373 9.000000 -5.388147
v 0.529999 9.000000 -5.403246
v 0.491225 9.000000 -5.417285
v 0.452080 9.000000 -5.430253
v 0.412593 9.000000 -5.442140
v 0.372794 9.000000 -5.452937
v 0.332714 9.000000 -5.462635
v 0.292382 9.000000 -5.471229
v 0.251829 9.000000 -5.478710
v 0.211085 9.000000 -5.485074
v 0.170183 9.000000 -5.490314
v 0.129151 9.000000 -5.494430
v 0.088022 9.000000 -5.497415
v 0.046826 9.000000 -5.499269
v 0.005595 9.000000 -5.499990
v -0.035640 9.000000 -5.499577
v -0.076848 9.000000 -5.498030
v -0.117998 9.000000 -5.495352
v -0.159059 9.000000 -5.491543
v 0.000000 38.799999 3.600000
v 32.000000 38.799999 3.600000
v 34.000000 38.799999 0.000000
v 32.000000 38.799999 0.000000
v 34.000000 38.799999 3.700000
v -1.461522 37.500000 5.000000
v 1.538478 -2.700000 5.000000
v 33.500000 4.700000 5.000000
v 30.461523 -2.700000 5.000000
v 34.700001 1.538478 5.000000
v 34.700001 36.261524 5.000000
v 33.500000 35.299999 5.000000
v 33.461521 37.500000 5.000000
v 31.000000 -4.000000 3.700000
v 31.000000 -4.000000 2.500000
v 32.000000 -3.000000 2.500000
v 32.200001 32.000000 0.000000
v 32.200001 31.000000 -5.486607
v 32.200001 31.000000 -2.513393
v 32.200001 32.000000 -5.500000
v 32.200001 9.000000 -2.513393
v 32.200001 7.000000 0.000000
v 32.200001 7.000000 -5.500000
v 32.200001 9.000000 -5.486607
v 36.000000 7.000000 0.000000
v 36.000000 1.000000 0.000000
v 32.000000 -3.000000 0.000000
v 36.000000 36.799999 0.000000
v 36.000000 32.000000 0.000000
v 36.000000 36.799999 3.700000
v 36.000000 1.000000 3.700000
v 32.700001 7.000000 -6.000000
v 34.500000 7.000000 -6.000000
v 36.000000 7.000000 -4.500000
v 32.700001 32.000000 -6.000000
v 34.500000 32.000000 -6.000000
v 36.000000 32.000000 -4.500000
v 31.076126 31.000000 -2.818282
v 31.012579 31.000000 -2.870841
v 31.043991 31.000000 -2.844125
v 30.766104 31.000000 -3.147063
v 30.790016 31.000000 -3.113467
v 30.814844 31.000000 -3.080541
v 30.840567 31.000000 -3.048310
v 30.867165 31.000000 -3.016798
v 30.700029 31.000000 -3.251616
v 30.721094 31.000000 -3.216164
v 30.743124 31.000000 -3.181304
v 31.356197 31.000000 -2.645187
v 31.282715 31.000000 -2.682616
v 31.319199 31.000000 -2.663396
v 30.642796 31.000000 -3.361256
v 30.660866 31.000000 -3.324189
v 30.679949 31.000000 -3.287633
v 31.431627 31.000000 -2.611853
v 31.393682 31.000000 -2.628001
v 30.609743 31.000000 -3.436810
v 30.625750 31.000000 -3.398806
v 31.470001 31.000000 -2.596754
v 30.556332 31.000000 -3.592789
v 30.568071 31.000000 -3.553258
v 30.580893 31.000000 -3.514065
v 31.667286 31.000000 -2.537365
v 31.587406 31.000000 -2.557860
v 31.627205 31.000000 -2.547064
v 31.707619 31.000000 -2.528772
v 31.547920 31.000000 -2.569747
v 30.527691 31.000000 -3.713109
v 30.536135 31.000000 -3.672745
v 30.545683 31.000000 -3.632628
v 31.788914 31.000000 -2.514927
v 31.211399 31.000000 -2.724027
v 31.246771 31.000000 -2.702831
v 31.508776 31.000000 -2.582715
v 31.748171 31.000000 -2.521290
v 31.176622 31.000000 -2.746187
v 32.118000 31.000000 -2.504648
v 31.994404 31.000000 -2.500010
v 32.035641 31.000000 -2.500423
v 32.076847 31.000000 -2.501970
v 30.509060 31.000000 -4.164622
v 30.505098 31.000000 -4.123576
v 30.502268 31.000000 -4.082436
v 30.500566 31.000000 -4.041234
v 31.953173 31.000000 -2.500731
v 32.159058 31.000000 -2.508457
v 30.520361 31.000000 -4.246311
v 30.514149 31.000000 -4.205544
v 30.545683 31.000000 -4.367372
v 30.536135 31.000000 -4.327255
v 30.527691 31.000000 -4.286891
v 30.500000 31.000000 -4.000000
v 30.500566 31.000000 -3.958767
v 30.502268 31.000000 -3.917564
v 30.505098 31.000000 -3.876425
v 30.509060 31.000000 -3.835378
v 30.514149 31.000000 -3.794456
v 30.520361 31.000000 -3.753689
v 30.594786 31.000000 -3.475239
v 30.894621 31.000000 -2.986029
v 30.922911 31.000000 -2.956027
v 30.952017 31.000000 -2.926813
v 30.981913 31.000000 -2.898411
v 31.108959 31.000000 -2.793332
v 31.142467 31.000000 -2.769294
v 30.625750 31.000000 -4.601194
v 30.609743 31.000000 -4.563190
v 30.594786 31.000000 -4.524761
v 30.642796 31.000000 -4.638744
v 30.679949 31.000000 -4.712367
v 30.660866 31.000000 -4.675811
v 30.700029 31.000000 -4.748384
v 30.580893 31.000000 -4.485935
v 30.568071 31.000000 -4.446742
v 30.556332 31.000000 -4.407210
v 30.743124 31.000000 -4.818696
v 30.721094 31.000000 -4.783836
v 30.766104 31.000000 -4.852936
v 30.814844 31.000000 -4.919459
v 30.790016 31.000000 -4.886533
v 30.840567 31.000000 -4.951690
v 30.922911 31.000000 -5.043973
v 30.894621 31.000000 -5.013971
v 30.867165 31.000000 -4.983202
v 30.952017 31.000000 -5.073187
v 30.981913 31.000000 -5.101589
v 31.043991 31.000000 -5.155875
v 31.012579 31.000000 -5.129159
v 31.108959 31.000000 -5.206668
v 31.829817 31.000000 -2.509685
v 31.870850 31.000000 -2.505570
v 31.076126 31.000000 -5.181718
v 31.176622 31.000000 -5.253813
v 31.142467 31.000000 -5.230706
v 31.211399 31.000000 -5.275973
v 31.246771 31.000000 -5.297169
v 31.911978 31.000000 -2.502585
v 31.319199 31.000000 -5.336604
v 31.282715 31.000000 -5.317384
v 31.356197 31.000000 -5.354813
v 31.431627 31.000000 -5.388147
v 31.393682 31.000000 -5.371999
v 31.508776 31.000000 -5.417285
v 31.470001 31.000000 -5.403246
v 31.547920 31.000000 -5.430253
v 31.667286 31.000000 -5.462635
v 31.627205 31.000000 -5.452937
v 31.587406 31.000000 -5.442140
v 31.748171 31.000000 -5.478710
v 31.707619 31.000000 -5.471229
v 31.829817 31.000000 -5.490314
v 31.788914 31.000000 -5.485074
v 31.911978 31.000000 -5.497415
v 31.870850 31.000000 -5.494430
v 32.076847 31.000000 -5.498030
v 32.035641 31.000000 -5.499577
v 31.994404 31.000000 -5.499990
v 31.953173 31.000000 -5.499269
v 32.159058 31.000000 -5.491543
v 32.118000 31.000000 -5.495352
v 32.159058 9.000000 -5.491543
v 32.118000 9.000000 -5.495352
v 32.076847 9.000000 -5.498030
v 32.035641 9.000000 -5.499577
v 31.994404 9.000000 -5.499990
v 31.953173 9.000000 -5.499269
v 31.911978 9.000000 -5.497415
v 31.870850 9.000000 -5.494430
v 31.829817 9.000000 -5.490314
v 31.788914 9.000000 -5.485074
v 31.748171 9.000000 -5.478710
v 31.707619 9.000000 -5.471229
v 31.667286 9.000000 -5.462635
v 31.627205 9.000000 -5.452937
v 31.587406 9.000000 -5.442140
v 31.547920 9.000000 -5.430253
v 31.508776 9.000000 -5.417285
v 31.470001 9.000000 -5.403246
v 31.431627 9.000000 -5.388147
v 31.393682 9.000000 -5.371999
v 31.356197 9.000000 -5.354813
v 31.319199 9.000000 -5.336604
v 31.282715 9.000000 -5.317384
v 31.246771 9.000000 -5.297169
v 31.211399 9.000000 -5.275973
v 31.176622 9.000000 -5.253813
v 31.142467 9.000000 -5.230706
v 31.108959 9.000000 -5.206668
v 31.076126 9.000000 -5.181718
v 31.043991 9.000000 -5.155875
v 31.012579 9.000000 -5.129159
v 30.981913 9.000000 -5.101589
v 30.952017 9.000000 -5.073187
v 30.922911 9.000000 -5.043973
v 30.894621 9.000000 -5.013971
v 30.867165 9.000000 -4.983202
v 30.840567 9.000000 -4.951690
v 30.814844 9.000000 -4.919459
v 30.790016 9.000000 -4.886533
v 30.766104 9.000000 -4.852936
v 30.743124 9.000000 -4.818696
v 30.721094 9.000000 -4.783836
v 30.700029 9.000000 -4.748384
v 30.679949 9.000000 -4.712367
v 30.660866 9.000000 -4.675811
v 30.642796 9.000000 -4.638744
v 30.625750 9.000000 -4.601194
v 30.609743 9.000000 -4.563190
v 30.594786 9.000000 -4.524761
v 30.580893 9.000000 -4.485935
v 30.568071 9.000000 -4.446742
v 30.556332 9.000000 -4.407210
v 30.545683 9.000000 -4.367372
v 30.536135 9.000000 -4.327255
v 30.527691 9.000000 -4.286891
v 30.520361 9.000000 -4.246311
v 30.514149 9.000000 -4.205544
v 30.509060 9.000000 -4.164622
v 30.505098 9.000000 -4.123576
v 30.502268 9.000000 -4.082436
v 30.500566 9.000000 -4.041234
v 30.500000 9.000000 -4.000000
v 30.500566 9.000000 -3.958767
v 30.502268 9.000000 -3.917564
v 30.505098 9.000000 -3.876425
v 30.509060 9.000000 -3.835378
v 30.514149 9.000000 -3.794456
v 30.520361 9.000000 -3.753689
v 30.527691 9.000000 -3.713109
v 30.536135 9.000000 -3.672745
v 30.545683 9.000000 -3.632628
v 30.556332 9.000000 -3.592789
v 30.568071 9.000000 -3.553258
v 30.580893 9.000000 -3.514065
v 30.594786 9.000000 -3.475239
v 30.609743 9.000000 -3.436810
v 30.625750 9.000000 -3.398806
v 30.642796 9.000000 -3.361256
v 30.660866 9.000000 -3.324189
v 30.679949 9.000000 -3.287633
v 30.700029 9.000000 -3.251616
v 30.721094 9.000000 -3.216164
v 30.743124 9.000000 -3.181304
v 30.766104 9.000000 -3.147063
v 30.790016 9.000000 -3.113467
v 30.814844 9.000000 -3.080541
v 30.840567 9.000000 -3.048310
v 30.867165 9.000000 -3.016798
v 30.894621 9.000000 -2.986029
v 30.922911 9.000000 -2.956027
v 30.952017 9.000000 -2.926813
v 30.981913 9.000000 -2.898411
v 31.012579 9.000000 -2.870841
v 31.043991 9.000000 -2.844125
v 31.076126 9.000000 -2.818282
v 31.108959 9.000000 -2.793332
v 31.142467 9.000000 -2.769294
v 31.176622 9.000000 -2.746187
v 31.211399 9.000000 -2.724027
v 31.246771 9.000000 -2.702831
v 31.282715 9.000000 -2.682616
v 31.319199 9.000000 -2.663396
v 31.356197 9.000000 -2.645187
v 31.393682 9.000000 -2.628001
v 31.431627 9.000000 -2.611853
v 31.470001 9.000000 -2.596754
v 31.508776 9.000000 -2.582715
v 31.547920 9.000000 -2.569747
v 31.587406 9.000000 -2.557860
v 31.627205 9.000000 -2.547064
v 31.667286 9.000000 -2.537365
v 31.707619 9.000000 -2.528772
v 31.748171 9.000000 -2.521290
v 31.788914 9.000000 -2.514927
v 31.829817 9.000000 -2.509685
v 31.870850 9.000000 -2.505570
v 31.911978 9.000000 -2.502585
v 31.953173 9.000000 -2.500731
v 31.994404 9.000000 -2.500010
v 32.035641 9.000000 -2.500423
v 32.076847 9.000000 -2.501970
v 32.118000 9.000000 -2.504648
v 32.159058 9.000000 -2.508457
vn 0.000000 -1.000000 0.000000
vn 0.000000 -1.000000 0.000000
vn 0.000000 -1.000000 0.000000
vn 0.000000 -1.000000 0.000000
vn 0.000000 0.000000 -1.000000
vn 0.000000 0.000000 -1.000000
vn -0.707107 0.000000 -0.707107
vn -0.707107 0.000000 -0.707107
vn 0.707107 0.000000 -0.707107
vn 0.707107 0.000000 -0.707107
vn -1.000000 0.000000 0.000000
vn -1.000000 0.000000 0.000000
vn -1.000000 0.000000 0.000000
vn -1.000000 0.000000 0.000000
vn -1.000000 0.000000 0.000000
vn -1.000000 0.000000 0.000000
vn 1.000000 0.000000 0.000000
vn 1.000000 0.000000 0.000000
vn 1.000000 0.000000 0.000000
vn 1.000000 0.000000 0.000000
vn 1.000000 0.000000 0.000000
vn 1.000000 0.000000 0.000000
vn 1.000000 -0.000000 0.000000
vn 1.000000 0.000000 0.000000
vn 1.000000 0.000000 0.000000
vn 1.000000 0.000000 0.000000
vn 1.000000 0.000000 0.000000
vn 1.000000 0.000000 -0.000000
vn 0.000000 -0.000000 -1.000000
vn 0.000000 -0.000000 -1.000000
vn 0.000000 0.000000 -1.000000
vn 0.000000 0.000000 -1.000000
vn 0.000000 1.000000 0.000000
vn 0.000000 1.000000 0.000000
vn 0.000000 1.000000 0.000000
vn 0.000000 1.000000 0.000000
vn 0.000000 0.000000 -1.000000
vn 0.000000 -0.000000 -1.000000
vn 0.000000 0.000000 -1.000000
vn 0.000000 0.000000 -1.000000
vn 0.000000 -0.000000 -1.000000
vn -0.707107 0.707107 0.000000
vn -0.707107 0.707107 0.000000
vn -0.707107 0.000000 0.707107
vn -0.707107 0.000000 0.707107
vn -0.707107 -0.707107 0.000000
vn -0.707107 -0.707107 -0.000000
vn -0.707107 -0.707107 0.000000
vn -0.707107 -0.707107 0.000000
vn 0.000000 1.000000 0.000000
vn 0.000000 1.000000 0.000000
vn 0.000000 1.000000 0.000000
vn 0.000000 1.000000 0.000000
vn 0.000000 1.000000 0.000000
vn 0.000000 1.000000 0.000000
vn 0.707107 0.000000 0.707107
vn 0.707107 -0.000000 0.707107
vn 0.000000 -1.000000 0.000000
vn 0.000000 -1.000000 0.000000
vn 0.000000 -1.000000 0.000000
vn 0.000000 -1.000000 0.000000
vn -0.000000 -1.000000 0.000000
vn 0.000000 -1.000000 0.000000
vn 0.000000 1.000000 0.000000
vn 0.000000 1.000000 0.000000
vn 0.000000 1.000000 0.000000
vn 0.000000 1.000000 0.000000
vn 0.000000 1.000000 0.000000
vn 0.000000 1.000000 0.000000
vn 0.000000 1.000000 0.000000
vn 0.000000 1.000000 0.000000
vn 0.000000 1.000000 0.000000
vn 0.000000 1.000000 0.000000
vn 0.000000 1.000000 0.000000
vn 0.000000 1.000000 0.000000
vn 0.000000 1.000000 0.000000
vn 0.000000 1.000000 0.000000
vn 0.000000 1.000000 0.000000
vn 0.000000 1.000000 0.000000
vn 0.000000 1.000000 0.000000
vn 0.000000 1.000000 0.000000
vn 0.000000 1.000000 0.000000
vn 0.000000 1.000000 0.000000
vn 0.000000 1.000000 0.000000
vn 0.000000 1.000000 0.000000
vn 0.000000 1.000000 0.000000
vn 0.000000 1.000000 0.000000
vn 0.000000 1.000000 0.000000
vn 0.000000 1.000000 0.000000
vn 0.000000 1.000000 0.000000
vn 0.000000 1.000000 0.000000
vn 0.000000 1.000000 0.000000
vn 0.000000 1.000000 0.000000
vn 0.000000 1.000000 0.000000
vn 0.000000 1.000000 0.000000
vn 0.000000 1.000000 0.000000
vn 0.000000 1.000000 0.000000
vn 0.000000 1.000000 0.000000
vn 0.000000 1.000000 0.000000
vn 0.000000 1.000000 0.000000
vn 0.000000 1.000000 0.000000
vn 0.000000 1.000000 0.000000
vn 0.000000 1.000000 0.000000
vn 0.000000 1.000000 0.000000
vn 0.000000 1.000000 0.000000
vn 0.000000 1.000000 0.000000
vn 0.000000 1.000000 0.000000
vn 0.000000 1.000000 0.000000
vn 0.000000 1.000000 0.000000
vn 0.000000 1.000000 0.000000
vn 0.000000 1.000000 0.000000
vn 0.000000 1.000000 0.000000
vn 0.000000 1.000000 0.000000
vn 0.000000 1.000000 0.000000
vn 0.000000 1.000000 0.000000
vn 0.000000 1.000000 0.000000
vn 0.000000 1.000000 0.000000
vn 0.000000 1.000000 0.000000
vn 0.000000 1.000000 -0.000000
vn 0.000000 1.000000 0.000000
vn 0.000000 1.000000 0.000000
vn 0.000000 1.000000 0.000000
vn 0.000000 1.000000 0.000000
vn 0.000000 1.000000 0.000000
vn 0.000000 1.000000 0.000000
vn 0.000000 1.000000 0.000000
vn 0.000000 1.000000 0.000000
vn 0.000000 1.000000 0.000000
vn 0.000000 1.000000 0.000000
vn 0.000000 1.000000 0.000000
vn 0.000000 1.000000 0.000000
vn 0.000000 1.000000 0.000000
vn 0.000000 1.000000 0.000000
vn 0.000000 1.000000 0.000000
vn 0.000000 1.000000 0.000000
vn 0.000000 1.000000 0.000000
vn 0.000000 1.000000 0.000000
vn 0.000000 1.000000 0.000000
vn 0.000000 1.000000 0.000000
vn 0.000000 1.000000 0.000000
vn 0.000000 1.000000 0.000000
vn 0.000000 1.000000 0.000000
vn 0.000000 1.000000 0.000000
vn 0.000000 1.000000 0.000000
vn 0.000000 1.000000 0.000000
vn 0.000000 1.000000 0.000000
vn 0.000000 1.000000 0.000000
vn 0.000000 1.000000 0.000000
vn 0.000000 1.000000 0.000000
vn 0.000000 1.000000 0.000000
vn 0.000000 1.000000 0.000000
vn 0.000000 1.000000 0.000000
vn 0.000000 1.000000 0.000000
vn 0.000000 1.000000 0.000000
vn 0.000000 1.000000 0.000000
vn 0.000000 1.000000 0.000000
vn 0.000000 1.000000 0.000000
vn 0.000000 1.000000 0.000000
vn 0.000000 1.000000 -0.000000
vn 0.000000 1.000000 0.000000
vn 0.000000 1.000000 0.000000
vn 0.000000 1.000000 0.000000
vn 0.000000 1.000000 0.000000
vn 0.000000 1.000000 0.000000
vn 0.000000 1.000000 0.000000
vn 0.000000 1.000000 0.000000
vn 0.000000 1.000000 0.000000
vn 0.000000 1.000000 0.000000
vn 0.000000 1.000000 0.000000
vn 0.000000 1.000000 0.000000
vn 0.000000 1.000000 0.000000
vn 0.000000 1.000000 0.000000
vn 0.000000 1.000000 0.000000
vn 0.000000 1.000000 0.000000
vn 0.000000 1.000000 0.000000
vn 0.000000 1.000000 0.000000
vn 0.000000 1.000000 0.000000
vn 0.000000 1.000000 0.000000
vn 0.000000 1.000000 0.000000
vn 0.000000 1.000000 0.000000
vn 0.000000 1.000000 0.000000
vn 0.000000 1.000000 0.000000
vn 0.000000 1.000000 0.000000
vn 0.000000 1.000000 0.000000
vn 0.000000 1.000000 0.000000
vn 0.000000 1.000000 0.000000
vn -0.119697 0.000000 0.992810
vn -0.119697 0.000000 0.992810
vn -0.092361 0.000000 0.995726
vn -0.064957 0.000000 0.997888
vn -0.092361 0.000000 0.995726
vn -0.064957 0.000000 0.997888
vn -0.037500 0.000000 0.999297
vn -0.037500 0.000000 0.999297
vn -0.010014 0.000000 0.999950
vn -0.010014 0.000000 0.999950
vn 0.017472 0.000000 0.999847
vn 0.017472 -0.000000 0.999847
vn 0.044958 0.000000 0.998989
vn 0.044958 -0.000000 0.998989
vn 0.072398 0.000000 0.997376
vn 0.072398 -0.000000 0.997376
vn 0.099785 0.000000 0.995009
vn 0.099785 -0.000000 0.995009
vn 0.127103 0.000000 0.991889
vn 0.127103 -0.000000 0.991889
vn 0.154317 0.000000 0.988021
vn 0.181422 0.000000 0.983405
vn 0.154317 -0.000000 0.988021
vn 0.181422 0.000000 0.983405
vn 0.208387 -0.000000 0.978046
vn 0.208387 0.000000 0.978046
vn 0.235191 -0.000000 0.971949
vn 0.235191 0.000000 0.971949
vn 0.261821 0.000000 0.965116
vn 0.261821 0.000000 0.965116
vn 0.288249 0.000000 0.957555
vn 0.288249 -0.000000 0.957555
vn 0.314463 0.000000 0.949270
vn 0.314463 -0.000000 0.949270
vn 0.340445 0.000000 0.940265
vn 0.340445 -0.000000 0.940265
vn 0.366156 0.000000 0.930553
vn 0.391601 0.000000 0.920135
vn 0.366156 -0.000000 0.930553
vn 0.416745 0.000000 0.909023
vn 0.391601 0.000000 0.920135
vn 0.416745 0.000000 0.909023
vn 0.441577 0.000000 0.897223
vn 0.441577 -0.000000 0.897223
vn 0.466070 0.000000 0.884748
vn 0.490218 0.000000 0.871600
vn 0.466070 -0.000000 0.884748
vn 0.490218 0.000000 0.871600
vn 0.513992 0.000000 0.857795
vn 0.513992 -0.000000 0.857795
vn 0.537379 0.000000 0.843341
vn 0.537379 -0.000000 0.843341
vn 0.560356 0.000000 0.828252
vn 0.560356 -0.000000 0.828252
vn 0.582914 0.000000 0.812534
vn 0.605026 0.000000 0.796206
vn 0.582914 -0.000000 0.812534
vn 0.626688 0.000000 0.779271
vn 0.605026 0.000000 0.796206
vn 0.626688 0.000000 0.779271
vn 0.647872 0.000000 0.761750
vn 0.668564 0.000000 0.743654
vn 0.647872 -0.000000 0.761750
vn 0.668564 0.000000 0.743654
vn 0.688758 0.000000 0.724991
vn 0.688758 -0.000000 0.724991
vn 0.708424 0.000000 0.705787
vn 0.708424 -0.000000 0.705787
vn 0.727557 0.000000 0.686047
vn 0.727557 -0.000000 0.686047
vn 0.746141 0.000000 0.665788
vn 0.764163 0.000000 0.645024
vn 0.746141 -0.000000 0.665788
vn 0.764163 0.000000 0.645024
vn 0.781605 -0.000000 0.623773
vn 0.781605 0.000000 0.623773
vn 0.798454 0.000000 0.602055
vn 0.798454 0.000000 0.602055
vn 0.814703 -0.000000 0.579879
vn 0.814703 0.000000 0.579879
vn 0.830336 -0.000000 0.557263
vn 0.830336 0.000000 0.557263
vn 0.845341 0.000000 0.534227
vn 0.845341 0.000000 0.534227
vn 0.859706 -0.000000 0.510790
vn 0.859706 0.000000 0.510790
vn 0.873423 0.000000 0.486962
vn 0.873423 0.000000 0.486962
vn 0.886479 0.000000 0.462770
vn 0.886479 0.000000 0.462770
vn 0.898865 -0.000000 0.438225
vn 0.898865 0.000000 0.438225
vn 0.910572 0.000000 0.413352
vn 0.910572 0.000000 0.413352
vn 0.921589 -0.000000 0.388166
vn 0.921589 0.000000 0.388166
vn 0.931912 -0.000000 0.362685
vn 0.931912 0.000000 0.362685
vn 0.941529 0.000000 0.336931
vn 0.941529 -0.000000 0.336931
vn 0.950436 0.000000 0.310921
vn 0.958623 0.000000 0.284679
vn 0.950436 -0.000000 0.310921
vn 0.958623 0.000000 0.284679
vn 0.966086 0.000000 0.258219
vn 0.972820 0.000000 0.231562
vn 0.966086 -0.000000 0.258219
vn 0.972820 0.000000 0.231562
vn 0.978817 0.000000 0.204736
vn 0.978817 -0.000000 0.204736
vn 0.984076 0.000000 0.177751
vn 0.988590 0.000000 0.150632
vn 0.984076 -0.000000 0.177751
vn 0.992357 0.000000 0.123400
vn 0.988590 0.000000 0.150632
vn 0.995374 0.000000 0.096076
vn 0.992357 0.000000 0.123400
vn 0.997639 0.000000 0.068677
vn 0.995374 0.000000 0.096076
vn 0.997639 0.000000 0.068677
vn 0.999150 0.000000 0.041226
vn 0.999906 0.000000 0.013746
vn 0.999150 -0.000000 0.041226
vn 0.999906 0.000000 0.013746
vn 0.999906 0.000000 -0.013746
vn 0.999906 0.000000 -0.013746
vn 0.999150 0.000000 -0.041226
vn 0.999150 0.000000 -0.041226
vn 0.997639 0.000000 -0.068677
vn 0.997639 0.000000 -0.068677
vn 0.995374 0.000000 -0.096077
vn 0.995374 0.000000 -0.096077
vn 0.992357 0.000000 -0.123400
vn 0.992357 0.000000 -0.123400
vn 0.988590 0.000000 -0.150632
vn 0.988590 0.000000 -0.150632
vn 0.984076 0.000000 -0.177750
vn 0.984076 0.000000 -0.177750
vn 0.978817 0.000000 -0.204736
vn 0.978817 0.000000 -0.204736
vn 0.972820 0.000000 -0.231564
vn 0.972820 0.000000 -0.231564
vn 0.966086 0.000000 -0.258219
vn 0.966086 0.000000 -0.258219
vn 0.958623 0.000000 -0.284677
vn 0.958623 0.000000 -0.284677
vn 0.950435 0.000000 -0.310923
vn 0.950435 0.000000 -0.310923
vn 0.941531 0.000000 -0.336927
vn 0.941531 0.000000 -0.336927
vn 0.931911 0.000000 -0.362686
vn 0.931911 0.000000 -0.362686
vn 0.921589 0.000000 -0.388166
vn 0.921589 0.000000 -0.388166
vn 0.910572 0.000000 -0.413352
vn 0.910572 0.000000 -0.413352
vn 0.898866 0.000000 -0.438223
vn 0.898866 0.000000 -0.438223
vn 0.886477 0.000000 -0.462772
vn 0.886477 0.000000 -0.462772
vn 0.873422 0.000000 -0.486965
vn 0.873422 0.000000 -0.486965
vn 0.859706 0.000000 -0.510790
vn 0.859706 0.000000 -0.510790
vn 0.845342 0.000000 -0.534225
vn 0.845342 0.000000 -0.534225
vn 0.830335 0.000000 -0.557265
vn 0.830335 0.000000 -0.557265
vn 0.814707 0.000000 -0.579873
vn 0.814707 0.000000 -0.579873
vn 0.798454 0.000000 -0.602055
vn 0.798454 0.000000 -0.602055
vn 0.781601 0.000000 -0.623779
vn 0.781601 0.000000 -0.623779
vn 0.764165 0.000000 -0.645021
vn 0.764165 0.000000 -0.645021
vn 0.746141 0.000000 -0.665788
vn 0.746141 0.000000 -0.665788
vn 0.727560 0.000000 -0.686045
vn 0.727560 0.000000 -0.686045
vn 0.708424 0.000000 -0.705787
vn 0.708424 0.000000 -0.705787
vn 0.688755 0.000000 -0.724994
vn 0.688755 0.000000 -0.724994
vn 0.668564 0.000000 -0.743654
vn 0.668564 0.000000 -0.743654
vn 0.647868 0.000000 -0.761752
vn 0.647868 0.000000 -0.761752
vn 0.626691 0.000000 -0.779268
vn 0.626691 0.000000 -0.779268
vn 0.605026 0.000000 -0.796206
vn 0.605026 0.000000 -0.796206
vn 0.582914 0.000000 -0.812534
vn 0.582914 0.000000 -0.812534
vn 0.560356 0.000000 -0.828252
vn 0.560356 0.000000 -0.828252
vn 0.537379 0.000000 -0.843341
vn 0.537379 0.000000 -0.843341
vn 0.513988 0.000000 -0.857797
vn 0.513988 0.000000 -0.857797
vn 0.490222 0.000000 -0.871597
vn 0.490222 0.000000 -0.871597
vn 0.466070 0.000000 -0.884748
vn 0.441577 0.000000 -0.897223
vn 0.466070 0.000000 -0.884748
vn 0.441577 0.000000 -0.897223
vn 0.416750 0.000000 -0.909021
vn 0.416750 0.000000 -0.909021
vn 0.391601 0.000000 -0.920135
vn 0.391601 0.000000 -0.920135
vn 0.366151 0.000000 -0.930555
vn 0.366151 0.000000 -0.930555
vn 0.340445 0.000000 -0.940265
vn 0.314463 0.000000 -0.949270
vn 0.340445 0.000000 -0.940265
vn 0.314463 0.000000 -0.949270
vn 0.288249 0.000000 -0.957555
vn 0.288249 0.000000 -0.957555
vn 0.261826 0.000000 -0.965115
vn 0.261826 0.000000 -0.965115
vn 0.235185 0.000000 -0.971951
vn 0.235185 0.000000 -0.971951
vn 0.208393 0.000000 -0.978045
vn 0.181416 0.000000 -0.983406
vn 0.208393 0.000000 -0.978045
vn 0.181416 0.000000 -0.983406
vn 0.154323 0.000000 -0.988020
vn 0.154323 0.000000 -0.988020
vn 0.127092 0.000000 -0.991891
vn 0.127092 0.000000 -0.991891
vn 0.099791 0.000000 -0.995008
vn 0.099791 0.000000 -0.995008
vn 0.072398 0.000000 -0.997376
vn 0.072398 0.000000 -0.997376
vn 0.044958 0.000000 -0.998989
vn 0.044958 0.000000 -0.998989
vn 0.017472 0.000000 -0.999847
vn 0.017472 0.000000 -0.999847
vn -0.010014 0.000000 -0.999950
vn -0.037500 -0.000000 -0.999297
vn -0.010014 0.000000 -0.999950
vn -0.037500 0.000000 -0.999297
vn -0.064951 0.000000 -0.997889
vn -0.064951 0.000000 -0.997889
vn -0.092367 0.000000 -0.995725
vn -0.119691 -0.000000 -0.992811
vn -0.092367 0.000000 -0.995725
vn -0.119691 0.000000 -0.992811
vn 0.000000 -1.000000 0.000000
vn 0.000000 -1.000000 0.000000
vn 0.000000 -1.000000 0.000000
vn 0.000000 -1.000000 0.000000
vn 0.000000 -1.000000 0.000000
vn 0.000000 -1.000000 0.000000
vn 0.000000 -1.000000 0.000000
vn 0.000000 -1.000000 0.000000
vn 0.000000 -1.000000 0.000000
vn 0.000000 -1.000000 0.000000
vn 0.000000 -1.000000 0.000000
vn 0.000000 -1.000000 0.000000
vn 0.000000 -1.000000 0.000000
vn 0.000000 -1.000000 0.000000
vn 0.000000 -1.000000 0.000000
vn 0.000000 -1.000000 0.000000
vn 0.000000 -1.000000 0.000000
vn 0.000000 -1.000000 0.000000
vn 0.000000 -1.000000 0.000000
vn 0.000000 -1.000000 0.000000
vn 0.000000 -1.000000 0.000000
vn 0.000000 -1.000000 0.000000
vn 0.000000 -1.000000 0.000000
vn 0.000000 -1.000000 0.000000
vn 0.000000 -1.000000 0.000000
vn 0.000000 -1.000000 0.000000
vn 0.000000 -1.000000 0.000000
vn 0.000000 -1.000000 0.000000
vn 0.000000 -1.000000 0.000000
vn 0.000000 -1.000000 0.000000
vn 0.000000 -1.000000 0.000000
vn 0.000000 -1.000000 0.000000
vn 0.000000 -1.000000 0.000000
vn 0.000000 -1.000000 0.000000
vn 0.000000 -1.000000 0.000000
vn 0.000000 -1.000000 0.000000
vn 0.000000 -1.000000 0.000000
vn 0.000000 -1.000000 0.000000
vn 0.000000 -1.000000 0.000000
vn 0.000000 -1.000000 0.000000
vn 0.000000 -1.000000 0.000000
vn 0.000000 -1.000000 0.000000
vn 0.000000 -1.000000 0.000000
vn 0.000000 -1.000000 0.000000
vn 0.000000 -1.000000 0.000000
vn 0.000000 -1.000000 0.000000
vn 0.000000 -1.000000 0.000000
vn 0.000000 -1.000000 0.000000
vn 0.000000 -1.000000 0.000000
vn 0.000000 -1.000000 0.000000
vn 0.000000 -1.000000 0.000000
vn -0.000000 -1.000000 0.000000
vn -0.000000 -1.000000 0.000000
vn 0.000000 -1.000000 0.000000
vn 0.000000 -1.000000 0.000000
vn 0.000000 -1.000000 0.000000
vn 0.000000 -1.000000 0.000000
vn -0.000000 -1.000000 0.000000
vn 0.000000 -1.000000 0.000000
vn -0.000000 -1.000000 0.000000
vn 0.000000 -1.000000 0.000000
vn -0.000000 -1.000000 0.000000
vn -0.000000 -1.000000 0.000000
vn 0.000000 -1.000000 0.000000
vn -0.000000 -1.000000 0.000000
vn -0.000000 -1.000000 0.000000
vn -0.000000 -1.000000 0.000000
vn 0.000000 -1.000000 0.000000
vn 0.000000 -1.000000 0.000000
vn -0.000000 -1.000000 0.000000
vn 0.000000 -1.000000 0.000000
vn 0.000000 -1.000000 0.000000
vn -0.000000 -1.000000 0.000000
vn -0.000000 -1.000000 0.000000
vn 0.000000 -1.000000 0.000000
vn 0.000000 -1.000000 0.000000
vn 0.000000 -1.000000 0.000000
vn -0.000000 -1.000000 0.000000
vn 0.000000 -1.000000 0.000000
vn 0.000000 -1.000000 0.000000
vn -0.000000 -1.000000 0.000000
vn -0.000000 -1.000000 0.000000
vn -0.000000 -1.000000 0.000000
vn 0.000000 -1.000000 0.000000
vn -0.000000 -1.000000 0.000000
vn 0.000000 -1.000000 0.000000
vn -0.000000 -1.000000 0.000000
vn 0.000000 -1.000000 0.000000
vn 0.000000 -1.000000 0.000000
vn -0.000000 -1.000000 0.000000
vn -0.000000 -1.000000 0.000000
vn 0.000000 -1.000000 0.000000
vn 0.000000 -1.000000 0.000000
vn -0.000000 -1.000000 0.000000
vn 0.000000 -1.000000 0.000000
vn 0.000000 -1.000000 0.000000
vn 0.000000 -1.000000 0.000000
vn 0.000000 -1.000000 0.000000
vn 0.000000 -1.000000 0.000000
vn 0.000000 -1.000000 0.000000
vn 0.000000 -1.000000 0.000000
vn 0.000000 -1.000000 0.000000
vn 0.000000 -1.000000 0.000000
vn 0.000000 -1.000000 0.000000
vn 0.000000 -1.000000 0.000000
vn 0.000000 -1.000000 0.000000
vn -0.000000 -1.000000 0.000000
vn 0.000000 -1.000000 0.000000
vn 0.000000 -1.000000 -0.000000
vn 0.000000 -1.000000 0.000000
vn 0.000000 -1.000000 0.000000
vn 0.000000 -1.000000 0.000000
vn 0.000000 -1.000000 0.000000
vn -0.000000 -1.000000 0.000000
vn -0.000000 -1.000000 0.000000
vn 0.000000 -1.000000 0.000000
vn 0.000000 -1.000000 -0.000000
vn 0.000000 -1.000000 0.000000
vn -0.000000 -1.000000 0.000000
vn 0.000000 -1.000000 0.000000
vn -0.000000 -1.000000 0.000000
vn 0.000000 -1.000000 -0.000000
vn -0.000000 -1.000000 0.000000
vn 1.000000 0.000000 0.000000
vn 1.000000 -0.000000 0.000000
vn 0.000000 1.000000 0.000000
vn 0.000000 1.000000 0.000000
vn 0.000000 1.000000 0.000000
vn 0.000000 1.000000 0.000000
vn -0.000000 1.000000 0.000000
vn 0.000000 1.000000 0.000000
vn 1.000000 0.000000 0.000000
vn 1.000000 -0.000000 0.000000
vn -0.500000 0.500000 0.707106
vn -0.500000 0.500000 0.707107
vn -0.500000 -0.500000 0.707107
vn -0.500000 -0.500000 0.707107
vn 0.000000 0.000000 1.000000
vn 0.000000 0.000000 1.000000
vn 0.000000 0.000000 1.000000
vn -0.000000 0.000000 1.000000
vn 0.000000 0.000000 1.000000
vn 0.000000 0.000000 1.000000
vn -0.000000 0.000000 1.000000
vn 0.000000 0.000000 1.000000
vn 0.000000 0.000000 1.000000
vn -0.000000 0.000000 1.000000
vn 0.000000 0.000000 1.000000
vn 0.000000 0.000000 1.000000
vn 0.000000 -1.000000 0.000000
vn 0.000000 -1.000000 0.000000
vn 0.000000 0.000000 -1.000000
vn 0.000000 0.000000 -1.000000
vn 0.000000 0.000000 -1.000000
vn 0.000000 0.000000 -1.000000
vn -1.000000 0.000000 0.000000
vn -1.000000 0.000000 0.000000
vn -1.000000 0.000000 0.000000
vn -1.000000 0.000000 0.000000
vn -1.000000 0.000000 0.000000
vn -1.000000 0.000000 0.000000
vn -1.000000 0.000000 0.000000
vn -1.000000 0.000000 0.000000
vn -1.000000 0.000000 0.000000
vn -1.000000 0.000000 -0.000000
vn -1.000000 0.000000 0.000000
vn -1.000000 -0.000000 0.000000
vn 0.000000 0.000000 -1.000000
vn 0.000000 0.000000 -1.000000
vn 0.000000 0.000000 -1.000000
vn 0.000000 0.000000 -1.000000
vn -1.000000 0.000000 0.000000
vn -1.000000 0.000000 0.000000
vn 0.000000 0.707107 0.707107
vn 0.000000 0.707107 0.707107
vn 0.000000 -0.707107 0.707107
vn 0.000000 -0.707107 0.707107
vn 0.000000 0.000000 -1.000000
vn 0.000000 0.000000 -1.000000
vn 0.000000 -0.000000 -1.000000
vn 0.000000 0.000000 -1.000000
vn 0.000000 0.000000 -1.000000
vn -1.000000 0.000000 0.000000
vn -1.000000 0.000000 0.000000
vn 0.000000 0.000000 -1.000000
vn 0.000000 0.000000 -1.000000
vn 0.000000 0.707107 0.707107
vn 0.000000 0.707107 0.707107
vn 0.707107 0.707107 0.000000
vn 0.707107 0.707107 0.000000
vn 0.000000 -0.707107 0.707107
vn 0.000000 -0.707107 0.707107
vn 0.500000 -0.500000 0.707107
vn 0.500000 -0.500000 0.707107
vn 0.707107 0.000000 0.707107
vn 0.707107 -0.000000 0.707107
vn 0.500000 0.500000 0.707107
vn 0.500000 0.500001 0.707106
vn -0.707107 0.000000 0.707107
vn -0.707107 0.000000 0.707107
vn 0.707107 -0.707107 0.000000
vn 0.707107 -0.707107 0.000000
vn 0.707107 -0.707107 0.000000
vn 0.707107 -0.707107 0.000000
vn 0.000000 -1.000000 0.000000
vn 0.000000 -1.000000 0.000000
vn -0.000000 -1.000000 0.000000
vn 0.000000 -1.000000 0.000000
vn -0.707107 -0.000000 -0.707107
vn -0.707107 -0.000000 -0.707107
vn 0.000000 1.000000 0.000000
vn 0.000000 1.000000 0.000000
vn 0.000000 1.000000 0.000000
vn 0.000000 1.000000 0.000000
vn 0.000000 1.000000 0.000000
vn 0.000000 1.000000 0.000000
vn 0.000000 1.000000 0.000000
vn 0.000000 1.000000 0.000000
vn 0.000000 1.000000 0.000000
vn 0.000000 1.000000 0.000000
vn 0.000000 1.000000 0.000000
vn 0.000000 1.000000 0.000000
vn 0.000000 1.000000 0.000000
vn 0.000000 1.000000 0.000000
vn 0.000000 1.000000 0.000000
vn 0.000000 1.000000 0.000000
vn 0.000000 1.000000 0.000000
vn 0.000000 1.000000 0.000000
vn 0.000000 1.000000 0.000000
vn 0.000000 1.000000 0.000000
vn 0.000000 1.000000 0.000000
vn 0.000000 1.000000 0.000000
vn 0.000000 1.000000 0.000000
vn 0.000000 1.000000 0.000000
vn 0.000000 1.000000 0.000000
vn 0.000000 1.000000 0.000000
vn 0.000000 1.000000 0.000000
vn 0.000000 1.000000 0.000000
vn 0.000000 1.000000 0.000000
vn 0.000000 1.000000 0.000000
vn 0.000000 1.000000 0.000000
vn 0.000000 1.000000 0.000000
vn 0.000000 1.000000 0.000000
vn 0.000000 1.000000 0.000000
vn 0.000000 1.000000 0.000000
vn 0.000000 1.000000 0.000000
vn 0.000000 1.000000 0.000000
vn 0.000000 1.000000 0.000000
vn 0.000000 1.000000 0.000000
vn 0.000000 1.000000 -0.000000
vn 0.000000 1.000000 0.000000
vn 0.000000 1.000000 0.000000
vn 0.000000 1.000000 0.000000
vn 0.000000 1.000000 0.000000
vn 0.000000 1.000000 0.000000
vn 0.000000 1.000000 0.000000
vn 0.000000 1.000000 0.000000
vn 0.000000 1.000000 0.000000
vn 0.000000 1.000000 0.000000
vn 0.000000 1.000000 0.000000
vn 0.000000 1.000000 0.000000
vn 0.000000 1.000000 0.000000
vn 0.000000 1.000000 0.000000
vn 0.000000 1.000000 0.000000
vn 0.000000 1.000000 0.000000
vn 0.000000 1.000000 0.000000
vn 0.000000 1.000000 0.000000
vn 0.000000 1.000000 0.000000
vn 0.000000 1.000000 0.000000
vn 0.000000 1.000000 0.000000
vn 0.000000 1.000000 0.000000
vn 0.000000 1.000000 0.000000
vn 0.000000 1.000000 0.000000
vn 0.000000 1.000000 0.000000
vn 0.000000 1.000000 0.000000
vn 0.000000 1.000000 0.000000
vn 0.000000 1.000000 0.000000
vn 0.000000 1.000000 0.000000
vn 0.000000 1.000000 0.000000
vn 0.000000 1.000000 0.000000
vn 0.000000 1.000000 0.000000
vn 0.000000 1.000000 0.000000
vn 0.000000 1.000000 0.000000
vn 0.000000 1.000000 0.000000
vn 0.000000 1.000000 0.000000
vn 0.000000 1.000000 0.000000
vn 0.000000 1.000000 0.000000
vn 0.000000 1.000000 0.000000
vn 0.000000 1.000000 0.000000
vn 0.000000 1.000000 0.000000
vn 0.000000 1.000000 0.000000
vn 0.000000 1.000000 0.000000
vn 0.000000 1.000000 0.000000
vn 0.000000 1.000000 0.000000
vn 0.000000 1.000000 0.000000
vn 0.000000 1.000000 0.000000
vn 0.000000 1.000000 0.000000
vn 0.000000 1.000000 0.000000
vn 0.000000 1.000000 0.000000
vn 0.000000 1.000000 0.000000
vn 0.000000 1.000000 0.000000
vn 0.000000 1.000000 0.000000
vn 0.000000 1.000000 0.000000
vn 0.000000 1.000000 0.000000
vn 0.000000 1.000000 -0.000000
vn 0.000000 1.000000 0.000000
vn 0.000000 1.000000 0.000000
vn 0.000000 1.000000 0.000000
vn 0.000000 1.000000 -0.000000
vn 0.000000 1.000000 0.000000
vn 0.000000 1.000000 0.000000
vn 0.000000 1.000000 0.000000
vn 0.000000 1.000000 0.000000
vn 0.000000 1.000000 0.000000
vn 0.000000 1.000000 0.000000
vn 0.000000 1.000000 0.000000
vn 0.000000 1.000000 0.000000
vn 0.000000 1.000000 0.000000
vn 0.000000 1.000000 0.000000
vn 0.000000 1.000000 0.000000
vn 0.000000 1.000000 0.000000
vn 0.000000 1.000000 0.000000
vn 0.000000 1.000000 0.000000
vn 0.000000 1.000000 0.000000
vn 0.000000 1.000000 0.000000
vn 0.000000 1.000000 0.000000
vn 0.000000 1.000000 0.000000
vn 0.000000 1.000000 0.000000
vn 0.000000 1.000000 0.000000
vn 0.000000 1.000000 0.000000
vn 0.000000 1.000000 0.000000
vn 0.000000 1.000000 0.000000
vn 0.000000 1.000000 0.000000
vn 0.000000 1.000000 -0.000000
vn 0.000000 1.000000 0.000000
vn 0.000000 1.000000 0.000000
vn 0.000000 1.000000 0.000000
vn 0.119685 0.000000 -0.992812
vn 0.119685 0.000000 -0.992812
vn 0.092375 0.000000 -0.995724
vn 0.064946 0.000000 -0.997889
vn 0.092375 0.000000 -0.995724
vn 0.064946 0.000000 -0.997889
vn 0.037501 0.000000 -0.999297
vn 0.010013 0.000000 -0.999950
vn 0.037501 0.000000 -0.999297
vn -0.017472 -0.000000 -0.999847
vn 0.010013 0.000000 -0.999950
vn -0.017472 0.000000 -0.999847
vn -0.044959 0.000000 -0.998989
vn -0.044959 0.000000 -0.998989
vn -0.072399 0.000000 -0.997376
vn -0.072399 0.000000 -0.997376
vn -0.099788 0.000000 -0.995009
vn -0.127091 -0.000000 -0.991891
vn -0.099788 0.000000 -0.995009
vn -0.127091 0.000000 -0.991891
vn -0.154325 0.000000 -0.988020
vn -0.181420 -0.000000 -0.983406
vn -0.154325 0.000000 -0.988020
vn -0.181420 0.000000 -0.983406
vn -0.208389 0.000000 -0.978046
vn -0.208389 0.000000 -0.978046
vn -0.235183 -0.000000 -0.971951
vn -0.235183 0.000000 -0.971951
vn -0.261827 0.000000 -0.965115
vn -0.261827 0.000000 -0.965115
vn -0.288256 -0.000000 -0.957553
vn -0.288256 0.000000 -0.957553
vn -0.314468 0.000000 -0.949268
vn -0.314468 0.000000 -0.949268
vn -0.340441 0.000000 -0.940266
vn -0.340441 0.000000 -0.940266
vn -0.366147 0.000000 -0.930557
vn -0.366147 0.000000 -0.930557
vn -0.391593 0.000000 -0.920139
vn -0.391593 0.000000 -0.920139
vn -0.416755 0.000000 -0.909019
vn -0.416755 0.000000 -0.909019
vn -0.441580 0.000000 -0.897222
vn -0.441580 0.000000 -0.897222
vn -0.466077 0.000000 -0.884744
vn -0.466077 0.000000 -0.884744
vn -0.490206 -0.000000 -0.871606
vn -0.490206 0.000000 -0.871606
vn -0.514003 0.000000 -0.857789
vn -0.514003 0.000000 -0.857789
vn -0.537383 0.000000 -0.843338
vn -0.537383 0.000000 -0.843338
vn -0.560355 0.000000 -0.828252
vn -0.560355 0.000000 -0.828252
vn -0.582896 0.000000 -0.812547
vn -0.582896 0.000000 -0.812547
vn -0.605028 0.000000 -0.796204
vn -0.605028 0.000000 -0.796204
vn -0.626691 0.000000 -0.779268
vn -0.626691 0.000000 -0.779268
vn -0.647873 0.000000 -0.761749
vn -0.668563 -0.000000 -0.743655
vn -0.647873 0.000000 -0.761749
vn -0.668563 0.000000 -0.743655
vn -0.688766 0.000000 -0.724983
vn -0.688766 0.000000 -0.724983
vn -0.708406 0.000000 -0.705805
vn -0.727570 -0.000000 -0.686034
vn -0.708406 0.000000 -0.705805
vn -0.727570 0.000000 -0.686034
vn -0.746129 0.000000 -0.665801
vn -0.746129 0.000000 -0.665801
vn -0.764178 0.000000 -0.645006
vn -0.764178 0.000000 -0.645006
vn -0.781604 0.000000 -0.623775
vn -0.781604 0.000000 -0.623775
vn -0.798445 -0.000000 -0.602068
vn -0.798445 0.000000 -0.602068
vn -0.814708 0.000000 -0.579871
vn -0.814708 0.000000 -0.579871
vn -0.830339 -0.000000 -0.557259
vn -0.830339 0.000000 -0.557259
vn -0.845344 0.000000 -0.534223
vn -0.845344 0.000000 -0.534223
vn -0.859693 -0.000000 -0.510811
vn -0.859693 0.000000 -0.510811
vn -0.873426 0.000000 -0.486956
vn -0.873426 0.000000 -0.486956
vn -0.886481 -0.000000 -0.462765
vn -0.886481 0.000000 -0.462765
vn -0.898876 0.000000 -0.438204
vn -0.898876 0.000000 -0.438204
vn -0.910567 -0.000000 -0.413361
vn -0.910567 0.000000 -0.413361
vn -0.921594 -0.000000 -0.388156
vn -0.921594 0.000000 -0.388156
vn -0.931900 0.000000 -0.362714
vn -0.931900 0.000000 -0.362714
vn -0.941538 -0.000000 -0.336907
vn -0.941538 0.000000 -0.336907
vn -0.950438 0.000000 -0.310915
vn -0.950438 0.000000 -0.310915
vn -0.958621 -0.000000 -0.284685
vn -0.958621 0.000000 -0.284685
vn -0.966084 0.000000 -0.258230
vn -0.966084 0.000000 -0.258230
vn -0.972824 -0.000000 -0.231544
vn -0.972824 0.000000 -0.231544
vn -0.978812 0.000000 -0.204761
vn -0.978812 0.000000 -0.204761
vn -0.984076 -0.000000 -0.177750
vn -0.984076 0.000000 -0.177750
vn -0.988588 0.000000 -0.150646
vn -0.988588 0.000000 -0.150646
vn -0.992357 -0.000000 -0.123403
vn -0.992357 0.000000 -0.123403
vn -0.995375 0.000000 -0.096068
vn -0.997642 -0.000000 -0.068639
vn -0.995375 0.000000 -0.096068
vn -0.997642 0.000000 -0.068639
vn -0.999149 0.000000 -0.041258
vn -0.999906 -0.000000 -0.013737
vn -0.999149 0.000000 -0.041258
vn -0.999906 0.000000 -0.013737
vn -0.999906 0.000000 0.013737
vn -0.999906 0.000000 0.013737
vn -0.999149 0.000000 0.041258
vn -0.999149 0.000000 0.041258
vn -0.997642 0.000000 0.068640
vn -0.997642 0.000000 0.068640
vn -0.995375 0.000000 0.096067
vn -0.995375 0.000000 0.096067
vn -0.992357 0.000000 0.123403
vn -0.992357 0.000000 0.123403
vn -0.988588 0.000000 0.150646
vn -0.988588 0.000000 0.150646
vn -0.984076 0.000000 0.177751
vn -0.984076 0.000000 0.177751
vn -0.978812 0.000000 0.204761
vn -0.978812 0.000000 0.204761
vn -0.972825 0.000000 0.231543
vn -0.972825 0.000000 0.231543
vn -0.966084 0.000000 0.258230
vn -0.966084 0.000000 0.258230
vn -0.958621 0.000000 0.284687
vn -0.958621 0.000000 0.284687
vn -0.950438 0.000000 0.310914
vn -0.950438 0.000000 0.310914
vn -0.941537 0.000000 0.336911
vn -0.941537 0.000000 0.336911
vn -0.921594 0.000000 0.388156
vn -0.931901 0.000000 0.362712
vn -0.931901 0.000000 0.362712
vn -0.910567 0.000000 0.413361
vn -0.921594 0.000000 0.388156
vn -0.910567 0.000000 0.413361
vn -0.898874 0.000000 0.438206
vn -0.886482 0.000000 0.462763
vn -0.898874 0.000000 0.438206
vn -0.886482 0.000000 0.462763
vn -0.873428 0.000000 0.486954
vn -0.859693 0.000000 0.510811
vn -0.873428 0.000000 0.486954
vn -0.845342 0.000000 0.534225
vn -0.859693 0.000000 0.510811
vn -0.845342 0.000000 0.534225
vn -0.830340 0.000000 0.557257
vn -0.830340 0.000000 0.557257
vn -0.814704 0.000000 0.579877
vn -0.798445 0.000000 0.602068
vn -0.814704 0.000000 0.579877
vn -0.798445 0.000000 0.602068
vn -0.781608 0.000000 0.623770
vn -0.781608 0.000000 0.623770
vn -0.764175 0.000000 0.645008
vn -0.764175 0.000000 0.645008
vn -0.746129 0.000000 0.665801
vn -0.746129 0.000000 0.665801
vn -0.727567 0.000000 0.686037
vn -0.727567 0.000000 0.686037
vn -0.708406 0.000000 0.705805
vn -0.708406 0.000000 0.705805
vn -0.688770 0.000000 0.724980
vn -0.688770 0.000000 0.724980
vn -0.668563 0.000000 0.743655
vn -0.668563 0.000000 0.743655
vn -0.647876 0.000000 0.761746
vn -0.626688 0.000000 0.779271
vn -0.647876 0.000000 0.761746
vn -0.605028 0.000000 0.796204
vn -0.626688 0.000000 0.779271
vn -0.605028 0.000000 0.796204
vn -0.582896 0.000000 0.812547
vn -0.582896 0.000000 0.812547
vn -0.560355 0.000000 0.828252
vn -0.560355 0.000000 0.828252
vn -0.537383 0.000000 0.843338
vn -0.537383 0.000000 0.843338
vn -0.514007 0.000000 0.857786
vn -0.490202 0.000000 0.871609
vn -0.514007 0.000000 0.857786
vn -0.466077 0.000000 0.884744
vn -0.490202 0.000000 0.871609
vn -0.466077 0.000000 0.884744
vn -0.441580 0.000000 0.897222
vn -0.416750 0.000000 0.909021
vn -0.441580 0.000000 0.897222
vn -0.416750 0.000000 0.909021
vn -0.391593 0.000000 0.920139
vn -0.391593 0.000000 0.920139
vn -0.366152 0.000000 0.930555
vn -0.366152 0.000000 0.930555
vn -0.340441 0.000000 0.940266
vn -0.340441 0.000000 0.940266
vn -0.314468 0.000000 0.949268
vn -0.314468 0.000000 0.949268
vn -0.288256 0.000000 0.957553
vn -0.288256 0.000000 0.957553
vn -0.261821 0.000000 0.965116
vn -0.235188 0.000000 0.971950
vn -0.261821 0.000000 0.965116
vn -0.235188 0.000000 0.971950
vn -0.208383 0.000000 0.978047
vn -0.208383 0.000000 0.978047
vn -0.181425 0.000000 0.983405
vn -0.181425 0.000000 0.983405
vn -0.154319 0.000000 0.988021
vn -0.154319 0.000000 0.988021
vn -0.127102 0.000000 0.991890
vn -0.127102 0.000000 0.991890
vn -0.099782 0.000000 0.995009
vn -0.099782 0.000000 0.995009
vn -0.072399 0.000000 0.997376
vn -0.072399 0.000000 0.997376
vn -0.044959 0.000000 0.998989
vn -0.044959 0.000000 0.998989
vn -0.017472 0.000000 0.999847
vn -0.017472 0.000000 0.999847
vn 0.010013 -0.000000 0.999950
vn 0.010013 0.000000 0.999950
vn 0.037501 -0.000000 0.999297
vn 0.037501 0.000000 0.999297
vn 0.064952 -0.000000 0.997888
vn 0.064952 0.000000 0.997888
vn 0.092369 -0.000000 0.995725
vn 0.092369 0.000000 0.995725
vn 0.119690 0.000000 0.992811
vn 0.119690 0.000000 0.992811
vn 0.000000 -1.000000 0.000000
vn 0.000000 -1.000000 -0.000000
vn 0.000000 -1.000000 -0.000000
vn 0.000000 -1.000000 -0.000000
vn 0.000000 -1.000000 -0.000000
vn 0.000000 -1.000000 -0.000000
vn 0.000000 -1.000000 0.000000
vn 0.000000 -1.000000 -0.000000
vn 0.000000 -1.000000 0.000000
vn 0.000000 -1.000000 -0.000000
vn 0.000000 -1.000000 0.000000
vn 0.000000 -1.000000 -0.000000
vn 0.000000 -1.000000 0.000000
vn 0.000000 -1.000000 0.000000
vn 0.000000 -1.000000 0.000000
vn 0.000000 -1.000000 -0.000000
vn 0.000000 -1.000000 -0.000000
vn 0.000000 -1.000000 0.000000
vn 0.000000 -1.000000 0.000000
vn 0.000000 -1.000000 0.000000
vn 0.000000 -1.000000 0.000000
vn 0.000000 -1.000000 0.000000
vn 0.000000 -1.000000 0.000000
vn 0.000000 -1.000000 0.000000
vn 0.000000 -1.000000 0.000000
vn 0.000000 -1.000000 0.000000
vn 0.000000 -1.000000 0.000000
vn 0.000000 -1.000000 0.000000
vn 0.000000 -1.000000 0.000000
vn 0.000000 -1.000000 0.000000
vn 0.000000 -1.000000 0.000000
vn 0.000000 -1.000000 0.000000
vn 0.000000 -1.000000 0.000000
vn 0.000000 -1.000000 0.000000
vn 0.000000 -1.000000 -0.000000
vn 0.000000 -1.000000 0.000000
vn 0.000000 -1.000000 -0.000000
vn 0.000000 -1.000000 0.000000
vn 0.000000 -1.000000 0.000000
vn 0.000000 -1.000000 0.000000
vn 0.000000 -1.000000 -0.000000
vn 0.000000 -1.000000 0.000000
vn 0.000000 -1.000000 0.000000
vn 0.000000 -1.000000 0.000000
vn 0.000000 -1.000000 0.000000
vn 0.000000 -1.000000 0.000000
vn 0.000000 -1.000000 0.000000
vn 0.000000 -1.000000 0.000000
vn 0.000000 -1.000000 0.000000
vn 0.000000 -1.000000 -0.000000
vn 0.000000 -1.000000 -0.000000
vn 0.000000 -1.000000 -0.000000
vn 0.000000 -1.000000 -0.000000
vn 0.000000 -1.000000 -0.000000
vn 0.000000 -1.000000 -0.000000
vn 0.000000 -1.000000 -0.000000
vn 0.000000 -1.000000 -0.000000
vn 0.000000 -1.000000 -0.000000
vn 0.000000 -1.000000 -0.000000
vn 0.000000 -1.000000 -0.000000
vn 0.000000 -1.000000 0.000000
vn 0.000000 -1.000000 -0.000000
vn 0.000000 -1.000000 -0.000000
vn 0.000000 -1.000000 -0.000000
vn 0.000000 -1.000000 0.000000
vn 0.000000 -1.000000 0.000000
vn 0.000000 -1.000000 0.000000
vn 0.000000 -1.000000 0.000000
vn 0.000000 -1.000000 0.000000
vn 0.000000 -1.000000 0.000000
vn 0.000000 -1.000000 0.000000
vn 0.000000 -1.000000 0.000000
vn 0.000000 -1.000000 0.000000
vn 0.000000 -1.000000 0.000000
vn 0.000000 -1.000000 0.000000
vn 0.000000 -1.000000 0.000000
vn 0.000000 -1.000000 0.000000
vn 0.000000 -1.000000 0.000000
vn 0.000000 -1.000000 0.000000
vn 0.000000 -1.000000 0.000000
vn 0.000000 -1.000000 0.000000
vn 0.000000 -1.000000 0.000000
vn 0.000000 -1.000000 0.000000
vn 0.000000 -1.000000 0.000000
vn 0.000000 -1.000000 0.000000
vn 0.000000 -1.000000 -0.000000
vn 0.000000 -1.000000 0.000000
vn 0.000000 -1.000000 -0.000000
vn 0.000000 -1.000000 -0.000000
vn 0.000000 -1.000000 0.000000
vn 0.000000 -1.000000 0.000000
vn 0.000000 -1.000000 0.000000
vn 0.000000 -1.000000 0.000000
vn 0.000000 -1.000000 0.000000
vn 0.000000 -1.000000 0.000000
vn 0.000000 -1.000000 -0.000000
vn 0.000000 -1.000000 -0.000000
vn 0.000000 -1.000000 0.000000
vn 0.000000 -1.000000 0.000000
vn 0.000000 -1.000000 0.000000
vn 0.000000 -1.000000 0.000000
vn 0.000000 -1.000000 0.000000
vn 0.000000 -1.000000 0.000000
vn 0.000000 -1.000000 0.000000
vn 0.000000 -1.000000 0.000000
vn 0.000000 -1.000000 0.000000
vn 0.000000 -1.000000 0.000000
vn 0.000000 -1.000000 0.000000
vn 0.000000 -1.000000 0.000000
vn 0.000000 -1.000000 0.000000
vn 0.000000 -1.000000 0.000000
vn -0.000000 -1.000000 0.000000
vn 0.000000 -1.000000 0.000000
vn 0.000000 -1.000000 0.000000
vn -0.000000 -1.000000 0.000000
vn 0.000000 -1.000000 0.000000
vn 0.000000 -1.000000 0.000000
vn 0.000000 -1.000000 0.000000
vn 0.000000 -1.000000 0.000000
vn 0.000000 -1.000000 0.000000
vn 0.000000 -1.000000 0.000000
vn 0.000000 -1.000000 0.000000
vn 0.000000 -1.000000 0.000000
vn 1.000000 0.000000 0.000000
vn 1.000000 0.000000 0.000000
vn 1.000000 -0.000000 0.000000
vn 1.000000 0.000000 0.000000
vn 1.000000 0.000000 0.000000
vn 1.000000 -0.000000 0.000000
vn 0.000000 0.000000 -1.000000
vn 0.000000 0.000000 -1.000000
vn 0.707107 0.000000 -0.707107
vn 0.707107 0.000000 -0.707107
f 1//1 2//1 3//1
f 3//2 2//2 4//2
f 4//3 5//3 6//3
f 2//4 5//4 4//4
f 7//5 8//5 3//5
f 3//6 8//6 1//6
f 4//7 7//7 3//7
f 4//8 9//8 7//8
f 10//9 11//9 12//9
f 10//10 13//10 11//10
f 14//11 15//11 16//11
f 6//12 15//12 14//12
f 17//13 15//13 6//13
f 4//14 14//14 9//14
f 4//15 6//15 14//15
f 18//16 17//16 6//16
f 19//17 20//17 11//17
f 21//18 22//18 23//18
f 24//19 19//19 22//19
f 24//20 12//20 25//20
f 26//21 27//21 5//21
f 26//22 24//22 22//22
f 26//23 22//23 21//23
f 26//24 5//24 24//24
f 5//25 12//25 24//25
f 12//26 11//26 20//26
f 12//27 20//27 25//27
f 11//28 22//28 19//28
f 28//29 29//29 18//29
f 27//30 28//30 18//30
f 6//31 5//31 27//31
f 6//32 27//32 18//32
f 30//33 8//33 7//33
f 30//34 7//34 9//34
f 22//35 9//35 14//35
f 22//36 30//36 9//36
f 14//37 23//37 22//37
f 31//38 32//38 23//38
f 16//39 23//39 14//39
f 33//40 31//40 23//40
f 33//41 23//41 16//41
f 34//42 16//42 15//42
f 34//43 33//43 16//43
f 15//44 17//44 35//44
f 15//45 35//45 36//45
f 18//46 37//46 17//46
f 29//47 37//47 18//47
f 38//48 39//48 37//48
f 37//49 39//49 17//49
f 40//50 28//50 27//50
f 26//51 40//51 27//51
f 41//52 42//52 43//52
f 41//53 40//53 26//53
f 44//54 42//54 41//54
f 44//55 41//55 26//55
f 26//56 45//56 46//56
f 26//57 21//57 45//57
f 32//58 47//58 23//58
f 23//59 47//59 21//59
f 48//60 49//60 50//60
f 48//61 51//61 49//61
f 51//62 21//62 49//62
f 49//63 21//63 47//63
f 52//64 53//64 54//64
f 55//65 56//65 57//65
f 58//66 55//66 59//66
f 60//67 58//67 61//67
f 62//68 60//68 63//68
f 62//69 55//69 58//69
f 62//70 58//70 60//70
f 64//71 62//71 65//71
f 64//72 65//72 66//72
f 67//73 52//73 68//73
f 67//74 68//74 69//74
f 67//75 69//75 56//75
f 67//76 64//76 70//76
f 67//77 70//77 71//77
f 67//78 56//78 55//78
f 67//79 62//79 64//79
f 67//80 55//80 62//80
f 72//81 67//81 73//81
f 72//82 73//82 74//82
f 75//83 72//83 76//83
f 75//84 76//84 77//84
f 75//85 67//85 72//85
f 78//86 67//86 75//86
f 79//87 78//87 80//87
f 79//88 80//88 81//88
f 82//89 78//89 79//89
f 83//90 82//90 84//90
f 85//91 83//91 86//91
f 85//92 86//92 87//92
f 88//93 85//93 89//93
f 90//94 82//94 83//94
f 90//95 85//95 88//95
f 90//96 83//96 85//96
f 91//97 82//97 90//97
f 91//98 90//98 92//98
f 91//99 92//99 93//99
f 94//100 91//100 95//100
f 96//101 91//101 94//101
f 97//102 96//102 98//102
f 99//103 96//103 97//103
f 100//104 96//104 99//104
f 101//105 20//105 19//105
f 102//106 100//106 103//106
f 104//107 19//107 105//107
f 104//108 106//108 101//108
f 104//109 101//109 19//109
f 107//110 96//110 100//110
f 107//111 100//111 102//111
f 108//112 96//112 107//112
f 109//113 108//113 110//113
f 111//114 108//114 109//114
f 112//115 113//115 114//115
f 112//116 114//116 115//116
f 116//117 108//117 111//117
f 117//118 91//118 96//118
f 117//119 96//119 108//119
f 117//120 108//120 116//120
f 118//121 119//121 120//121
f 121//122 117//122 122//122
f 123//123 118//123 120//123
f 124//124 117//124 121//124
f 125//125 126//125 123//125
f 125//126 123//126 120//126
f 127//127 124//127 128//127
f 129//128 120//128 112//128
f 129//129 112//129 115//129
f 129//130 125//130 120//130
f 130//131 124//131 127//131
f 131//132 115//132 132//132
f 131//133 129//133 115//133
f 133//134 124//134 130//134
f 133//135 117//135 124//135
f 134//136 135//136 131//136
f 134//137 131//137 132//137
f 136//138 137//138 138//138
f 139//139 137//139 136//139
f 139//140 133//140 137//140
f 140//141 141//141 142//141
f 143//142 133//142 139//142
f 144//143 133//143 143//143
f 145//144 146//144 140//144
f 145//145 142//145 134//145
f 145//146 140//146 142//146
f 147//147 133//147 144//147
f 148//148 149//148 145//148
f 150//149 147//149 151//149
f 152//150 153//150 148//150
f 154//151 150//151 155//151
f 154//152 155//152 156//152
f 157//153 158//153 152//153
f 159//154 157//154 152//154
f 160//155 150//155 154//155
f 160//156 154//156 161//156
f 162//157 159//157 152//157
f 163//158 160//158 164//158
f 165//159 67//159 78//159
f 165//160 105//160 166//160
f 165//161 166//161 167//161
f 165//162 167//162 168//162
f 165//163 168//163 169//163
f 165//164 169//164 170//164
f 165//165 170//165 171//165
f 165//166 171//166 172//166
f 165//167 172//167 173//167
f 165//168 117//168 133//168
f 165//169 173//169 53//169
f 165//170 134//170 132//170
f 165//171 132//171 104//171
f 165//172 82//172 91//172
f 165//173 133//173 147//173
f 165//174 104//174 105//174
f 165//175 147//175 150//175
f 165//176 53//176 52//176
f 165//177 148//177 145//177
f 165//178 152//178 148//178
f 165//179 150//179 160//179
f 165//180 91//180 117//180
f 165//181 52//181 67//181
f 165//182 162//182 152//182
f 165//183 160//183 163//183
f 165//184 145//184 134//184
f 165//185 78//185 82//185
f 165//186 174//186 162//186
f 24//187 175//187 19//187
f 19//188 175//188 105//188
f 105//189 176//189 166//189
f 166//190 176//190 167//190
f 175//191 176//191 105//191
f 176//192 177//192 167//192
f 167//193 178//193 168//193
f 177//194 178//194 167//194
f 168//195 179//195 169//195
f 178//196 179//196 168//196
f 169//197 180//197 170//197
f 179//198 180//198 169//198
f 170//199 181//199 171//199
f 180//200 181//200 170//200
f 171//201 182//201 172//201
f 181//202 182//202 171//202
f 172//203 183//203 173//203
f 182//204 183//204 172//204
f 173//205 184//205 53//205
f 183//206 184//206 173//206
f 53//207 185//207 54//207
f 54//208 185//208 52//208
f 184//209 185//209 53//209
f 185//210 186//210 52//210
f 186//211 187//211 52//211
f 52//212 187//212 68//212
f 187//213 188//213 68//213
f 68//214 188//214 69//214
f 69//215 188//215 56//215
f 188//216 189//216 56//216
f 56//217 190//217 57//217
f 189//218 190//218 56//218
f 57//219 191//219 55//219
f 190//220 191//220 57//220
f 55//221 192//221 59//221
f 191//222 192//222 55//222
f 59//223 193//223 58//223
f 58//224 193//224 61//224
f 192//225 193//225 59//225
f 61//226 194//226 60//226
f 193//227 194//227 61//227
f 194//228 195//228 60//228
f 60//229 196//229 63//229
f 195//230 196//230 60//230
f 63//231 197//231 62//231
f 62//232 197//232 65//232
f 196//233 197//233 63//233
f 197//234 198//234 65//234
f 65//235 199//235 66//235
f 198//236 199//236 65//236
f 66//237 200//237 64//237
f 199//238 200//238 66//238
f 64//239 201//239 70//239
f 200//240 201//240 64//240
f 70//241 202//241 71//241
f 71//242 202//242 67//242
f 201//243 202//243 70//243
f 67//244 203//244 73//244
f 202//245 203//245 67//245
f 203//246 204//246 73//246
f 73//247 205//247 74//247
f 74//248 205//248 72//248
f 204//249 205//249 73//249
f 205//250 206//250 72//250
f 72//251 207//251 76//251
f 206//252 207//252 72//252
f 76//253 208//253 77//253
f 207//254 208//254 76//254
f 77//255 209//255 75//255
f 208//256 209//256 77//256
f 75//257 210//257 78//257
f 78//258 210//258 80//258
f 209//259 210//259 75//259
f 210//260 211//260 80//260
f 211//261 212//261 80//261
f 80//262 212//262 81//262
f 81//263 212//263 79//263
f 212//264 213//264 79//264
f 213//265 214//265 79//265
f 79//266 214//266 82//266
f 214//267 215//267 82//267
f 82//268 215//268 84//268
f 84//269 215//269 83//269
f 215//270 216//270 83//270
f 216//271 217//271 83//271
f 83//272 217//272 86//272
f 86//273 217//273 87//273
f 217//274 218//274 87//274
f 87//275 218//275 85//275
f 218//276 219//276 85//276
f 219//277 220//277 85//277
f 85//278 220//278 89//278
f 89//279 220//279 88//279
f 220//280 221//280 88//280
f 221//281 222//281 88//281
f 88//282 222//282 90//282
f 222//283 223//283 90//283
f 90//284 223//284 92//284
f 92//285 224//285 93//285
f 223//286 224//286 92//286
f 93//287 225//287 91//287
f 91//288 225//288 95//288
f 224//289 225//289 93//289
f 225//290 226//290 95//290
f 95//291 227//291 94//291
f 94//292 227//292 96//292
f 226//293 227//293 95//293
f 227//294 228//294 96//294
f 96//295 229//295 98//295
f 228//296 229//296 96//296
f 98//297 230//297 97//297
f 97//298 230//298 99//298
f 229//299 230//299 98//299
f 99//300 231//300 100//300
f 230//301 231//301 99//301
f 100//302 232//302 103//302
f 231//303 232//303 100//303
f 103//304 233//304 102//304
f 232//305 233//305 103//305
f 233//306 234//306 102//306
f 102//307 235//307 107//307
f 107//308 235//308 108//308
f 234//309 235//309 102//309
f 235//310 236//310 108//310
f 236//311 237//311 108//311
f 108//312 237//312 110//312
f 110//313 237//313 109//313
f 237//314 238//314 109//314
f 238//315 239//315 109//315
f 109//316 239//316 111//316
f 239//317 240//317 111//317
f 111//318 240//318 116//318
f 240//319 241//319 116//319
f 116//320 241//320 117//320
f 117//321 241//321 122//321
f 241//322 242//322 122//322
f 122//323 242//323 121//323
f 242//324 243//324 121//324
f 243//325 244//325 121//325
f 121//326 244//326 124//326
f 124//327 244//327 128//327
f 244//328 245//328 128//328
f 128//329 245//329 127//329
f 245//330 246//330 127//330
f 246//331 247//331 127//331
f 127//332 247//332 130//332
f 247//333 248//333 130//333
f 130//334 248//334 133//334
f 248//335 249//335 133//335
f 133//336 249//336 137//336
f 137//337 249//337 138//337
f 249//338 250//338 138//338
f 250//339 251//339 138//339
f 138//340 251//340 136//340
f 251//341 252//341 136//341
f 136//342 252//342 139//342
f 139//343 252//343 143//343
f 252//344 253//344 143//344
f 253//345 254//345 143//345
f 143//346 254//346 144//346
f 254//347 255//347 144//347
f 144//348 255//348 147//348
f 147//349 255//349 151//349
f 255//350 256//350 151//350
f 151//351 256//351 150//351
f 256//352 257//352 150//352
f 257//353 258//353 150//353
f 150//354 258//354 155//354
f 155//355 258//355 156//355
f 258//356 259//356 156//356
f 156//357 260//357 154//357
f 259//358 260//358 156//358
f 154//359 261//359 161//359
f 260//360 261//360 154//360
f 161//361 262//361 160//361
f 261//362 262//362 161//362
f 262//363 263//363 160//363
f 160//364 263//364 164//364
f 164//365 263//365 163//365
f 263//366 264//366 163//366
f 264//367 265//367 163//367
f 163//368 265//368 165//368
f 265//369 266//369 165//369
f 165//370 266//370 174//370
f 266//371 267//371 174//371
f 174//372 267//372 162//372
f 267//373 268//373 162//373
f 162//374 268//374 159//374
f 159//375 268//375 157//375
f 268//376 269//376 157//376
f 269//377 270//377 157//377
f 157//378 270//378 158//378
f 270//379 271//379 158//379
f 158//380 271//380 152//380
f 271//381 272//381 152//381
f 152//382 272//382 153//382
f 272//383 273//383 153//383
f 153//384 273//384 148//384
f 148//385 274//385 149//385
f 273//386 274//386 148//386
f 149//387 275//387 145//387
f 274//388 275//388 149//388
f 145//389 276//389 146//389
f 146//390 276//390 140//390
f 275//391 276//391 145//391
f 276//392 277//392 140//392
f 140//393 278//393 141//393
f 277//394 278//394 140//394
f 141//395 279//395 142//395
f 278//396 279//396 141//396
f 142//397 280//397 134//397
f 279//398 280//398 142//398
f 134//399 281//399 135//399
f 135//400 281//400 131//400
f 280//401 281//401 134//401
f 281//402 282//402 131//402
f 131//403 283//403 129//403
f 282//404 283//404 131//404
f 129//405 284//405 125//405
f 283//406 284//406 129//406
f 125//407 285//407 126//407
f 284//408 285//408 125//408
f 126//409 286//409 123//409
f 123//410 286//410 118//410
f 285//411 286//411 126//411
f 286//412 287//412 118//412
f 287//413 288//413 118//413
f 118//414 288//414 119//414
f 119//415 288//415 120//415
f 288//416 289//416 120//416
f 120//417 289//417 112//417
f 289//418 290//418 112//418
f 112//419 290//419 113//419
f 290//420 291//420 113//420
f 113//421 292//421 114//421
f 291//422 292//422 113//422
f 114//423 293//423 115//423
f 292//424 293//424 114//424
f 115//425 294//425 132//425
f 132//426 294//426 104//426
f 293//427 294//427 115//427
f 294//428 295//428 104//428
f 104//429 296//429 106//429
f 295//430 296//430 104//430
f 106//431 297//431 101//431
f 101//432 297//432 20//432
f 296//433 297//433 106//433
f 297//434 25//434 20//434
f 184//435 186//435 185//435
f 189//436 191//436 190//436
f 191//437 193//437 192//437
f 193//438 195//438 194//438
f 195//439 197//439 196//439
f 191//440 197//440 193//440
f 193//441 197//441 195//441
f 197//442 200//442 198//442
f 198//443 200//443 199//443
f 186//444 203//444 187//444
f 187//445 203//445 188//445
f 188//446 203//446 189//446
f 200//447 203//447 201//447
f 201//448 203//448 202//448
f 189//449 203//449 191//449
f 197//450 203//450 200//450
f 191//451 203//451 197//451
f 203//452 206//452 204//452
f 204//453 206//453 205//453
f 206//454 209//454 207//454
f 207//455 209//455 208//455
f 203//456 209//456 206//456
f 203//457 210//457 209//457
f 210//458 213//458 211//458
f 211//459 213//459 212//459
f 210//460 214//460 213//460
f 214//461 216//461 215//461
f 216//462 219//462 217//462
f 217//463 219//463 218//463
f 219//464 221//464 220//464
f 214//465 222//465 216//465
f 219//466 222//466 221//466
f 216//467 222//467 219//467
f 214//468 225//468 222//468
f 222//469 225//469 223//469
f 223//470 225//470 224//470
f 225//471 227//471 226//471
f 225//472 228//472 227//472
f 228//473 230//473 229//473
f 228//474 231//474 230//474
f 228//475 232//475 231//475
f 25//476 297//476 24//476
f 232//477 234//477 233//477
f 24//478 295//478 175//478
f 296//479 295//479 297//479
f 297//480 295//480 24//480
f 228//481 235//481 232//481
f 232//482 235//482 234//482
f 228//483 236//483 235//483
f 236//484 238//484 237//484
f 236//485 239//485 238//485
f 291//486 290//486 292//486
f 292//487 290//487 293//487
f 236//488 240//488 239//488
f 225//489 241//489 228//489
f 228//490 241//490 236//490
f 236//491 241//491 240//491
f 288//492 287//492 289//492
f 241//493 243//493 242//493
f 287//494 286//494 289//494
f 241//495 244//495 243//495
f 285//496 284//496 286//496
f 286//497 284//497 289//497
f 244//498 246//498 245//498
f 289//499 283//499 290//499
f 290//500 283//500 293//500
f 284//501 283//501 289//501
f 244//502 247//502 246//502
f 293//503 282//503 294//503
f 283//504 282//504 293//504
f 244//505 248//505 247//505
f 241//506 248//506 244//506
f 281//507 280//507 282//507
f 282//508 280//508 294//508
f 249//509 251//509 250//509
f 249//510 252//510 251//510
f 248//511 252//511 249//511
f 278//512 277//512 279//512
f 248//513 253//513 252//513
f 248//514 254//514 253//514
f 276//515 275//515 277//515
f 279//516 275//516 280//516
f 277//517 275//517 279//517
f 248//518 255//518 254//518
f 274//519 273//519 275//519
f 255//520 257//520 256//520
f 272//521 271//521 273//521
f 257//522 260//522 258//522
f 258//523 260//523 259//523
f 270//524 269//524 271//524
f 269//525 268//525 271//525
f 257//526 262//526 260//526
f 260//527 262//527 261//527
f 268//528 267//528 271//528
f 262//529 264//529 263//529
f 203//530 265//530 210//530
f 175//531 265//531 176//531
f 176//532 265//532 177//532
f 177//533 265//533 178//533
f 178//534 265//534 179//534
f 179//535 265//535 180//535
f 180//536 265//536 181//536
f 181//537 265//537 182//537
f 182//538 265//538 183//538
f 241//539 265//539 248//539
f 183//540 265//540 184//540
f 280//541 265//541 294//541
f 294//542 265//542 295//542
f 214//543 265//543 225//543
f 248//544 265//544 255//544
f 295//545 265//545 175//545
f 255//546 265//546 257//546
f 184//547 265//547 186//547
f 273//548 265//548 275//548
f 271//549 265//549 273//549
f 257//550 265//550 262//550
f 225//551 265//551 241//551
f 186//552 265//552 203//552
f 267//553 265//553 271//553
f 262//554 265//554 264//554
f 275//555 265//555 280//555
f 210//556 265//556 214//556
f 266//557 265//557 267//557
f 37//558 29//558 28//558
f 37//559 28//559 40//559
f 298//560 33//560 34//560
f 298//561 31//561 33//561
f 299//562 300//562 301//562
f 302//563 300//563 299//563
f 34//564 302//564 298//564
f 298//565 302//565 299//565
f 47//566 32//566 31//566
f 47//567 31//567 298//567
f 34//568 15//568 36//568
f 34//569 36//569 303//569
f 17//570 39//570 35//570
f 35//571 39//571 304//571
f 305//572 306//572 307//572
f 304//573 306//573 305//573
f 308//574 305//574 307//574
f 309//575 305//575 308//575
f 310//576 309//576 308//576
f 46//577 35//577 304//577
f 46//578 304//578 305//578
f 36//579 46//579 45//579
f 303//580 45//580 309//580
f 303//581 309//581 310//581
f 303//582 36//582 45//582
f 36//583 35//583 46//583
f 38//584 311//584 39//584
f 312//585 311//585 38//585
f 37//586 40//586 38//586
f 38//587 41//587 312//587
f 312//588 41//588 313//588
f 40//589 41//589 38//589
f 314//590 51//590 48//590
f 315//591 316//591 317//591
f 44//592 51//592 314//592
f 318//593 314//593 316//593
f 318//594 44//594 314//594
f 318//595 319//595 44//595
f 42//596 44//596 319//596
f 320//597 318//597 321//597
f 320//598 319//598 318//598
f 314//599 317//599 316//599
f 317//600 320//600 315//600
f 315//601 320//601 321//601
f 42//602 322//602 323//602
f 43//603 323//603 324//603
f 43//604 42//604 323//604
f 319//605 322//605 42//605
f 324//606 313//606 43//606
f 43//607 313//607 41//607
f 305//608 26//608 46//608
f 44//609 26//609 305//609
f 21//610 309//610 45//610
f 21//611 51//611 309//611
f 48//612 325//612 326//612
f 48//613 326//613 314//613
f 300//614 325//614 48//614
f 301//615 48//615 50//615
f 301//616 300//616 48//616
f 50//617 49//617 301//617
f 301//618 49//618 299//618
f 298//619 299//619 47//619
f 47//620 299//620 49//620
f 310//621 34//621 303//621
f 302//622 34//622 310//622
f 302//623 325//623 300//623
f 327//624 325//624 302//624
f 39//625 311//625 304//625
f 304//626 311//626 306//626
f 311//627 328//627 306//627
f 306//628 328//628 307//628
f 328//629 308//629 307//629
f 328//630 327//630 308//630
f 327//631 302//631 310//631
f 327//632 310//632 308//632
f 309//633 44//633 305//633
f 51//634 44//634 309//634
f 312//635 313//635 311//635
f 324//636 323//636 313//636
f 323//637 328//637 313//637
f 313//638 328//638 311//638
f 329//639 330//639 320//639
f 330//640 331//640 320//640
f 331//641 319//641 320//641
f 331//642 322//642 319//642
f 317//643 329//643 320//643
f 332//644 329//644 317//644
f 333//645 332//645 317//645
f 334//646 333//646 317//646
f 314//647 334//647 317//647
f 326//648 334//648 314//648
f 335//649 336//649 337//649
f 338//650 339//650 340//650
f 338//651 340//651 341//651
f 338//652 341//652 342//652
f 343//653 344//653 345//653
f 343//654 345//654 338//654
f 346//655 347//655 348//655
f 349//656 350//656 351//656
f 352//657 346//657 353//657
f 354//658 355//658 349//658
f 356//659 346//659 352//659
f 357//660 358//660 359//660
f 360//661 361//661 362//661
f 363//662 361//662 360//662
f 363//663 364//663 361//663
f 365//664 366//664 367//664
f 365//665 367//665 357//665
f 368//666 369//666 370//666
f 368//667 370//667 347//667
f 368//668 356//668 371//668
f 368//669 371//669 364//669
f 368//670 363//670 372//670
f 368//671 347//671 346//671
f 368//672 364//672 363//672
f 368//673 346//673 356//673
f 368//674 373//674 369//674
f 374//675 375//675 376//675
f 374//676 376//676 377//676
f 378//677 379//677 380//677
f 378//678 380//678 381//678
f 316//679 382//679 375//679
f 316//680 374//680 383//680
f 316//681 375//681 374//681
f 384//682 385//682 378//682
f 386//683 336//683 335//683
f 386//684 365//684 357//684
f 386//685 338//685 342//685
f 386//686 387//686 388//686
f 386//687 388//687 384//687
f 386//688 381//688 389//688
f 386//689 343//689 338//689
f 386//690 389//690 390//690
f 386//691 390//691 391//691
f 386//692 384//692 378//692
f 386//693 391//693 392//693
f 386//694 392//694 393//694
f 386//695 393//695 394//695
f 386//696 394//696 395//696
f 386//697 395//697 365//697
f 386//698 357//698 359//698
f 386//699 359//699 396//699
f 386//700 396//700 354//700
f 386//701 349//701 351//701
f 386//702 354//702 349//702
f 386//703 351//703 343//703
f 386//704 342//704 397//704
f 386//705 397//705 398//705
f 386//706 398//706 399//706
f 386//707 399//707 400//707
f 386//708 400//708 336//708
f 386//709 378//709 381//709
f 386//710 335//710 401//710
f 386//711 401//711 402//711
f 386//712 402//712 373//712
f 403//713 404//713 405//713
f 406//714 403//714 405//714
f 407//715 408//715 406//715
f 407//716 406//716 405//716
f 409//717 405//717 410//717
f 409//718 410//718 411//718
f 409//719 411//719 412//719
f 409//720 407//720 405//720
f 413//721 414//721 409//721
f 415//722 412//722 386//722
f 415//723 409//723 412//723
f 415//724 413//724 409//724
f 416//725 417//725 415//725
f 418//726 416//726 415//726
f 419//727 420//727 421//727
f 419//728 421//728 418//728
f 422//729 419//729 418//729
f 423//730 422//730 418//730
f 424//731 418//731 415//731
f 424//732 423//732 418//732
f 424//733 425//733 423//733
f 426//734 373//734 368//734
f 426//735 424//735 415//735
f 426//736 368//736 427//736
f 426//737 427//737 428//737
f 426//738 429//738 424//738
f 426//739 386//739 373//739
f 426//740 415//740 386//740
f 430//741 431//741 426//741
f 432//742 430//742 426//742
f 433//743 426//743 428//743
f 433//744 428//744 434//744
f 433//745 434//745 382//745
f 433//746 432//746 426//746
f 435//747 436//747 433//747
f 437//748 435//748 433//748
f 438//749 439//749 437//749
f 438//750 437//750 433//750
f 440//751 441//751 438//751
f 442//752 438//752 433//752
f 442//753 440//753 438//753
f 443//754 444//754 445//754
f 443//755 445//755 442//755
f 446//756 447//756 443//756
f 448//757 449//757 446//757
f 448//758 446//758 443//758
f 450//759 451//759 448//759
f 452//760 453//760 454//760
f 452//761 454//761 455//761
f 452//762 455//762 450//762
f 456//763 457//763 452//763
f 456//764 450//764 448//764
f 456//765 452//765 450//765
f 315//766 433//766 382//766
f 315//767 442//767 433//767
f 315//768 382//768 316//768
f 315//769 443//769 442//769
f 315//770 448//770 443//770
f 315//771 456//771 448//771
f 321//772 458//772 315//772
f 315//773 458//773 456//773
f 456//774 459//774 457//774
f 457//775 459//775 452//775
f 458//776 459//776 456//776
f 459//777 460//777 452//777
f 452//778 461//778 453//778
f 453//779 461//779 454//779
f 460//780 461//780 452//780
f 454//781 462//781 455//781
f 461//782 462//782 454//782
f 462//783 463//783 455//783
f 455//784 464//784 450//784
f 463//785 464//785 455//785
f 450//786 465//786 451//786
f 464//787 465//787 450//787
f 451//788 466//788 448//788
f 448//789 466//789 449//789
f 465//790 466//790 451//790
f 466//791 467//791 449//791
f 449//792 468//792 446//792
f 446//793 468//793 447//793
f 467//794 468//794 449//794
f 468//795 469//795 447//795
f 469//796 470//796 447//796
f 447//797 470//797 443//797
f 443//798 470//798 444//798
f 470//799 471//799 444//799
f 471//800 472//800 444//800
f 444//801 472//801 445//801
f 445//802 472//802 442//802
f 472//803 473//803 442//803
f 473//804 474//804 442//804
f 442//805 474//805 440//805
f 474//806 475//806 440//806
f 440//807 475//807 441//807
f 475//808 476//808 441//808
f 441//809 476//809 438//809
f 476//810 477//810 438//810
f 438//811 477//811 439//811
f 477//812 478//812 439//812
f 439//813 478//813 437//813
f 478//814 479//814 437//814
f 437//815 479//815 435//815
f 479//816 480//816 435//816
f 435//817 480//817 436//817
f 436//818 480//818 433//818
f 480//819 481//819 433//819
f 481//820 482//820 433//820
f 433//821 482//821 432//821
f 432//822 483//822 430//822
f 482//823 483//823 432//823
f 430//824 484//824 431//824
f 483//825 484//825 430//825
f 431//826 485//826 426//826
f 484//827 485//827 431//827
f 426//828 486//828 429//828
f 485//829 486//829 426//829
f 429//830 487//830 424//830
f 486//831 487//831 429//831
f 424//832 488//832 425//832
f 425//833 488//833 423//833
f 487//834 488//834 424//834
f 488//835 489//835 423//835
f 423//836 490//836 422//836
f 489//837 490//837 423//837
f 422//838 491//838 419//838
f 419//839 491//839 420//839
f 490//840 491//840 422//840
f 491//841 492//841 420//841
f 420//842 493//842 421//842
f 492//843 493//843 420//843
f 421//844 494//844 418//844
f 493//845 494//845 421//845
f 494//846 495//846 418//846
f 418//847 495//847 416//847
f 416//848 495//848 417//848
f 495//849 496//849 417//849
f 496//850 497//850 417//850
f 417//851 497//851 415//851
f 415//852 497//852 413//852
f 497//853 498//853 413//853
f 498//854 499//854 413//854
f 413//855 499//855 414//855
f 414//856 499//856 409//856
f 499//857 500//857 409//857
f 500//858 501//858 409//858
f 409//859 501//859 407//859
f 407//860 501//860 408//860
f 501//861 502//861 408//861
f 502//862 503//862 408//862
f 408//863 503//863 406//863
f 406//864 503//864 403//864
f 503//865 504//865 403//865
f 403//866 504//866 404//866
f 504//867 505//867 404//867
f 505//868 506//868 404//868
f 404//869 506//869 405//869
f 405//870 506//870 410//870
f 506//871 507//871 410//871
f 507//872 508//872 410//872
f 410//873 508//873 411//873
f 411//874 508//874 412//874
f 508//875 509//875 412//875
f 509//876 510//876 412//876
f 412//877 510//877 386//877
f 386//878 510//878 387//878
f 510//879 511//879 387//879
f 511//880 512//880 387//880
f 387//881 512//881 388//881
f 388//882 512//882 384//882
f 512//883 513//883 384//883
f 513//884 514//884 384//884
f 384//885 514//885 385//885
f 385//886 514//886 378//886
f 514//887 515//887 378//887
f 378//888 516//888 379//888
f 379//889 516//889 380//889
f 515//890 516//890 378//890
f 516//891 517//891 380//891
f 380//892 518//892 381//892
f 381//893 518//893 389//893
f 517//894 518//894 380//894
f 518//895 519//895 389//895
f 519//896 520//896 389//896
f 389//897 520//897 390//897
f 390//898 520//898 391//898
f 520//899 521//899 391//899
f 521//900 522//900 391//900
f 391//901 522//901 392//901
f 522//902 523//902 392//902
f 392//903 523//903 393//903
f 393//904 523//904 394//904
f 523//905 524//905 394//905
f 524//906 525//906 394//906
f 394//907 525//907 395//907
f 395//908 525//908 365//908
f 525//909 526//909 365//909
f 526//910 527//910 365//910
f 365//911 527//911 366//911
f 366//912 527//912 367//912
f 527//913 528//913 367//913
f 528//914 529//914 367//914
f 367//915 529//915 357//915
f 357//916 529//916 358//916
f 529//917 530//917 358//917
f 530//918 531//918 358//918
f 358//919 531//919 359//919
f 531//920 532//920 359//920
f 359//921 532//921 396//921
f 354//922 533//922 355//922
f 532//923 533//923 396//923
f 396//924 533//924 354//924
f 355//925 534//925 349//925
f 533//926 534//926 355//926
f 534//927 535//927 349//927
f 349//928 536//928 350//928
f 350//929 536//929 351//929
f 535//930 536//930 349//930
f 536//931 537//931 351//931
f 351//932 538//932 343//932
f 343//933 538//933 344//933
f 537//934 538//934 351//934
f 344//935 539//935 345//935
f 538//936 539//936 344//936
f 539//937 540//937 345//937
f 345//938 541//938 338//938
f 540//939 541//939 345//939
f 338//940 542//940 339//940
f 339//941 542//941 340//941
f 541//942 542//942 338//942
f 542//943 543//943 340//943
f 340//944 544//944 341//944
f 543//945 544//945 340//945
f 341//946 545//946 342//946
f 544//947 545//947 341//947
f 545//948 546//948 342//948
f 342//949 546//949 397//949
f 546//950 547//950 397//950
f 397//951 547//951 398//951
f 547//952 548//952 398//952
f 398//953 548//953 399//953
f 548//954 549//954 399//954
f 399//955 549//955 400//955
f 400//956 550//956 336//956
f 549//957 550//957 400//957
f 336//958 551//958 337//958
f 337//959 551//959 335//959
f 550//960 551//960 336//960
f 335//961 552//961 401//961
f 551//962 552//962 335//962
f 552//963 553//963 401//963
f 401//964 554//964 402//964
f 553//965 554//965 401//965
f 402//966 555//966 373//966
f 554//967 555//967 402//967
f 373//968 556//968 369//968
f 555//969 556//969 373//969
f 369//970 557//970 370//970
f 370//971 557//971 347//971
f 556//972 557//972 369//972
f 347//973 558//973 348//973
f 557//974 558//974 347//974
f 558//975 559//975 348//975
f 348//976 560//976 346//976
f 346//977 560//977 353//977
f 559//978 560//978 348//978
f 560//979 561//979 353//979
f 353//980 562//980 352//980
f 561//981 562//981 353//981
f 352//982 563//982 356//982
f 562//983 563//983 352//983
f 356//984 564//984 371//984
f 563//985 564//985 356//985
f 371//986 565//986 364//986
f 564//987 565//987 371//987
f 364//988 566//988 361//988
f 565//989 566//989 364//989
f 361//990 567//990 362//990
f 362//991 567//991 360//991
f 566//992 567//992 361//992
f 567//993 568//993 360//993
f 360//994 569//994 363//994
f 568//995 569//995 360//995
f 569//996 570//996 363//996
f 363//997 570//997 372//997
f 570//998 571//998 372//998
f 372//999 571//999 368//999
f 571//1000 572//1000 368//1000
f 368//1001 572//1001 427//1001
f 572//1002 573//1002 427//1002
f 427//1003 573//1003 428//1003
f 573//1004 574//1004 428//1004
f 428//1005 574//1005 434//1005
f 434//1006 574//1006 382//1006
f 574//1007 575//1007 382//1007
f 575//1008 576//1008 382//1008
f 382//1009 576//1009 375//1009
f 576//1010 577//1010 375//1010
f 375//1011 577//1011 376//1011
f 577//1012 578//1012 376//1012
f 376//1013 578//1013 377//1013
f 578//1014 579//1014 377//1014
f 377//1015 579//1015 374//1015
f 579//1016 580//1016 374//1016
f 374//1017 580//1017 383//1017
f 383//1018 580//1018 316//1018
f 580//1019 318//1019 316//1019
f 550//1020 552//1020 551//1020
f 542//1021 541//1021 543//1021
f 543//1022 541//1022 544//1022
f 544//1023 541//1023 545//1023
f 539//1024 538//1024 540//1024
f 540//1025 538//1025 541//1025
f 558//1026 560//1026 559//1026
f 536//1027 535//1027 537//1027
f 560//1028 562//1028 561//1028
f 534//1029 533//1029 535//1029
f 560//1030 563//1030 562//1030
f 530//1031 529//1031 531//1031
f 566//1032 568//1032 567//1032
f 566//1033 569//1033 568//1033
f 565//1034 569//1034 566//1034
f 527//1035 526//1035 528//1035
f 528//1036 526//1036 529//1036
f 556//1037 571//1037 557//1037
f 557//1038 571//1038 558//1038
f 563//1039 571//1039 564//1039
f 564//1040 571//1040 565//1040
f 569//1041 571//1041 570//1041
f 558//1042 571//1042 560//1042
f 565//1043 571//1043 569//1043
f 560//1044 571//1044 563//1044
f 555//1045 571//1045 556//1045
f 576//1046 579//1046 577//1046
f 577//1047 579//1047 578//1047
f 516//1048 515//1048 517//1048
f 517//1049 515//1049 518//1049
f 575//1050 318//1050 576//1050
f 579//1051 318//1051 580//1051
f 576//1052 318//1052 579//1052
f 514//1053 513//1053 515//1053
f 550//1054 510//1054 552//1054
f 526//1055 510//1055 529//1055
f 541//1056 510//1056 545//1056
f 511//1057 510//1057 512//1057
f 512//1058 510//1058 513//1058
f 518//1059 510//1059 519//1059
f 538//1060 510//1060 541//1060
f 519//1061 510//1061 520//1061
f 520//1062 510//1062 521//1062
f 513//1063 510//1063 515//1063
f 521//1064 510//1064 522//1064
f 522//1065 510//1065 523//1065
f 523//1066 510//1066 524//1066
f 524//1067 510//1067 525//1067
f 525//1068 510//1068 526//1068
f 529//1069 510//1069 531//1069
f 531//1070 510//1070 532//1070
f 532//1071 510//1071 533//1071
f 535//1072 510//1072 537//1072
f 533//1073 510//1073 535//1073
f 537//1074 510//1074 538//1074
f 545//1075 510//1075 546//1075
f 546//1076 510//1076 547//1076
f 547//1077 510//1077 548//1077
f 548//1078 510//1078 549//1078
f 549//1079 510//1079 550//1079
f 515//1080 510//1080 518//1080
f 552//1081 510//1081 553//1081
f 553//1082 510//1082 554//1082
f 554//1083 510//1083 555//1083
f 505//1084 504//1084 506//1084
f 504//1085 503//1085 506//1085
f 502//1086 501//1086 503//1086
f 503//1087 501//1087 506//1087
f 506//1088 500//1088 507//1088
f 507//1089 500//1089 508//1089
f 508//1090 500//1090 509//1090
f 501//1091 500//1091 506//1091
f 499//1092 498//1092 500//1092
f 509//1093 497//1093 510//1093
f 500//1094 497//1094 509//1094
f 498//1095 497//1095 500//1095
f 496//1096 495//1096 497//1096
f 495//1097 494//1097 497//1097
f 492//1098 491//1098 493//1098
f 493//1099 491//1099 494//1099
f 491//1100 490//1100 494//1100
f 490//1101 489//1101 494//1101
f 494//1102 487//1102 497//1102
f 489//1103 487//1103 494//1103
f 488//1104 487//1104 489//1104
f 555//1105 485//1105 571//1105
f 487//1106 485//1106 497//1106
f 571//1107 485//1107 572//1107
f 572//1108 485//1108 573//1108
f 486//1109 485//1109 487//1109
f 510//1110 485//1110 555//1110
f 497//1111 485//1111 510//1111
f 484//1112 483//1112 485//1112
f 483//1113 482//1113 485//1113
f 485//1114 481//1114 573//1114
f 573//1115 481//1115 574//1115
f 574//1116 481//1116 575//1116
f 482//1117 481//1117 485//1117
f 480//1118 479//1118 481//1118
f 479//1119 478//1119 481//1119
f 477//1120 476//1120 478//1120
f 478//1121 476//1121 481//1121
f 475//1122 474//1122 476//1122
f 476//1123 473//1123 481//1123
f 474//1124 473//1124 476//1124
f 471//1125 470//1125 472//1125
f 472//1126 470//1126 473//1126
f 469//1127 468//1127 470//1127
f 467//1128 466//1128 468//1128
f 468//1129 466//1129 470//1129
f 465//1130 464//1130 466//1130
f 461//1131 460//1131 462//1131
f 462//1132 460//1132 463//1132
f 463//1133 460//1133 464//1133
f 459//1134 458//1134 460//1134
f 464//1135 458//1135 466//1135
f 460//1136 458//1136 464//1136
f 481//1137 321//1137 575//1137
f 473//1138 321//1138 481//1138
f 575//1139 321//1139 318//1139
f 470//1140 321//1140 473//1140
f 466//1141 321//1141 470//1141
f 458//1142 321//1142 466//1142
f 326//1143 325//1143 327//1143
f 322//1144 331//1144 334//1144
f 322//1145 334//1145 326//1145
f 322//1146 326//1146 327//1146
f 328//1147 323//1147 322//1147
f 328//1148 322//1148 327//1148
f 332//1149 333//1149 329//1149
f 329//1150 333//1150 330//1150
f 330//1151 334//1151 331//1151
f 330//1152 333//1152 334//1152
