# Created by FreeCAD <http://www.freecad.org>
v -2.200000 -1.889444 2.000000
v -2.200000 1.889444 13.500000
v -2.200000 1.889444 2.000000
v -2.200000 -1.889444 13.500000
v -0.899873 -0.938205 13.500000
v -2.091680 -2.008700 13.500000
v -1.976905 -2.121756 13.500000
v -0.950623 -0.886745 13.500000
v -0.846342 -0.986765 13.500000
v -1.856028 -2.228264 13.500000
v -0.998434 -0.832544 13.500000
v -0.790195 -1.032275 13.500000
v -1.729423 -2.327895 13.500000
v -1.043160 -0.775769 13.500000
v -0.731605 -1.074595 13.500000
v -1.597481 -2.420341 13.500000
v -1.084661 -0.716597 13.500000
v -0.670754 -1.113593 13.500000
v -1.460609 -2.505318 13.500000
v -1.122809 -0.655210 13.500000
v -0.607830 -1.149149 13.500000
v -1.319229 -2.582563 13.500000
v -1.157487 -0.591797 13.500000
v -0.543027 -1.181153 13.500000
v -1.173778 -2.651838 13.500000
v -1.188587 -0.526556 13.500000
v -0.476545 -1.209506 13.500000
v -1.024704 -2.712929 13.500000
v -1.216013 -0.459686 13.500000
v -0.408590 -1.234121 13.500000
v -0.872468 -2.765646 13.500000
v -1.239681 -0.391396 13.500000
v -0.339373 -1.254921 13.500000
v -0.717539 -2.809829 13.500000
v -1.259517 -0.321896 13.500000
v -0.269107 -1.271842 13.500000
v -0.560395 -2.845340 13.500000
v -1.275460 -0.251402 13.500000
v -0.198008 -1.284832 13.500000
v -0.401522 -2.872069 13.500000
v -1.287460 -0.180130 13.500000
v -0.126298 -1.293850 13.500000
v -0.241410 -2.889935 13.500000
v -1.295481 -0.108301 13.500000
v -0.054198 -1.298870 13.500000
v -0.080553 -2.898881 13.500000
v -1.299498 -0.036138 13.500000
v 0.018071 -1.299874 13.500000
v 0.080553 -2.898881 13.500000
v -1.299498 0.036138 13.500000
v 0.090283 -1.296861 13.500000
v 0.241410 -2.889935 13.500000
v 0.162216 -1.289840 13.500000
v 0.401522 -2.872069 13.500000
v 0.233648 -1.278831 13.500000
v 0.560395 -2.845340 13.500000
v 0.304357 -1.263870 13.500000
v 0.717539 -2.809829 13.500000
v 0.374126 -1.245002 13.500000
v 0.872468 -2.765646 13.500000
v 0.442739 -1.222286 13.500000
v 1.024704 -2.712929 13.500000
v 0.509983 -1.195792 13.500000
v 1.173778 -2.651838 13.500000
v 0.575651 -1.165601 13.500000
v 1.319229 -2.582563 13.500000
v 0.639539 -1.131808 13.500000
v 1.460609 -2.505318 13.500000
v 0.701450 -1.094517 13.500000
v 1.597481 -2.420341 13.500000
v -1.295481 0.108301 13.500000
v -1.287460 0.180130 13.500000
v -1.275460 0.251402 13.500000
v -1.259517 0.321896 13.500000
v -1.239681 0.391396 13.500000
v -1.216013 0.459686 13.500000
v -1.188587 0.526556 13.500000
v -1.157487 0.591797 13.500000
v -1.122809 0.655210 13.500000
v -1.084661 0.716597 13.500000
v 0.761194 -1.053842 13.500000
v 1.729423 -2.327895 13.500000
v -1.043160 0.775769 13.500000
v 0.818585 -1.009911 13.500000
v 1.856028 -2.228264 13.500000
v -0.998434 0.832544 13.500000
v 0.873445 -0.962857 13.500000
v 1.976905 -2.121756 13.500000
v -0.950623 0.886745 13.500000
v -2.091680 2.008700 13.500000
v 0.925606 -0.912828 13.500000
v -0.899873 0.938205 13.500000
v 2.091680 -2.008700 13.500000
v 0.974905 -0.859976 13.500000
v -1.976905 2.121756 13.500000
v -0.846342 0.986765 13.500000
v 2.200000 -1.889444 13.500000
v 1.021192 -0.804467 13.500000
v 1.064322 -0.746472 13.500000
v -1.856028 2.228264 13.500000
v -0.790195 1.032275 13.500000
v 1.104162 -0.686168 13.500000
v 1.140589 -0.623744 13.500000
v -1.729423 2.327895 13.500000
v -0.731605 1.074595 13.500000
v 1.173491 -0.559393 13.500000
v 1.202765 -0.493312 13.500000
v 1.228322 -0.425706 13.500000
v -1.597481 2.420341 13.500000
v -0.670754 1.113593 13.500000
v 1.250082 -0.356784 13.500000
v 1.267978 -0.286760 13.500000
v -1.460609 2.505318 13.500000
v -0.607830 1.149149 13.500000
v 1.281955 -0.215849 13.500000
v 1.291970 -0.144271 13.500000
v 1.297991 -0.072247 13.500000
v -1.319229 2.582563 13.500000
v -0.543027 1.181153 13.500000
v 1.300000 -0.000000 13.500000
v -1.173778 2.651838 13.500000
v -0.476545 1.209506 13.500000
v -1.024704 2.712929 13.500000
v -0.408590 1.234121 13.500000
v -0.872468 2.765646 13.500000
v -0.339373 1.254921 13.500000
v -0.717539 2.809829 13.500000
v -0.269107 1.271842 13.500000
v -0.560395 2.845340 13.500000
v -0.198008 1.284832 13.500000
v -0.401522 2.872069 13.500000
v -0.126298 1.293850 13.500000
v -0.241410 2.889935 13.500000
v -0.054198 1.298870 13.500000
v -0.080553 2.898881 13.500000
v 0.018071 1.299874 13.500000
v 0.080553 2.898881 13.500000
v 0.090283 1.296861 13.500000
v 0.241410 2.889935 13.500000
v 0.162216 1.289840 13.500000
v 0.401522 2.872069 13.500000
v 0.233648 1.278831 13.500000
v 0.560395 2.845340 13.500000
v 0.304357 1.263870 13.500000
v 0.717539 2.809829 13.500000
v 0.374126 1.245002 13.500000
v 0.872468 2.765646 13.500000
v 0.442739 1.222286 13.500000
v 1.024704 2.712929 13.500000
v 0.509983 1.195792 13.500000
v 1.173778 2.651838 13.500000
v 0.575651 1.165601 13.500000
v 1.319229 2.582563 13.500000
v 0.639539 1.131808 13.500000
v 1.460609 2.505318 13.500000
v 0.701450 1.094517 13.500000
v 1.597481 2.420341 13.500000
v 0.761194 1.053842 13.500000
v 1.729423 2.327895 13.500000
v 0.818585 1.009911 13.500000
v 1.856028 2.228264 13.500000
v 0.873445 0.962857 13.500000
v 2.200000 1.889444 13.500000
v 0.974905 0.859976 13.500000
v 1.021192 0.804467 13.500000
v 1.064322 0.746472 13.500000
v 1.104162 0.686168 13.500000
v 1.140589 0.623744 13.500000
v 1.173491 0.559393 13.500000
v 1.202765 0.493312 13.500000
v 1.228322 0.425706 13.500000
v 1.250082 0.356784 13.500000
v 1.267978 0.286760 13.500000
v 1.281955 0.215849 13.500000
v 1.291970 0.144271 13.500000
v 1.297991 0.072247 13.500000
v 1.976905 2.121756 13.500000
v 0.925606 0.912828 13.500000
v 2.091680 2.008700 13.500000
v 2.200000 1.889444 2.000000
v 2.091680 2.008700 2.000000
v 1.976905 2.121756 2.000000
v 1.856028 2.228264 2.000000
v 1.729423 2.327895 2.000000
v 1.597481 2.420341 2.000000
v 1.460609 2.505318 2.000000
v 1.319229 2.582563 2.000000
v 1.173778 2.651838 2.000000
v 1.024704 2.712929 2.000000
v 0.872468 2.765646 2.000000
v 0.717539 2.809829 2.000000
v 0.560395 2.845340 2.000000
v 0.401522 2.872069 2.000000
v 0.241410 2.889935 2.000000
v 0.080553 2.898881 2.000000
v -0.080553 2.898881 2.000000
v -0.241410 2.889935 2.000000
v -0.401522 2.872069 2.000000
v -0.560395 2.845340 2.000000
v -0.717539 2.809829 2.000000
v -0.872468 2.765646 2.000000
v -1.024704 2.712929 2.000000
v -1.173778 2.651838 2.000000
v -1.319229 2.582563 2.000000
v -1.460609 2.505318 2.000000
v -1.597481 2.420341 2.000000
v -1.729423 2.327895 2.000000
v -1.856028 2.228264 2.000000
v -1.976905 2.121756 2.000000
v -2.091680 2.008700 2.000000
v -2.091680 -2.008700 2.000000
v -0.899873 -0.938205 2.000000
v -1.976905 -2.121756 2.000000
v -0.950623 -0.886745 2.000000
v -0.846342 -0.986765 2.000000
v -1.856028 -2.228264 2.000000
v -0.998434 -0.832544 2.000000
v -0.790195 -1.032275 2.000000
v -1.729423 -2.327895 2.000000
v -1.043160 -0.775769 2.000000
v -0.731605 -1.074595 2.000000
v -1.597481 -2.420341 2.000000
v -1.084661 -0.716597 2.000000
v -0.670754 -1.113593 2.000000
v -1.460609 -2.505318 2.000000
v -1.122809 -0.655210 2.000000
v -0.607830 -1.149149 2.000000
v -1.319229 -2.582563 2.000000
v -1.157487 -0.591797 2.000000
v -0.543027 -1.181153 2.000000
v -1.173778 -2.651838 2.000000
v -1.188587 -0.526556 2.000000
v -0.476545 -1.209506 2.000000
v -1.024704 -2.712929 2.000000
v -1.216013 -0.459686 2.000000
v -0.408590 -1.234121 2.000000
v -0.872468 -2.765646 2.000000
v -1.239681 -0.391396 2.000000
v -0.339373 -1.254921 2.000000
v -0.717539 -2.809829 2.000000
v -1.259517 -0.321896 2.000000
v -0.269107 -1.271842 2.000000
v -0.560395 -2.845340 2.000000
v -1.275460 -0.251402 2.000000
v -0.198008 -1.284832 2.000000
v -0.401522 -2.872069 2.000000
v -1.287460 -0.180130 2.000000
v -0.126298 -1.293850 2.000000
v -0.241410 -2.889935 2.000000
v -1.295481 -0.108301 2.000000
v -0.054198 -1.298870 2.000000
v -0.080553 -2.898881 2.000000
v -1.299498 -0.036138 2.000000
v 0.018071 -1.299874 2.000000
v 0.080553 -2.898881 2.000000
v -1.299498 0.036138 2.000000
v 0.090283 -1.296861 2.000000
v 0.241410 -2.889935 2.000000
v 0.162216 -1.289840 2.000000
v 0.401522 -2.872069 2.000000
v 0.233648 -1.278831 2.000000
v 0.560395 -2.845340 2.000000
v 0.304357 -1.263870 2.000000
v 0.717539 -2.809829 2.000000
v 0.374126 -1.245002 2.000000
v 0.872468 -2.765646 2.000000
v 0.442739 -1.222286 2.000000
v 1.024704 -2.712929 2.000000
v 0.509983 -1.195792 2.000000
v 1.173778 -2.651838 2.000000
v 0.575651 -1.165601 2.000000
v 1.319229 -2.582563 2.000000
v 0.639539 -1.131808 2.000000
v 1.460609 -2.505318 2.000000
v 0.701450 -1.094517 2.000000
v 1.597481 -2.420341 2.000000
v -1.295481 0.108301 2.000000
v -1.287460 0.180130 2.000000
v -1.275460 0.251402 2.000000
v -1.259517 0.321896 2.000000
v -1.239681 0.391396 2.000000
v -1.216013 0.459686 2.000000
v -1.188587 0.526556 2.000000
v -1.157487 0.591797 2.000000
v -1.122809 0.655210 2.000000
v -1.084661 0.716597 2.000000
v 0.761194 -1.053842 2.000000
v 1.729423 -2.327895 2.000000
v -1.043160 0.775769 2.000000
v 0.818585 -1.009911 2.000000
v 1.856028 -2.228264 2.000000
v -0.998434 0.832544 2.000000
v 0.873445 -0.962857 2.000000
v 1.976905 -2.121756 2.000000
v -0.950623 0.886745 2.000000
v 0.925606 -0.912828 2.000000
v -0.899873 0.938205 2.000000
v 2.091680 -2.008700 2.000000
v 0.974905 -0.859976 2.000000
v -0.846342 0.986765 2.000000
v 2.200000 -1.889444 2.000000
v 1.021192 -0.804467 2.000000
v 1.064322 -0.746472 2.000000
v -0.790195 1.032275 2.000000
v 1.104162 -0.686168 2.000000
v 1.140589 -0.623744 2.000000
v -0.731605 1.074595 2.000000
v 1.173491 -0.559393 2.000000
v 1.202765 -0.493312 2.000000
v 1.228322 -0.425706 2.000000
v -0.670754 1.113593 2.000000
v 1.250082 -0.356784 2.000000
v 1.267978 -0.286760 2.000000
v -0.607830 1.149149 2.000000
v 1.281955 -0.215849 2.000000
v 1.291970 -0.144271 2.000000
v 1.297991 -0.072247 2.000000
v -0.543027 1.181153 2.000000
v 1.300000 -0.000000 2.000000
v -0.476545 1.209506 2.000000
v -0.408590 1.234121 2.000000
v -0.339373 1.254921 2.000000
v -0.269107 1.271842 2.000000
v -0.198008 1.284832 2.000000
v -0.126298 1.293850 2.000000
v -0.054198 1.298870 2.000000
v 0.018071 1.299874 2.000000
v 0.090283 1.296861 2.000000
v 0.162216 1.289840 2.000000
v 0.233648 1.278831 2.000000
v 0.304357 1.263870 2.000000
v 0.374126 1.245002 2.000000
v 0.442739 1.222286 2.000000
v 0.509983 1.195792 2.000000
v 0.575651 1.165601 2.000000
v 0.639539 1.131808 2.000000
v 0.701450 1.094517 2.000000
v 0.761194 1.053842 2.000000
v 0.818585 1.009911 2.000000
v 0.873445 0.962857 2.000000
v 0.974905 0.859976 2.000000
v 1.021192 0.804467 2.000000
v 1.064322 0.746472 2.000000
v 1.104162 0.686168 2.000000
v 1.140589 0.623744 2.000000
v 1.173491 0.559393 2.000000
v 1.202765 0.493312 2.000000
v 1.228322 0.425706 2.000000
v 1.250082 0.356784 2.000000
v 1.267978 0.286760 2.000000
v 1.281955 0.215849 2.000000
v 1.291970 0.144271 2.000000
v 1.297991 0.072247 2.000000
v 0.925606 0.912828 2.000000
vn -1.000000 0.000000 0.000000
vn -1.000000 0.000000 0.000000
vn 0.000000 0.000000 1.000000
vn 0.000000 0.000000 1.000000
vn 0.000000 0.000000 1.000000
vn 0.000000 0.000000 1.000000
vn 0.000000 0.000000 1.000000
vn 0.000000 0.000000 1.000000
vn 0.000000 0.000000 1.000000
vn 0.000000 0.000000 1.000000
vn 0.000000 0.000000 1.000000
vn 0.000000 0.000000 1.000000
vn 0.000000 0.000000 1.000000
vn 0.000000 0.000000 1.000000
vn 0.000000 0.000000 1.000000
vn 0.000000 0.000000 1.000000
vn 0.000000 0.000000 1.000000
vn 0.000000 0.000000 1.000000
vn 0.000000 0.000000 1.000000
vn 0.000000 0.000000 1.000000
vn 0.000000 0.000000 1.000000
vn 0.000000 0.000000 1.000000
vn 0.000000 0.000000 1.000000
vn 0.000000 0.000000 1.000000
vn 0.000000 0.000000 1.000000
vn 0.000000 0.000000 1.000000
vn 0.000000 0.000000 1.000000
vn 0.000000 0.000000 1.000000
vn 0.000000 0.000000 1.000000
vn 0.000000 0.000000 1.000000
vn 0.000000 0.000000 1.000000
vn 0.000000 0.000000 1.000000
vn 0.000000 0.000000 1.000000
vn 0.000000 0.000000 1.000000
vn 0.000000 0.000000 1.000000
vn 0.000000 0.000000 1.000000
vn 0.000000 0.000000 1.000000
vn 0.000000 0.000000 1.000000
vn 0.000000 0.000000 1.000000
vn 0.000000 0.000000 1.000000
vn 0.000000 0.000000 1.000000
vn 0.000000 0.000000 1.000000
vn 0.000000 0.000000 1.000000
vn 0.000000 0.000000 1.000000
vn 0.000000 0.000000 1.000000
vn 0.000000 0.000000 1.000000
vn 0.000000 0.000000 1.000000
vn 0.000000 0.000000 1.000000
vn 0.000000 0.000000 1.000000
vn 0.000000 0.000000 1.000000
vn 0.000000 0.000000 1.000000
vn 0.000000 0.000000 1.000000
vn 0.000000 0.000000 1.000000
vn 0.000000 0.000000 1.000000
vn 0.000000 0.000000 1.000000
vn 0.000000 0.000000 1.000000
vn 0.000000 0.000000 1.000000
vn 0.000000 0.000000 1.000000
vn 0.000000 0.000000 1.000000
vn 0.000000 0.000000 1.000000
vn 0.000000 0.000000 1.000000
vn 0.000000 0.000000 1.000000
vn 0.000000 0.000000 1.000000
vn 0.000000 0.000000 1.000000
vn 0.000000 0.000000 1.000000
vn 0.000000 0.000000 1.000000
vn 0.000000 0.000000 1.000000
vn 0.000000 0.000000 1.000000
vn 0.000000 0.000000 1.000000
vn 0.000000 0.000000 1.000000
vn 0.000000 0.000000 1.000000
vn 0.000000 0.000000 1.000000
vn 0.000000 0.000000 1.000000
vn 0.000000 0.000000 1.000000
vn 0.000000 0.000000 1.000000
vn 0.000000 0.000000 1.000000
vn 0.000000 0.000000 1.000000
vn 0.000000 0.000000 1.000000
vn 0.000000 0.000000 1.000000
vn 0.000000 0.000000 1.000000
vn 0.000000 0.000000 1.000000
vn 0.000000 0.000000 1.000000
vn 0.000000 0.000000 1.000000
vn 0.000000 0.000000 1.000000
vn 0.000000 0.000000 1.000000
vn 0.000000 0.000000 1.000000
vn 0.000000 0.000000 1.000000
vn 0.000000 0.000000 1.000000
vn 0.000000 0.000000 1.000000
vn 0.000000 0.000000 1.000000
vn 0.000000 0.000000 1.000000
vn 0.000000 0.000000 1.000000
vn 0.000000 0.000000 1.000000
vn 0.000000 0.000000 1.000000
vn 0.000000 0.000000 1.000000
vn 0.000000 0.000000 1.000000
vn 0.000000 0.000000 1.000000
vn 0.000000 0.000000 1.000000
vn 0.000000 0.000000 1.000000
vn 0.000000 0.000000 1.000000
vn 0.000000 0.000000 1.000000
vn 0.000000 0.000000 1.000000
vn 0.000000 0.000000 1.000000
vn 0.000000 0.000000 1.000000
vn 0.000000 0.000000 1.000000
vn 0.000000 0.000000 1.000000
vn 0.000000 0.000000 1.000000
vn 0.000000 0.000000 1.000000
vn 0.000000 0.000000 1.000000
vn 0.000000 0.000000 1.000000
vn 0.000000 0.000000 1.000000
vn 0.000000 0.000000 1.000000
vn 0.000000 0.000000 1.000000
vn 0.000000 0.000000 1.000000
vn 0.000000 0.000000 1.000000
vn 0.000000 0.000000 1.000000
vn 0.000000 0.000000 1.000000
vn 0.000000 0.000000 1.000000
vn 0.000000 0.000000 1.000000
vn 0.000000 0.000000 1.000000
vn 0.000000 0.000000 1.000000
vn 0.000000 0.000000 1.000000
vn 0.000000 0.000000 1.000000
vn 0.000000 0.000000 1.000000
vn 0.000000 0.000000 1.000000
vn 0.000000 0.000000 1.000000
vn 0.000000 0.000000 1.000000
vn 0.000000 0.000000 1.000000
vn 0.000000 0.000000 1.000000
vn 0.000000 0.000000 1.000000
vn 0.000000 0.000000 1.000000
vn 0.000000 0.000000 1.000000
vn 0.000000 0.000000 1.000000
vn 0.000000 0.000000 1.000000
vn 0.000000 0.000000 1.000000
vn 0.000000 0.000000 1.000000
vn 0.000000 0.000000 1.000000
vn 0.000000 0.000000 1.000000
vn 0.000000 0.000000 1.000000
vn 0.000000 0.000000 1.000000
vn 0.000000 0.000000 1.000000
vn 0.000000 0.000000 1.000000
vn 0.000000 0.000000 1.000000
vn 0.000000 0.000000 1.000000
vn 0.000000 0.000000 1.000000
vn 0.000000 0.000000 1.000000
vn 0.000000 0.000000 1.000000
vn 0.000000 0.000000 1.000000
vn 0.000000 0.000000 1.000000
vn 0.000000 0.000000 1.000000
vn 0.000000 0.000000 1.000000
vn 0.000000 0.000000 1.000000
vn 0.000000 0.000000 1.000000
vn 0.000000 0.000000 1.000000
vn 0.000000 0.000000 1.000000
vn 0.000000 0.000000 1.000000
vn 0.000000 0.000000 1.000000
vn 0.000000 0.000000 1.000000
vn 0.000000 0.000000 1.000000
vn 0.000000 0.000000 1.000000
vn 0.000000 0.000000 1.000000
vn 0.000000 0.000000 1.000000
vn 0.000000 0.000000 1.000000
vn 0.000000 0.000000 1.000000
vn 0.000000 0.000000 1.000000
vn 0.000000 0.000000 1.000000
vn 0.000000 0.000000 1.000000
vn 0.000000 0.000000 1.000000
vn 0.000000 0.000000 1.000000
vn 0.000000 0.000000 1.000000
vn 0.000000 0.000000 1.000000
vn 0.000000 0.000000 1.000000
vn 0.000000 0.000000 1.000000
vn 0.000000 0.000000 1.000000
vn 0.000000 0.000000 1.000000
vn 0.000000 0.000000 1.000000
vn 0.000000 0.000000 1.000000
vn 0.000000 0.000000 1.000000
vn 0.000000 0.000000 1.000000
vn 0.740231 0.672353 -0.000000
vn 0.740231 0.672353 0.000000
vn 0.701750 0.712423 0.000000
vn 0.701750 0.712423 -0.000000
vn 0.661106 0.750293 0.000000
vn 0.661106 0.750293 -0.000000
vn 0.618420 0.785848 0.000000
vn 0.618420 0.785848 -0.000000
vn 0.573825 0.818978 0.000000
vn 0.573825 0.818978 -0.000000
vn 0.527460 0.849580 0.000000
vn 0.527460 0.849580 -0.000000
vn 0.479467 0.877560 0.000000
vn 0.479467 0.877560 -0.000000
vn 0.429995 0.902831 -0.000000
vn 0.429995 0.902831 0.000000
vn 0.379195 0.925317 -0.000000
vn 0.379195 0.925317 0.000000
vn 0.327225 0.944946 -0.000000
vn 0.327225 0.944946 0.000000
vn 0.274244 0.961660 -0.000000
vn 0.274244 0.961660 0.000000
vn 0.220419 0.975405 -0.000000
vn 0.220419 0.975405 0.000000
vn 0.165912 0.986141 -0.000000
vn 0.165912 0.986141 0.000000
vn 0.110894 0.993832 -0.000000
vn 0.110894 0.993832 0.000000
vn 0.055531 0.998457 -0.000000
vn 0.055531 0.998457 0.000000
vn 0.000000 1.000000 -0.000000
vn 0.000000 1.000000 0.000000
vn -0.055531 0.998457 0.000000
vn -0.055531 0.998457 0.000000
vn -0.110894 0.993832 0.000000
vn -0.110894 0.993832 0.000000
vn -0.220419 0.975405 0.000000
vn -0.165912 0.986141 0.000000
vn -0.165912 0.986141 0.000000
vn -0.220419 0.975405 0.000000
vn -0.274244 0.961660 0.000000
vn -0.274244 0.961660 0.000000
vn -0.327225 0.944946 0.000000
vn -0.379195 0.925317 0.000000
vn -0.327225 0.944946 0.000000
vn -0.429995 0.902831 0.000000
vn -0.379195 0.925317 0.000000
vn -0.479467 0.877560 0.000000
vn -0.429995 0.902831 0.000000
vn -0.527460 0.849580 0.000000
vn -0.479467 0.877560 0.000000
vn -0.573825 0.818978 0.000000
vn -0.527460 0.849580 0.000000
vn -0.618420 0.785848 0.000000
vn -0.573825 0.818978 0.000000
vn -0.661106 0.750293 0.000000
vn -0.618420 0.785848 0.000000
vn -0.701750 0.712423 0.000000
vn -0.661106 0.750293 0.000000
vn -0.740231 0.672353 0.000000
vn -0.701750 0.712423 0.000000
vn -0.740231 0.672353 0.000000
vn 0.000000 0.000000 -1.000000
vn 0.000000 0.000000 -1.000000
vn 0.000000 0.000000 -1.000000
vn 0.000000 0.000000 -1.000000
vn 0.000000 -0.000000 -1.000000
vn 0.000000 0.000000 -1.000000
vn 0.000000 0.000000 -1.000000
vn 0.000000 -0.000000 -1.000000
vn 0.000000 0.000000 -1.000000
vn 0.000000 0.000000 -1.000000
vn 0.000000 -0.000000 -1.000000
vn 0.000000 0.000000 -1.000000
vn 0.000000 0.000000 -1.000000
vn 0.000000 -0.000000 -1.000000
vn 0.000000 0.000000 -1.000000
vn 0.000000 0.000000 -1.000000
vn 0.000000 -0.000000 -1.000000
vn 0.000000 0.000000 -1.000000
vn 0.000000 0.000000 -1.000000
vn 0.000000 -0.000000 -1.000000
vn 0.000000 0.000000 -1.000000
vn 0.000000 0.000000 -1.000000
vn 0.000000 -0.000000 -1.000000
vn 0.000000 0.000000 -1.000000
vn 0.000000 0.000000 -1.000000
vn 0.000000 -0.000000 -1.000000
vn 0.000000 0.000000 -1.000000
vn 0.000000 0.000000 -1.000000
vn 0.000000 -0.000000 -1.000000
vn 0.000000 0.000000 -1.000000
vn 0.000000 0.000000 -1.000000
vn 0.000000 -0.000000 -1.000000
vn 0.000000 0.000000 -1.000000
vn 0.000000 -0.000000 -1.000000
vn 0.000000 0.000000 -1.000000
vn 0.000000 0.000000 -1.000000
vn 0.000000 0.000000 -1.000000
vn 0.000000 -0.000000 -1.000000
vn 0.000000 0.000000 -1.000000
vn 0.000000 0.000000 -1.000000
vn 0.000000 -0.000000 -1.000000
vn 0.000000 0.000000 -1.000000
vn 0.000000 0.000000 -1.000000
vn 0.000000 -0.000000 -1.000000
vn 0.000000 0.000000 -1.000000
vn 0.000000 0.000000 -1.000000
vn 0.000000 0.000000 -1.000000
vn 0.000000 0.000000 -1.000000
vn 0.000000 0.000000 -1.000000
vn 0.000000 0.000000 -1.000000
vn 0.000000 0.000000 -1.000000
vn 0.000000 0.000000 -1.000000
vn 0.000000 0.000000 -1.000000
vn 0.000000 0.000000 -1.000000
vn 0.000000 0.000000 -1.000000
vn 0.000000 0.000000 -1.000000
vn 0.000000 0.000000 -1.000000
vn 0.000000 0.000000 -1.000000
vn 0.000000 0.000000 -1.000000
vn 0.000000 0.000000 -1.000000
vn 0.000000 0.000000 -1.000000
vn 0.000000 0.000000 -1.000000
vn 0.000000 0.000000 -1.000000
vn 0.000000 0.000000 -1.000000
vn 0.000000 0.000000 -1.000000
vn 0.000000 0.000000 -1.000000
vn 0.000000 0.000000 -1.000000
vn 0.000000 0.000000 -1.000000
vn 0.000000 0.000000 -1.000000
vn 0.000000 0.000000 -1.000000
vn 0.000000 0.000000 -1.000000
vn 0.000000 0.000000 -1.000000
vn 0.000000 0.000000 -1.000000
vn 0.000000 0.000000 -1.000000
vn 0.000000 0.000000 -1.000000
vn 0.000000 0.000000 -1.000000
vn 0.000000 0.000000 -1.000000
vn 0.000000 0.000000 -1.000000
vn 0.000000 0.000000 -1.000000
vn 0.000000 0.000000 -1.000000
vn 0.000000 0.000000 -1.000000
vn 0.000000 0.000000 -1.000000
vn 0.000000 0.000000 -1.000000
vn 0.000000 0.000000 -1.000000
vn 0.000000 0.000000 -1.000000
vn 0.000000 -0.000000 -1.000000
vn 0.000000 0.000000 -1.000000
vn 0.000000 0.000000 -1.000000
vn 0.000000 0.000000 -1.000000
vn 0.000000 0.000000 -1.000000
vn 0.000000 0.000000 -1.000000
vn 0.000000 0.000000 -1.000000
vn 0.000000 0.000000 -1.000000
vn 0.000000 -0.000000 -1.000000
vn 0.000000 0.000000 -1.000000
vn 0.000000 0.000000 -1.000000
vn 0.000000 0.000000 -1.000000
vn 0.000000 0.000000 -1.000000
vn 0.000000 0.000000 -1.000000
vn 0.000000 0.000000 -1.000000
vn 0.000000 0.000000 -1.000000
vn 0.000000 0.000000 -1.000000
vn 0.000000 0.000000 -1.000000
vn 0.000000 0.000000 -1.000000
vn 0.000000 0.000000 -1.000000
vn 0.000000 0.000000 -1.000000
vn 0.000000 0.000000 -1.000000
vn 0.000000 0.000000 -1.000000
vn 0.000000 0.000000 -1.000000
vn 0.000000 0.000000 -1.000000
vn 0.000000 0.000000 -1.000000
vn 0.000000 0.000000 -1.000000
vn 0.000000 0.000000 -1.000000
vn 0.000000 0.000000 -1.000000
vn 0.000000 0.000000 -1.000000
vn 0.000000 0.000000 -1.000000
vn 0.000000 0.000000 -1.000000
vn 0.000000 0.000000 -1.000000
vn 0.000000 0.000000 -1.000000
vn 0.000000 0.000000 -1.000000
vn 0.000000 0.000000 -1.000000
vn 0.000000 0.000000 -1.000000
vn 0.000000 0.000000 -1.000000
vn 0.000000 0.000000 -1.000000
vn 0.000000 0.000000 -1.000000
vn 0.000000 0.000000 -1.000000
vn 0.000000 0.000000 -1.000000
vn 0.000000 0.000000 -1.000000
vn 0.000000 0.000000 -1.000000
vn 0.000000 0.000000 -1.000000
vn 0.000000 0.000000 -1.000000
vn 0.000000 0.000000 -1.000000
vn 0.000000 0.000000 -1.000000
vn 0.000000 0.000000 -1.000000
vn 0.000000 0.000000 -1.000000
vn 0.000000 0.000000 -1.000000
vn 0.000000 -0.000000 -1.000000
vn 0.000000 0.000000 -1.000000
vn 0.000000 -0.000000 -1.000000
vn 0.000000 0.000000 -1.000000
vn 0.000000 0.000000 -1.000000
vn 0.000000 -0.000000 -1.000000
vn 0.000000 -0.000000 -1.000000
vn 0.000000 0.000000 -1.000000
vn 0.000000 -0.000000 -1.000000
vn 0.000000 0.000000 -1.000000
vn 0.000000 -0.000000 -1.000000
vn 0.000000 0.000000 -1.000000
vn 0.000000 -0.000000 -1.000000
vn 0.000000 0.000000 -1.000000
vn 0.000000 -0.000000 -1.000000
vn 0.000000 0.000000 -1.000000
vn 0.000000 -0.000000 -1.000000
vn 0.000000 0.000000 -1.000000
vn 0.000000 -0.000000 -1.000000
vn 0.000000 0.000000 -1.000000
vn 0.000000 -0.000000 -1.000000
vn 0.000000 0.000000 -1.000000
vn 0.000000 0.000000 -1.000000
vn 0.000000 0.000000 -1.000000
vn 0.000000 0.000000 -1.000000
vn 0.000000 0.000000 -1.000000
vn 0.000000 0.000000 -1.000000
vn 0.000000 0.000000 -1.000000
vn 0.000000 0.000000 -1.000000
vn 0.000000 0.000000 -1.000000
vn 0.000000 0.000000 -1.000000
vn 0.000000 0.000000 -1.000000
vn 0.000000 0.000000 -1.000000
vn 0.000000 0.000000 -1.000000
vn 0.000000 0.000000 -1.000000
vn 0.000000 0.000000 -1.000000
vn 0.000000 -0.000000 -1.000000
vn 0.000000 0.000000 -1.000000
vn 0.000000 -0.000000 -1.000000
vn 0.000000 0.000000 -1.000000
vn 0.000000 0.000000 -1.000000
vn -0.740231 -0.672353 0.000000
vn -0.740231 -0.672353 0.000000
vn -0.701750 -0.712423 0.000000
vn -0.701750 -0.712423 0.000000
vn -0.661106 -0.750293 0.000000
vn -0.661106 -0.750293 0.000000
vn -0.618420 -0.785848 0.000000
vn -0.618420 -0.785848 0.000000
vn -0.573825 -0.818978 0.000000
vn -0.573825 -0.818978 0.000000
vn -0.527460 -0.849580 0.000000
vn -0.527460 -0.849580 0.000000
vn -0.479467 -0.877560 0.000000
vn -0.479467 -0.877560 0.000000
vn -0.429995 -0.902831 0.000000
vn -0.429995 -0.902831 0.000000
vn -0.379195 -0.925317 0.000000
vn -0.379195 -0.925317 0.000000
vn -0.327225 -0.944946 0.000000
vn -0.327225 -0.944946 0.000000
vn -0.274244 -0.961660 0.000000
vn -0.274244 -0.961660 0.000000
vn -0.220419 -0.975405 0.000000
vn -0.220419 -0.975405 0.000000
vn -0.165912 -0.986141 0.000000
vn -0.165912 -0.986141 0.000000
vn -0.110894 -0.993832 0.000000
vn -0.055531 -0.998457 -0.000000
vn -0.110894 -0.993832 0.000000
vn -0.055531 -0.998457 0.000000
vn 0.000000 -1.000000 0.000000
vn 0.000000 -1.000000 0.000000
vn 0.055531 -0.998457 0.000000
vn 0.055531 -0.998457 0.000000
vn 0.110894 -0.993832 0.000000
vn 0.110894 -0.993832 0.000000
vn 0.165912 -0.986141 0.000000
vn 0.220419 -0.975405 0.000000
vn 0.165912 -0.986141 0.000000
vn 0.220419 -0.975405 0.000000
vn 0.274244 -0.961660 0.000000
vn 0.274244 -0.961660 0.000000
vn 0.327225 -0.944946 0.000000
vn 0.379195 -0.925317 0.000000
vn 0.327225 -0.944946 0.000000
vn 0.429995 -0.902831 0.000000
vn 0.379195 -0.925317 0.000000
vn 0.479467 -0.877560 0.000000
vn 0.429995 -0.902831 0.000000
vn 0.527460 -0.849580 0.000000
vn 0.479467 -0.877560 0.000000
vn 0.573825 -0.818978 0.000000
vn 0.527460 -0.849580 0.000000
vn 0.618420 -0.785848 0.000000
vn 0.573825 -0.818978 0.000000
vn 0.661106 -0.750293 0.000000
vn 0.618420 -0.785848 0.000000
vn 0.701750 -0.712423 0.000000
vn 0.661106 -0.750293 0.000000
vn 0.740231 -0.672353 0.000000
vn 0.701750 -0.712423 0.000000
vn 0.740231 -0.672353 0.000000
vn 1.000000 0.000000 0.000000
vn 1.000000 -0.000000 0.000000
vn -0.999614 -0.027797 0.000000
vn -0.999614 -0.027797 0.000000
vn -0.996524 -0.083309 0.000000
vn -0.996524 -0.083309 0.000000
vn -0.981123 -0.193387 0.000000
vn -0.990354 -0.138561 0.000000
vn -0.990354 -0.138561 0.000000
vn -0.981123 -0.193387 0.000000
vn -0.968859 -0.247612 0.000000
vn -0.968859 -0.247612 0.000000
vn -0.953601 -0.301075 0.000000
vn -0.953601 -0.301075 0.000000
vn -0.914298 -0.405042 0.000000
vn -0.935395 -0.353605 0.000000
vn -0.935395 -0.353605 0.000000
vn -0.914298 -0.405042 0.000000
vn -0.863700 -0.504007 0.000000
vn -0.890374 -0.455229 0.000000
vn -0.890374 -0.455229 0.000000
vn -0.863700 -0.504007 0.000000
vn -0.834354 -0.551229 0.000000
vn -0.834354 -0.551229 0.000000
vn -0.768026 -0.640418 0.000000
vn -0.802430 -0.596746 0.000000
vn -0.802430 -0.596746 0.000000
vn -0.768026 -0.640418 0.000000
vn -0.731249 -0.682111 0.000000
vn -0.731249 -0.682111 0.000000
vn -0.651033 -0.759050 0.000000
vn -0.692210 -0.721696 0.000000
vn -0.692210 -0.721696 0.000000
vn -0.607842 -0.794058 0.000000
vn -0.651033 -0.759050 0.000000
vn -0.607842 -0.794058 0.000000
vn -0.562773 -0.826612 0.000000
vn -0.515965 -0.856610 0.000000
vn -0.562773 -0.826612 0.000000
vn -0.515965 -0.856610 0.000000
vn -0.467562 -0.883960 0.000000
vn -0.467562 -0.883960 0.000000
vn -0.417713 -0.908579 0.000000
vn -0.417713 -0.908579 0.000000
vn -0.366574 -0.930389 0.000000
vn -0.366574 -0.930389 0.000000
vn -0.314300 -0.949324 0.000000
vn -0.314300 -0.949324 0.000000
vn -0.207006 -0.978340 0.000000
vn -0.261056 -0.965324 0.000000
vn -0.261056 -0.965324 0.000000
vn -0.207006 -0.978340 0.000000
vn -0.152314 -0.988332 0.000000
vn -0.152314 -0.988332 0.000000
vn -0.097152 -0.995270 0.000000
vn -0.097152 -0.995270 0.000000
vn -0.041691 -0.999130 0.000000
vn 0.013901 -0.999903 0.000000
vn -0.041691 -0.999130 0.000000
vn 0.013901 -0.999903 0.000000
vn 0.069449 -0.997586 0.000000
vn 0.069449 -0.997586 0.000000
vn 0.124781 -0.992184 0.000000
vn 0.124781 -0.992184 0.000000
vn 0.179730 -0.983716 0.000000
vn 0.179730 -0.983716 0.000000
vn 0.234120 -0.972208 0.000000
vn 0.287791 -0.957693 0.000000
vn 0.234120 -0.972208 0.000000
vn 0.287791 -0.957693 0.000000
vn 0.340568 -0.940220 0.000000
vn 0.340568 -0.940220 0.000000
vn 0.392294 -0.919840 0.000000
vn 0.442808 -0.896617 0.000000
vn 0.392294 -0.919840 0.000000
vn 0.442808 -0.896617 0.000000
vn 0.491953 -0.870622 0.000000
vn 0.491953 -0.870622 0.000000
vn 0.585534 -0.810648 0.000000
vn 0.539577 -0.841936 0.000000
vn 0.539577 -0.841936 0.000000
vn 0.585534 -0.810648 0.000000
vn 0.671881 -0.740659 0.000000
vn 0.629681 -0.776854 0.000000
vn 0.629681 -0.776854 0.000000
vn 0.712004 -0.702175 0.000000
vn 0.671881 -0.740659 0.000000
vn 0.712004 -0.702175 0.000000
vn 0.749927 -0.661520 0.000000
vn 0.749927 -0.661520 0.000000
vn 0.785531 -0.618822 0.000000
vn 0.785531 -0.618822 0.000000
vn 0.818710 -0.574208 0.000000
vn 0.849355 -0.527822 0.000000
vn 0.818710 -0.574208 0.000000
vn 0.849355 -0.527822 0.000000
vn 0.877376 -0.479804 0.000000
vn 0.902685 -0.430302 0.000000
vn 0.877376 -0.479804 0.000000
vn 0.902685 -0.430302 0.000000
vn 0.925204 -0.379470 0.000000
vn 0.925204 -0.379470 0.000000
vn 0.944863 -0.327467 0.000000
vn 0.961602 -0.274449 0.000000
vn 0.944863 -0.327467 0.000000
vn 0.961602 -0.274449 0.000000
vn 0.975368 -0.220585 0.000000
vn 0.986120 -0.166037 0.000000
vn 0.975368 -0.220585 0.000000
vn 0.986120 -0.166037 0.000000
vn 0.993823 -0.110979 0.000000
vn 0.993823 -0.110979 0.000000
vn 0.998455 -0.055574 0.000000
vn 1.000000 0.000000 -0.000000
vn 0.998455 -0.055574 0.000000
vn 1.000000 0.000000 0.000000
vn 0.998455 0.055574 0.000000
vn 0.998455 0.055574 -0.000000
vn 0.986120 0.166037 -0.000000
vn 0.993823 0.110979 -0.000000
vn 0.993823 0.110979 0.000000
vn 0.986120 0.166037 -0.000000
vn 0.961602 0.274449 -0.000000
vn 0.975368 0.220585 -0.000000
vn 0.975368 0.220585 0.000000
vn 0.961602 0.274449 -0.000000
vn 0.925204 0.379470 -0.000000
vn 0.944863 0.327467 -0.000000
vn 0.944863 0.327467 0.000000
vn 0.925204 0.379470 -0.000000
vn 0.902685 0.430302 -0.000000
vn 0.902685 0.430302 0.000000
vn 0.877376 0.479804 -0.000000
vn 0.877376 0.479804 0.000000
vn 0.818710 0.574208 -0.000000
vn 0.849355 0.527822 -0.000000
vn 0.849355 0.527822 0.000000
vn 0.818710 0.574208 -0.000000
vn 0.785531 0.618822 0.000000
vn 0.749927 0.661520 -0.000000
vn 0.785531 0.618822 -0.000000
vn 0.749927 0.661520 -0.000000
vn 0.712004 0.702175 0.000000
vn 0.712004 0.702175 -0.000000
vn 0.671881 0.740659 0.000000
vn 0.671881 0.740659 -0.000000
vn 0.629681 0.776854 0.000000
vn 0.629681 0.776854 -0.000000
vn 0.585534 0.810648 0.000000
vn 0.585534 0.810648 -0.000000
vn 0.539577 0.841936 0.000000
vn 0.491953 0.870622 -0.000000
vn 0.539577 0.841936 -0.000000
vn 0.491953 0.870622 -0.000000
vn 0.442808 0.896617 0.000000
vn 0.442808 0.896617 -0.000000
vn 0.392294 0.919840 0.000000
vn 0.392294 0.919840 -0.000000
vn 0.340568 0.940220 0.000000
vn 0.340568 0.940220 -0.000000
vn 0.234120 0.972208 -0.000000
vn 0.287791 0.957693 -0.000000
vn 0.287791 0.957693 0.000000
vn 0.234120 0.972208 -0.000000
vn 0.179730 0.983716 -0.000000
vn 0.179730 0.983716 0.000000
vn 0.124781 0.992184 -0.000000
vn 0.124781 0.992184 0.000000
vn 0.069449 0.997586 -0.000000
vn 0.069449 0.997586 0.000000
vn 0.013901 0.999903 -0.000000
vn 0.013901 0.999903 0.000000
vn -0.041691 0.999130 0.000000
vn -0.041691 0.999130 0.000000
vn -0.152314 0.988332 0.000000
vn -0.097152 0.995270 0.000000
vn -0.097152 0.995270 0.000000
vn -0.152314 0.988332 0.000000
vn -0.207006 0.978340 0.000000
vn -0.207006 0.978340 0.000000
vn -0.261056 0.965324 0.000000
vn -0.261056 0.965324 0.000000
vn -0.366574 0.930389 0.000000
vn -0.314300 0.949324 0.000000
vn -0.314300 0.949324 0.000000
vn -0.366574 0.930389 0.000000
vn -0.417713 0.908579 0.000000
vn -0.417713 0.908579 0.000000
vn -0.467562 0.883960 0.000000
vn -0.467562 0.883960 0.000000
vn -0.515965 0.856610 0.000000
vn -0.515965 0.856610 0.000000
vn -0.562773 0.826612 0.000000
vn -0.607842 0.794058 0.000000
vn -0.562773 0.826612 0.000000
vn -0.607842 0.794058 0.000000
vn -0.651033 0.759050 0.000000
vn -0.651033 0.759050 0.000000
vn -0.692210 0.721696 0.000000
vn -0.731249 0.682111 0.000000
vn -0.692210 0.721696 0.000000
vn -0.731249 0.682111 0.000000
vn -0.768026 0.640418 0.000000
vn -0.768026 0.640418 0.000000
vn -0.802430 0.596746 0.000000
vn -0.802430 0.596746 0.000000
vn -0.834354 0.551229 0.000000
vn -0.834354 0.551229 0.000000
vn -0.890374 0.455229 0.000000
vn -0.863700 0.504007 0.000000
vn -0.863700 0.504007 0.000000
vn -0.890374 0.455229 0.000000
vn -0.914298 0.405042 0.000000
vn -0.914298 0.405042 0.000000
vn -0.935395 0.353605 0.000000
vn -0.935395 0.353605 0.000000
vn -0.953601 0.301075 0.000000
vn -0.953601 0.301075 0.000000
vn -0.968859 0.247612 0.000000
vn -0.968859 0.247612 0.000000
vn -0.981123 0.193387 0.000000
vn -0.981123 0.193387 0.000000
vn -0.996524 0.083309 0.000000
vn -0.990354 0.138561 0.000000
vn -0.990354 0.138561 0.000000
vn -0.996524 0.083309 0.000000
vn -0.999614 0.027797 0.000000
vn -0.999614 0.027797 0.000000
f 1//1 2//1 3//1
f 1//2 4//2 2//2
f 5//3 6//3 7//3
f 8//4 6//4 5//4
f 8//5 4//5 6//5
f 9//6 5//6 7//6
f 9//7 7//7 10//7
f 11//8 4//8 8//8
f 12//9 10//9 13//9
f 12//10 9//10 10//10
f 14//11 4//11 11//11
f 15//12 13//12 16//12
f 15//13 12//13 13//13
f 17//14 4//14 14//14
f 18//15 15//15 16//15
f 18//16 16//16 19//16
f 20//17 4//17 17//17
f 21//18 19//18 22//18
f 21//19 18//19 19//19
f 23//20 4//20 20//20
f 24//21 22//21 25//21
f 24//22 21//22 22//22
f 26//23 4//23 23//23
f 27//24 25//24 28//24
f 27//25 24//25 25//25
f 29//26 4//26 26//26
f 30//27 27//27 28//27
f 30//28 28//28 31//28
f 32//29 4//29 29//29
f 33//30 31//30 34//30
f 33//31 30//31 31//31
f 35//32 4//32 32//32
f 36//33 34//33 37//33
f 36//34 33//34 34//34
f 38//35 4//35 35//35
f 39//36 37//36 40//36
f 39//37 36//37 37//37
f 41//38 4//38 38//38
f 42//39 40//39 43//39
f 42//40 39//40 40//40
f 44//41 4//41 41//41
f 45//42 43//42 46//42
f 45//43 42//43 43//43
f 47//44 4//44 44//44
f 48//45 46//45 49//45
f 48//46 45//46 46//46
f 50//47 4//47 47//47
f 51//48 49//48 52//48
f 51//49 48//49 49//49
f 53//50 52//50 54//50
f 53//51 51//51 52//51
f 55//52 54//52 56//52
f 55//53 53//53 54//53
f 57//54 56//54 58//54
f 57//55 55//55 56//55
f 59//56 58//56 60//56
f 59//57 57//57 58//57
f 61//58 60//58 62//58
f 61//59 59//59 60//59
f 63//60 61//60 62//60
f 63//61 62//61 64//61
f 65//62 64//62 66//62
f 65//63 63//63 64//63
f 67//64 66//64 68//64
f 67//65 65//65 66//65
f 69//66 68//66 70//66
f 69//67 67//67 68//67
f 2//68 50//68 71//68
f 2//69 71//69 72//69
f 2//70 72//70 73//70
f 2//71 73//71 74//71
f 2//72 74//72 75//72
f 2//73 75//73 76//73
f 2//74 76//74 77//74
f 2//75 77//75 78//75
f 2//76 78//76 79//76
f 2//77 79//77 80//77
f 2//78 4//78 50//78
f 81//79 70//79 82//79
f 81//80 69//80 70//80
f 83//81 2//81 80//81
f 84//82 82//82 85//82
f 84//83 81//83 82//83
f 86//84 2//84 83//84
f 87//85 85//85 88//85
f 87//86 84//86 85//86
f 89//87 2//87 86//87
f 89//88 90//88 2//88
f 91//89 87//89 88//89
f 92//90 90//90 89//90
f 93//91 91//91 88//91
f 94//92 91//92 93//92
f 95//93 92//93 96//93
f 95//94 90//94 92//94
f 97//95 94//95 93//95
f 97//96 98//96 94//96
f 99//97 98//97 97//97
f 100//98 96//98 101//98
f 100//99 95//99 96//99
f 102//100 99//100 97//100
f 103//101 102//101 97//101
f 104//102 101//102 105//102
f 104//103 100//103 101//103
f 106//104 103//104 97//104
f 107//105 106//105 97//105
f 108//106 107//106 97//106
f 109//107 105//107 110//107
f 109//108 104//108 105//108
f 111//109 108//109 97//109
f 112//110 111//110 97//110
f 113//111 110//111 114//111
f 113//112 109//112 110//112
f 115//113 112//113 97//113
f 116//114 115//114 97//114
f 117//115 116//115 97//115
f 118//116 114//116 119//116
f 118//117 113//117 114//117
f 120//118 117//118 97//118
f 121//119 118//119 119//119
f 121//120 119//120 122//120
f 123//121 122//121 124//121
f 123//122 121//122 122//122
f 125//123 123//123 124//123
f 125//124 124//124 126//124
f 127//125 126//125 128//125
f 127//126 125//126 126//126
f 129//127 128//127 130//127
f 129//128 127//128 128//128
f 131//129 130//129 132//129
f 131//130 129//130 130//130
f 133//131 132//131 134//131
f 133//132 131//132 132//132
f 135//133 134//133 136//133
f 135//134 133//134 134//134
f 137//135 136//135 138//135
f 137//136 135//136 136//136
f 139//137 138//137 140//137
f 139//138 137//138 138//138
f 141//139 139//139 140//139
f 141//140 140//140 142//140
f 143//141 141//141 142//141
f 143//142 142//142 144//142
f 145//143 144//143 146//143
f 145//144 143//144 144//144
f 147//145 145//145 146//145
f 147//146 146//146 148//146
f 149//147 147//147 148//147
f 149//148 148//148 150//148
f 151//149 149//149 150//149
f 151//150 150//150 152//150
f 153//151 151//151 152//151
f 153//152 152//152 154//152
f 155//153 153//153 154//153
f 155//154 154//154 156//154
f 157//155 155//155 156//155
f 157//156 156//156 158//156
f 159//157 157//157 158//157
f 159//158 158//158 160//158
f 161//159 159//159 160//159
f 161//160 160//160 162//160
f 163//161 120//161 97//161
f 163//162 164//162 165//162
f 163//163 165//163 166//163
f 163//164 166//164 167//164
f 163//165 167//165 168//165
f 163//166 168//166 169//166
f 163//167 169//167 170//167
f 163//168 170//168 171//168
f 163//169 171//169 172//169
f 163//170 172//170 173//170
f 163//171 173//171 174//171
f 163//172 174//172 175//172
f 163//173 175//173 176//173
f 163//174 176//174 120//174
f 177//175 161//175 162//175
f 177//176 162//176 178//176
f 179//177 164//177 163//177
f 179//178 177//178 178//178
f 179//179 178//179 164//179
f 180//180 181//180 163//180
f 163//181 181//181 179//181
f 179//182 182//182 177//182
f 181//183 182//183 179//183
f 177//184 183//184 161//184
f 182//185 183//185 177//185
f 161//186 184//186 159//186
f 183//187 184//187 161//187
f 159//188 185//188 157//188
f 184//189 185//189 159//189
f 157//190 186//190 155//190
f 185//191 186//191 157//191
f 155//192 187//192 153//192
f 186//193 187//193 155//193
f 187//194 188//194 153//194
f 153//195 188//195 151//195
f 188//196 189//196 151//196
f 151//197 189//197 149//197
f 189//198 190//198 149//198
f 149//199 190//199 147//199
f 190//200 191//200 147//200
f 147//201 191//201 145//201
f 191//202 192//202 145//202
f 145//203 192//203 143//203
f 192//204 193//204 143//204
f 143//205 193//205 141//205
f 193//206 194//206 141//206
f 141//207 194//207 139//207
f 194//208 195//208 139//208
f 139//209 195//209 137//209
f 195//210 196//210 137//210
f 137//211 196//211 135//211
f 196//212 197//212 135//212
f 135//213 197//213 133//213
f 197//214 198//214 133//214
f 133//215 198//215 131//215
f 129//216 199//216 127//216
f 131//217 199//217 129//217
f 198//218 199//218 131//218
f 199//219 200//219 127//219
f 127//220 200//220 125//220
f 200//221 201//221 125//221
f 125//222 201//222 123//222
f 123//223 202//223 121//223
f 201//224 202//224 123//224
f 121//225 203//225 118//225
f 202//226 203//226 121//226
f 118//227 204//227 113//227
f 203//228 204//228 118//228
f 113//229 205//229 109//229
f 204//230 205//230 113//230
f 109//231 206//231 104//231
f 205//232 206//232 109//232
f 104//233 207//233 100//233
f 206//234 207//234 104//234
f 100//235 208//235 95//235
f 207//236 208//236 100//236
f 95//237 209//237 90//237
f 208//238 209//238 95//238
f 90//239 210//239 2//239
f 209//240 210//240 90//240
f 210//241 3//241 2//241
f 211//242 212//242 213//242
f 1//243 214//243 211//243
f 211//244 214//244 212//244
f 213//245 215//245 216//245
f 212//246 215//246 213//246
f 1//247 217//247 214//247
f 216//248 218//248 219//248
f 215//249 218//249 216//249
f 1//250 220//250 217//250
f 219//251 221//251 222//251
f 218//252 221//252 219//252
f 1//253 223//253 220//253
f 222//254 224//254 225//254
f 221//255 224//255 222//255
f 1//256 226//256 223//256
f 225//257 227//257 228//257
f 224//258 227//258 225//258
f 1//259 229//259 226//259
f 228//260 230//260 231//260
f 227//261 230//261 228//261
f 1//262 232//262 229//262
f 231//263 233//263 234//263
f 230//264 233//264 231//264
f 1//265 235//265 232//265
f 234//266 236//266 237//266
f 233//267 236//267 234//267
f 1//268 238//268 235//268
f 237//269 239//269 240//269
f 236//270 239//270 237//270
f 1//271 241//271 238//271
f 240//272 242//272 243//272
f 239//273 242//273 240//273
f 1//274 244//274 241//274
f 242//275 245//275 243//275
f 243//276 245//276 246//276
f 1//277 247//277 244//277
f 246//278 248//278 249//278
f 245//279 248//279 246//279
f 1//280 250//280 247//280
f 249//281 251//281 252//281
f 248//282 251//282 249//282
f 1//283 253//283 250//283
f 252//284 254//284 255//284
f 251//285 254//285 252//285
f 1//286 256//286 253//286
f 255//287 257//287 258//287
f 254//288 257//288 255//288
f 258//289 259//289 260//289
f 257//290 259//290 258//290
f 260//291 261//291 262//291
f 259//292 261//292 260//292
f 262//293 263//293 264//293
f 261//294 263//294 262//294
f 264//295 265//295 266//295
f 263//296 265//296 264//296
f 266//297 267//297 268//297
f 265//298 267//298 266//298
f 268//299 269//299 270//299
f 267//300 269//300 268//300
f 269//301 271//301 270//301
f 270//302 271//302 272//302
f 272//303 273//303 274//303
f 271//304 273//304 272//304
f 273//305 275//305 274//305
f 274//306 275//306 276//306
f 256//307 3//307 277//307
f 277//308 3//308 278//308
f 278//309 3//309 279//309
f 279//310 3//310 280//310
f 280//311 3//311 281//311
f 281//312 3//312 282//312
f 282//313 3//313 283//313
f 283//314 3//314 284//314
f 284//315 3//315 285//315
f 285//316 3//316 286//316
f 1//317 3//317 256//317
f 276//318 287//318 288//318
f 275//319 287//319 276//319
f 3//320 289//320 286//320
f 287//321 290//321 288//321
f 288//322 290//322 291//322
f 3//323 292//323 289//323
f 291//324 293//324 294//324
f 290//325 293//325 291//325
f 3//326 295//326 292//326
f 210//327 295//327 3//327
f 293//328 296//328 294//328
f 210//329 297//329 295//329
f 296//330 298//330 294//330
f 296//331 299//331 298//331
f 297//332 209//332 300//332
f 210//333 209//333 297//333
f 299//334 301//334 298//334
f 302//335 301//335 299//335
f 302//336 303//336 301//336
f 300//337 208//337 304//337
f 209//338 208//338 300//338
f 303//339 305//339 301//339
f 305//340 306//340 301//340
f 304//341 207//341 307//341
f 208//342 207//342 304//342
f 306//343 308//343 301//343
f 308//344 309//344 301//344
f 309//345 310//345 301//345
f 307//346 206//346 311//346
f 207//347 206//347 307//347
f 310//348 312//348 301//348
f 312//349 313//349 301//349
f 311//350 205//350 314//350
f 206//351 205//351 311//351
f 313//352 315//352 301//352
f 315//353 316//353 301//353
f 316//354 317//354 301//354
f 314//355 204//355 318//355
f 205//356 204//356 314//356
f 317//357 319//357 301//357
f 204//358 203//358 318//358
f 318//359 203//359 320//359
f 203//360 202//360 320//360
f 320//361 202//361 321//361
f 202//362 201//362 321//362
f 321//363 201//363 322//363
f 322//364 200//364 323//364
f 201//365 200//365 322//365
f 323//366 199//366 324//366
f 200//367 199//367 323//367
f 324//368 198//368 325//368
f 199//369 198//369 324//369
f 325//370 197//370 326//370
f 198//371 197//371 325//371
f 326//372 196//372 327//372
f 197//373 196//373 326//373
f 327//374 195//374 328//374
f 196//375 195//375 327//375
f 328//376 194//376 329//376
f 195//377 194//377 328//377
f 194//378 193//378 329//378
f 329//379 193//379 330//379
f 193//380 192//380 330//380
f 330//381 192//381 331//381
f 331//382 191//382 332//382
f 192//383 191//383 331//383
f 191//384 190//384 332//384
f 332//385 190//385 333//385
f 190//386 189//386 333//386
f 333//387 189//387 334//387
f 189//388 188//388 334//388
f 334//389 188//389 335//389
f 188//390 187//390 335//390
f 335//391 187//391 336//391
f 187//392 186//392 336//392
f 336//393 186//393 337//393
f 186//394 185//394 337//394
f 337//395 185//395 338//395
f 185//396 184//396 338//396
f 338//397 184//397 339//397
f 184//398 183//398 339//398
f 339//399 183//399 340//399
f 319//400 180//400 301//400
f 341//401 180//401 342//401
f 342//402 180//402 343//402
f 343//403 180//403 344//403
f 344//404 180//404 345//404
f 345//405 180//405 346//405
f 346//406 180//406 347//406
f 347//407 180//407 348//407
f 348//408 180//408 349//408
f 349//409 180//409 350//409
f 350//410 180//410 351//410
f 351//411 180//411 352//411
f 352//412 180//412 353//412
f 353//413 180//413 319//413
f 183//414 182//414 340//414
f 340//415 182//415 354//415
f 182//416 181//416 354//416
f 341//417 181//417 180//417
f 354//418 181//418 341//418
f 1//419 211//419 4//419
f 4//420 211//420 6//420
f 6//421 213//421 7//421
f 211//422 213//422 6//422
f 7//423 216//423 10//423
f 213//424 216//424 7//424
f 10//425 219//425 13//425
f 216//426 219//426 10//426
f 13//427 222//427 16//427
f 219//428 222//428 13//428
f 16//429 225//429 19//429
f 222//430 225//430 16//430
f 19//431 228//431 22//431
f 225//432 228//432 19//432
f 228//433 231//433 22//433
f 22//434 231//434 25//434
f 231//435 234//435 25//435
f 25//436 234//436 28//436
f 234//437 237//437 28//437
f 28//438 237//438 31//438
f 237//439 240//439 31//439
f 31//440 240//440 34//440
f 240//441 243//441 34//441
f 34//442 243//442 37//442
f 243//443 246//443 37//443
f 37//444 246//444 40//444
f 246//445 249//445 40//445
f 43//446 249//446 46//446
f 40//447 249//447 43//447
f 249//448 252//448 46//448
f 46//449 252//449 49//449
f 252//450 255//450 49//450
f 49//451 255//451 52//451
f 255//452 258//452 52//452
f 52//453 258//453 54//453
f 258//454 260//454 54//454
f 54//455 260//455 56//455
f 56//456 262//456 58//456
f 260//457 262//457 56//457
f 262//458 264//458 58//458
f 58//459 264//459 60//459
f 264//460 266//460 60//460
f 60//461 266//461 62//461
f 62//462 268//462 64//462
f 266//463 268//463 62//463
f 64//464 270//464 66//464
f 268//465 270//465 64//465
f 66//466 272//466 68//466
f 270//467 272//467 66//467
f 68//468 274//468 70//468
f 272//469 274//469 68//469
f 70//470 276//470 82//470
f 274//471 276//471 70//471
f 82//472 288//472 85//472
f 276//473 288//473 82//473
f 85//474 291//474 88//474
f 288//475 291//475 85//475
f 88//476 294//476 93//476
f 291//477 294//477 88//477
f 93//478 298//478 97//478
f 294//479 298//479 93//479
f 298//480 301//480 97//480
f 163//481 301//481 180//481
f 97//482 301//482 163//482
f 353//483 319//483 120//483
f 353//484 120//484 176//484
f 352//485 176//485 175//485
f 352//486 353//486 176//486
f 351//487 174//487 173//487
f 351//488 175//488 174//488
f 351//489 352//489 175//489
f 350//490 351//490 173//490
f 349//491 173//491 172//491
f 349//492 350//492 173//492
f 348//493 172//493 171//493
f 348//494 349//494 172//494
f 347//495 170//495 169//495
f 347//496 171//496 170//496
f 347//497 348//497 171//497
f 346//498 347//498 169//498
f 345//499 168//499 167//499
f 345//500 169//500 168//500
f 345//501 346//501 169//501
f 344//502 345//502 167//502
f 343//503 167//503 166//503
f 343//504 344//504 167//504
f 342//505 165//505 164//505
f 342//506 166//506 165//506
f 342//507 343//507 166//507
f 341//508 342//508 164//508
f 354//509 164//509 178//509
f 354//510 341//510 164//510
f 340//511 162//511 160//511
f 340//512 178//512 162//512
f 340//513 354//513 178//513
f 339//514 160//514 158//514
f 339//515 340//515 160//515
f 338//516 339//516 158//516
f 337//517 338//517 158//517
f 337//518 156//518 154//518
f 337//519 158//519 156//519
f 336//520 337//520 154//520
f 335//521 154//521 152//521
f 335//522 336//522 154//522
f 334//523 152//523 150//523
f 334//524 335//524 152//524
f 333//525 150//525 148//525
f 333//526 334//526 150//526
f 332//527 148//527 146//527
f 332//528 333//528 148//528
f 331//529 144//529 142//529
f 331//530 146//530 144//530
f 331//531 332//531 146//531
f 330//532 331//532 142//532
f 329//533 142//533 140//533
f 329//534 330//534 142//534
f 328//535 329//535 140//535
f 328//536 140//536 138//536
f 327//537 328//537 138//537
f 327//538 136//538 134//538
f 327//539 138//539 136//539
f 326//540 327//540 134//540
f 326//541 134//541 132//541
f 325//542 326//542 132//542
f 325//543 132//543 130//543
f 324//544 325//544 130//544
f 323//545 324//545 130//545
f 323//546 130//546 128//546
f 322//547 323//547 128//547
f 322//548 126//548 124//548
f 322//549 128//549 126//549
f 321//550 322//550 124//550
f 320//551 321//551 124//551
f 320//552 124//552 122//552
f 318//553 320//553 122//553
f 318//554 119//554 114//554
f 318//555 122//555 119//555
f 314//556 318//556 114//556
f 311//557 314//557 114//557
f 311//558 114//558 110//558
f 307//559 105//559 101//559
f 307//560 110//560 105//560
f 307//561 311//561 110//561
f 304//562 307//562 101//562
f 300//563 96//563 92//563
f 300//564 101//564 96//564
f 300//565 304//565 101//565
f 297//566 92//566 89//566
f 297//567 300//567 92//567
f 295//568 297//568 89//568
f 292//569 295//569 89//569
f 292//570 89//570 86//570
f 289//571 292//571 86//571
f 289//572 86//572 83//572
f 286//573 289//573 83//573
f 286//574 80//574 79//574
f 286//575 83//575 80//575
f 285//576 286//576 79//576
f 284//577 285//577 79//577
f 284//578 78//578 77//578
f 284//579 79//579 78//579
f 283//580 284//580 77//580
f 282//581 283//581 77//581
f 282//582 77//582 76//582
f 281//583 282//583 76//583
f 281//584 75//584 74//584
f 281//585 76//585 75//585
f 280//586 281//586 74//586
f 279//587 280//587 74//587
f 279//588 73//588 72//588
f 279//589 74//589 73//589
f 278//590 279//590 72//590
f 277//591 278//591 72//591
f 277//592 72//592 71//592
f 256//593 277//593 71//593
f 256//594 50//594 47//594
f 256//595 71//595 50//595
f 253//596 256//596 47//596
f 250//597 253//597 47//597
f 250//598 47//598 44//598
f 247//599 41//599 38//599
f 247//600 44//600 41//600
f 247//601 250//601 44//601
f 244//602 247//602 38//602
f 241//603 35//603 32//603
f 241//604 38//604 35//604
f 241//605 244//605 38//605
f 238//606 241//606 32//606
f 235//607 29//607 26//607
f 235//608 32//608 29//608
f 235//609 238//609 32//609
f 232//610 235//610 26//610
f 229//611 26//611 23//611
f 229//612 232//612 26//612
f 226//613 23//613 20//613
f 226//614 229//614 23//614
f 223//615 17//615 14//615
f 223//616 20//616 17//616
f 223//617 226//617 20//617
f 220//618 223//618 14//618
f 217//619 220//619 14//619
f 217//620 11//620 8//620
f 217//621 14//621 11//621
f 214//622 217//622 8//622
f 212//623 214//623 8//623
f 212//624 8//624 5//624
f 215//625 212//625 5//625
f 215//626 5//626 9//626
f 218//627 215//627 9//627
f 218//628 9//628 12//628
f 221//629 218//629 12//629
f 221//630 12//630 15//630
f 224//631 221//631 15//631
f 224//632 18//632 21//632
f 224//633 15//633 18//633
f 227//634 224//634 21//634
f 230//635 227//635 21//635
f 230//636 21//636 24//636
f 233//637 230//637 24//637
f 233//638 24//638 27//638
f 236//639 233//639 27//639
f 236//640 27//640 30//640
f 239//641 33//641 36//641
f 239//642 30//642 33//642
f 239//643 236//643 30//643
f 242//644 239//644 36//644
f 245//645 36//645 39//645
f 245//646 242//646 36//646
f 248//647 39//647 42//647
f 248//648 245//648 39//648
f 251//649 42//649 45//649
f 251//650 248//650 42//650
f 254//651 45//651 48//651
f 254//652 251//652 45//652
f 257//653 48//653 51//653
f 257//654 254//654 48//654
f 259//655 53//655 55//655
f 259//656 51//656 53//656
f 259//657 257//657 51//657
f 261//658 259//658 55//658
f 263//659 55//659 57//659
f 263//660 261//660 55//660
f 265//661 57//661 59//661
f 265//662 263//662 57//662
f 267//663 61//663 63//663
f 267//664 59//664 61//664
f 267//665 265//665 59//665
f 269//666 267//666 63//666
f 271//667 269//667 63//667
f 271//668 63//668 65//668
f 273//669 271//669 65//669
f 273//670 65//670 67//670
f 275//671 273//671 67//671
f 275//672 67//672 69//672
f 287//673 275//673 69//673
f 287//674 81//674 84//674
f 287//675 69//675 81//675
f 290//676 287//676 84//676
f 293//677 290//677 84//677
f 293//678 84//678 87//678
f 296//679 293//679 87//679
f 296//680 91//680 94//680
f 296//681 87//681 91//681
f 299//682 296//682 94//682
f 302//683 94//683 98//683
f 302//684 299//684 94//684
f 303//685 98//685 99//685
f 303//686 302//686 98//686
f 305//687 99//687 102//687
f 305//688 303//688 99//688
f 306//689 103//689 106//689
f 306//690 102//690 103//690
f 306//691 305//691 102//691
f 308//692 306//692 106//692
f 309//693 106//693 107//693
f 309//694 308//694 106//694
f 310//695 107//695 108//695
f 310//696 309//696 107//696
f 312//697 108//697 111//697
f 312//698 310//698 108//698
f 313//699 111//699 112//699
f 313//700 312//700 111//700
f 315//701 112//701 115//701
f 315//702 313//702 112//702
f 316//703 116//703 117//703
f 316//704 115//704 116//704
f 316//705 315//705 115//705
f 317//706 316//706 117//706
f 319//707 117//707 120//707
f 319//708 317//708 117//708
